<?xml version="1.0" encoding="utf-8"?>
<!-- Generator: Adobe Illustrator 23.0.3, SVG Export Plug-In . SVG Version: 6.00 Build 0)  -->
<svg version="1.1" id="Calque_1" xmlns="http://www.w3.org/2000/svg" xmlns:xlink="http://www.w3.org/1999/xlink" x="0px" y="0px"
	 viewBox="0 0 600 600" style="enable-background:new 0 0 600 600;" xml:space="preserve">
<style type="text/css">
	.st0{opacity:0.2;}
	.st1{fill:#303030;}
	.st2{fill:#333333;}
	.st3{fill:#999999;}
	.st4{fill:#F6C89F;}
	.st5{opacity:0.55;}
	.st6{fill:#BC9371;}
	.st7{fill:#E6E6E6;}
	.st8{opacity:0.3;}
	.st9{fill:#7C94F4;}
	.st10{fill:#CCCCCC;}
	.st11{opacity:0.65;}
	.st12{fill:#FFFFFF;}
</style>
<g>
	<g class="st0">
		<ellipse class="st1" cx="115.8" cy="485.29" rx="95.79" ry="12.97"/>
	</g>
	<g>
		<path class="st2" d="M526.44,454.39H1.23c-0.68,0-1.23-0.55-1.23-1.23c0-0.68,0.55-1.23,1.23-1.23h525.21
			c0.68,0,1.23,0.55,1.23,1.23C527.68,453.83,527.12,454.39,526.44,454.39z"/>
	</g>
	<g>
		<path class="st3" d="M143.97,291.06H87.62c-0.98,0-1.78-0.8-1.78-1.78v-43.21c0-0.98,0.8-1.78,1.78-1.78h56.35
			c0.98,0,1.78,0.8,1.78,1.78v43.21C145.75,290.26,144.96,291.06,143.97,291.06z"/>
	</g>
	<g>
		<circle class="st4" cx="227.31" cy="312.61" r="13.25"/>
	</g>
	<g>
		<path class="st4" d="M227.31,325.85c25.06,0,105.56,5.11,146.55,5.11s-28.6-14.05-28.6-14.05l-73.1-13.41
			c0,0-16.92-4.15-44.85-4.15V325.85z"/>
	</g>
	<g class="st5">
		<path class="st6" d="M386.01,328.1c-1.49,0.66-5.25,1.06-12.15,1.06c-40.99,0-121.49-5.11-146.55-5.11
			c-7.01,0-12.74-5.45-13.2-12.35c-0.02,0.3-0.05,0.59-0.05,0.9c0,7.32,5.93,13.25,13.25,13.25c25.06,0,105.56,5.11,146.55,5.11
			C385.74,330.96,388.32,329.78,386.01,328.1z"/>
	</g>
	<g>
		<path class="st4" d="M480.53,248.92c21.31,0,57.94,29.93,83.8,31.92c25.86,2,35.67,3.35,35.67,3.35l-4.79,39.34
			c-27.29,0-60.01-1.2-60.01-1.2c-45.65,0-111.41,10.85-132.48,10.85c-21.07,0-64.48-7.34-82.04-9.58s-43.41-9.74-68.79-9.74v-26.5
			c32.72,0,69.43,0,95.93,0"/>
	</g>
	<g>
		<path class="st7" d="M187.94,485.29H43.65c-3.53,0-6.4-2.86-6.4-6.4V300.64h157.08v178.26
			C194.34,482.42,191.47,485.29,187.94,485.29z"/>
	</g>
	<g class="st8">
		<path class="st9" d="M53.05,477.88c-4.63,0-8.39-3.76-8.39-8.39V314c0-3.29,2.67-5.96,5.96-5.96h130.35
			c3.29,0,5.96,2.67,5.96,5.96v155.49c0,4.63-3.76,8.39-8.39,8.39H53.05z"/>
	</g>
	<g>
		<path class="st7" d="M194.34,302.2c0,5.94-40.57,1.5-83.95,1.5s-73.13,9.01-73.13-1.5c0-25.88,35.16-46.87,78.54-46.87
			S194.34,276.31,194.34,302.2z"/>
	</g>
	<g>
		<rect x="110.39" y="195.09" class="st3" width="10.82" height="55.67"/>
	</g>
	<g>
		<path class="st10" d="M343.43,211.79c-1.48,0-2.96-0.53-4.15-1.6c-8.41-7.62-21.35-12.34-28.53-12.34H85.84
			c-3.41,0-6.17-2.76-6.17-6.17c0-3.41,2.76-6.17,6.17-6.17h224.91c11.22,0,27.06,6.68,36.83,15.54c2.52,2.29,2.72,6.19,0.42,8.72
			C346.78,211.11,345.11,211.79,343.43,211.79z"/>
	</g>
	<g>
		<circle class="st4" cx="342.87" cy="284.2" r="15.16"/>
	</g>
	<g>
		<circle class="st10" cx="416.13" cy="280.84" r="19.79"/>
	</g>
	<g>
		<circle class="st4" cx="480.53" cy="278.53" r="29.61"/>
	</g>
	<g>
		<path class="st4" d="M480.53,308.14c-24.9,0-37.59-5.19-64.4-7.5c-26.81-2.31-52.67-1.28-73.26-1.28v-30.33
			c9.82,0,46.21-7.98,73.26-7.98c8.86,0,18.43-12.13,64.4-12.13l-6.22,36.31"/>
	</g>
	<g>
		<circle class="st4" cx="251.89" cy="300.64" r="13.25"/>
	</g>
	<g class="st5">
		<path class="st6" d="M480.53,303.35c-24.9,0-37.59-5.19-64.4-7.5s-52.67-1.28-73.26-1.28c-7.56,0-13.81-5.54-14.96-12.77
			c-0.12,0.78-0.21,1.58-0.21,2.39c0,8.37,6.79,15.16,15.16,15.16c20.59,0,46.45-1.04,73.26,1.28s39.5,7.5,64.4,7.5
			c16.35,0,29.61-13.26,29.61-29.61c0-0.81-0.04-1.6-0.1-2.39C508.81,291.37,496.08,303.35,480.53,303.35z"/>
	</g>
	<g class="st5">
		<path class="st6" d="M402.72,330c-21.07,0-64.48-7.34-82.04-9.58c-17.56-2.23-43.41-9.74-68.79-9.74
			c-6.78,0-12.35-5.09-13.14-11.65c-0.32,2.66-0.09,7.05,3.45,10.62c3.67,3.71,8.69,4.13,13.9,4.29c24,0.75,48,7.56,64.59,9.67
			c17.56,2.23,60.97,9.58,82.04,9.58c21.07,0,86.83-10.85,132.48-10.85h0c-10.71-2-21.62-2.62-32.49-1.83
			C462.69,323.42,419.14,330,402.72,330z"/>
	</g>
	<g class="st11">
		<path class="st12" d="M164.22,468.45h7.52c1.41,0,2.56-1.15,2.56-2.56V320.03c0-1.41-1.15-2.56-2.56-2.56h-7.52
			c-1.41,0-2.56,1.15-2.56,2.56v145.86C161.66,467.31,162.8,468.45,164.22,468.45z"/>
	</g>
</g>
<g>
	<g class="st0">
		<ellipse class="st1" cx="-526.93" cy="413.58" rx="47.9" ry="6.49"/>
	</g>
	<g>
		<path class="st2" d="M-321.6,398.13h-262.6c-0.34,0-0.62-0.28-0.62-0.62s0.28-0.62,0.62-0.62h262.6c0.34,0,0.62,0.28,0.62,0.62
			S-321.26,398.13-321.6,398.13z"/>
	</g>
	<g>
		<path class="st3" d="M-513.73,316.47h-26.4c-0.98,0-1.78-0.8-1.78-1.78v-19.83c0-0.98,0.8-1.78,1.78-1.78h26.4
			c0.98,0,1.78,0.8,1.78,1.78v19.83C-511.95,315.67-512.74,316.47-513.73,316.47z"/>
	</g>
	<g>
		<circle class="st4" cx="-471.17" cy="327.24" r="6.62"/>
	</g>
	<g>
		<path class="st4" d="M-471.17,333.87c12.53,0,52.78,2.55,73.27,2.55s-14.3-7.02-14.3-7.02l-36.55-6.7c0,0-8.46-2.07-22.43-2.07
			V333.87z"/>
	</g>
	<g class="st5">
		<path class="st6" d="M-391.82,334.99c-0.75,0.33-2.62,0.53-6.08,0.53c-20.5,0-60.75-2.55-73.27-2.55c-3.51,0-6.37-2.73-6.6-6.17
			c-0.01,0.15-0.02,0.3-0.02,0.45c0,3.66,2.97,6.62,6.62,6.62c12.53,0,52.78,2.55,73.27,2.55
			C-391.95,336.42-390.66,335.83-391.82,334.99z"/>
	</g>
	<g>
		<path class="st4" d="M-344.56,295.4c10.65,0,28.97,14.96,41.9,15.96s17.84,1.68,17.84,1.68l-2.39,19.67
			c-13.65,0-30.01-0.6-30.01-0.6c-22.82,0-55.7,5.43-66.24,5.43c-10.53,0-32.24-3.67-41.02-4.79c-8.78-1.12-21.71-4.87-34.4-4.87
			v-13.25c16.36,0,34.72,0,47.96,0"/>
	</g>
	<g>
		<path class="st7" d="M-494.05,413.58h-65.75c-3.53,0-6.4-2.86-6.4-6.4v-85.93h78.54v85.93
			C-487.65,410.72-490.52,413.58-494.05,413.58z"/>
	</g>
	<g class="st8">
		<path class="st9" d="M-558.3,409.88c-2.32,0-4.19-1.88-4.19-4.19v-77.75c0-1.65,1.33-2.98,2.98-2.98h65.17
			c1.65,0,2.98,1.33,2.98,2.98v77.75c0,2.32-1.88,4.19-4.19,4.19H-558.3z"/>
	</g>
	<g>
		<path class="st7" d="M-487.65,322.04c0,2.97-20.29,0.75-41.98,0.75c-21.69,0-36.57,4.5-36.57-0.75
			c0-12.94,17.58-23.43,39.27-23.43C-505.24,298.6-487.65,309.1-487.65,322.04z"/>
	</g>
	<g>
		<rect x="-529.63" y="268.48" class="st3" width="5.41" height="27.83"/>
	</g>
	<g>
		<path class="st10" d="M-413.11,276.84c-0.74,0-1.48-0.26-2.07-0.8c-4.2-3.81-10.68-6.17-14.27-6.17H-541.9
			c-1.7,0-3.09-1.38-3.09-3.09c0-1.7,1.38-3.09,3.09-3.09h112.45c5.61,0,13.53,3.34,18.41,7.77c1.26,1.15,1.36,3.1,0.21,4.36
			C-411.43,276.49-412.27,276.84-413.11,276.84z"/>
	</g>
	<g>
		<circle class="st4" cx="-413.39" cy="313.04" r="7.58"/>
	</g>
	<g>
		<circle class="st10" cx="-376.76" cy="311.36" r="9.9"/>
	</g>
	<g>
		<circle class="st4" cx="-344.56" cy="310.21" r="14.8"/>
	</g>
	<g>
		<path class="st4" d="M-344.56,325.01c-12.45,0-18.79-2.59-32.2-3.75s-26.34-0.64-36.63-0.64v-15.16c4.91,0,23.1-3.99,36.63-3.99
			c4.43,0,9.22-6.07,32.2-6.07l-3.11,18.16"/>
	</g>
	<g>
		<circle class="st4" cx="-458.88" cy="321.26" r="6.62"/>
	</g>
	<g class="st5">
		<path class="st6" d="M-344.56,322.61c-12.45,0-18.79-2.59-32.2-3.75c-13.41-1.16-26.34-0.64-36.63-0.64
			c-3.78,0-6.9-2.77-7.48-6.38c-0.06,0.39-0.1,0.79-0.1,1.2c0,4.19,3.39,7.58,7.58,7.58c10.29,0,23.22-0.52,36.63,0.64
			c13.41,1.16,19.75,3.75,32.2,3.75c8.18,0,14.8-6.63,14.8-14.8c0-0.4-0.02-0.8-0.05-1.2
			C-330.42,316.62-336.79,322.61-344.56,322.61z"/>
	</g>
	<g class="st5">
		<path class="st6" d="M-383.46,335.94c-10.53,0-32.24-3.67-41.02-4.79c-8.78-1.12-21.71-4.87-34.4-4.87
			c-3.39,0-6.18-2.54-6.57-5.83c-0.16,1.33-0.04,3.52,1.72,5.31c1.83,1.85,4.34,2.06,6.95,2.15c12,0.37,24,3.78,32.3,4.83
			c8.78,1.12,30.49,4.79,41.02,4.79c10.53,0,43.41-5.43,66.24-5.43l0,0c-5.35-1-10.81-1.31-16.24-0.92
			C-353.48,332.65-375.25,335.94-383.46,335.94z"/>
	</g>
	<g class="st11">
		<path class="st12" d="M-501.44,405.17h1.2c1.41,0,2.56-1.15,2.56-2.56v-70.37c0-1.41-1.15-2.56-2.56-2.56h-1.2
			c-1.41,0-2.56,1.15-2.56,2.56v70.37C-503.99,404.02-502.85,405.17-501.44,405.17z"/>
	</g>
</g>
<g>
	<g class="st0">
		<ellipse class="st1" cx="-929.82" cy="377.73" rx="23.95" ry="3.24"/>
	</g>
	<g>
		<path class="st2" d="M-827.15,370.01h-131.3c-0.17,0-0.31-0.14-0.31-0.31s0.14-0.31,0.31-0.31h131.3c0.17,0,0.31,0.14,0.31,0.31
			S-826.98,370.01-827.15,370.01z"/>
	</g>
	<g>
		<path class="st3" d="M-924.11,329.18h-11.42c-0.98,0-1.78-0.8-1.78-1.78v-8.13c0-0.98,0.8-1.78,1.78-1.78h11.42
			c0.98,0,1.78,0.8,1.78,1.78v8.13C-922.33,328.38-923.12,329.18-924.11,329.18z"/>
	</g>
	<g>
		<circle class="st4" cx="-901.94" cy="334.56" r="3.31"/>
	</g>
	<g>
		<path class="st4" d="M-901.94,337.87c6.26,0,26.39,1.28,36.64,1.28s-7.15-3.51-7.15-3.51l-18.28-3.35c0,0-4.23-1.04-11.21-1.04
			V337.87z"/>
	</g>
	<g class="st5">
		<path class="st6" d="M-862.26,338.44c-0.37,0.17-1.31,0.27-3.04,0.27c-10.25,0-30.37-1.28-36.64-1.28c-1.75,0-3.18-1.36-3.3-3.09
			c-0.01,0.07-0.01,0.15-0.01,0.22c0,1.83,1.48,3.31,3.31,3.31c6.26,0,26.39,1.28,36.64,1.28
			C-862.33,339.15-861.68,338.86-862.26,338.44z"/>
	</g>
	<g>
		<path class="st4" d="M-838.63,318.64c5.33,0,14.48,7.48,20.95,7.98s8.92,0.84,8.92,0.84l-1.2,9.84c-6.82,0-15-0.3-15-0.3
			c-11.41,0-27.85,2.71-33.12,2.71s-16.12-1.84-20.51-2.39c-4.39-0.56-10.85-2.43-17.2-2.43v-6.62c8.18,0,17.36,0,23.98,0"/>
	</g>
	<g>
		<path class="st7" d="M-916.58,377.73h-26.48c-3.53,0-6.4-2.86-6.4-6.4v-39.77h39.27v39.77
			C-910.18,374.87-913.04,377.73-916.58,377.73z"/>
	</g>
	<g class="st8">
		<path class="st9" d="M-945.5,375.88c-1.16,0-2.1-0.94-2.1-2.1v-38.87c0-0.82,0.67-1.49,1.49-1.49h32.59
			c0.82,0,1.49,0.67,1.49,1.49v38.87c0,1.16-0.94,2.1-2.1,2.1H-945.5z"/>
	</g>
	<g>
		<path class="st7" d="M-910.18,331.96c0,1.49-10.14,0.37-20.99,0.37c-10.84,0-18.28,2.25-18.28-0.37c0-6.47,8.79-11.72,19.64-11.72
			C-918.97,320.24-910.18,325.49-910.18,331.96z"/>
	</g>
	<g>
		<rect x="-931.17" y="305.18" class="st3" width="2.71" height="13.92"/>
	</g>
	<g>
		<path class="st10" d="M-872.91,309.36c-0.37,0-0.74-0.13-1.04-0.4c-2.1-1.91-5.34-3.09-7.13-3.09h-56.23
			c-0.85,0-1.54-0.69-1.54-1.54c0-0.85,0.69-1.54,1.54-1.54h56.23c2.81,0,6.76,1.67,9.21,3.89c0.63,0.57,0.68,1.55,0.11,2.18
			C-872.07,309.19-872.49,309.36-872.91,309.36z"/>
	</g>
	<g>
		<circle class="st4" cx="-873.05" cy="327.46" r="3.79"/>
	</g>
	<g>
		<circle class="st10" cx="-854.73" cy="326.62" r="4.95"/>
	</g>
	<g>
		<circle class="st4" cx="-838.63" cy="326.04" r="7.4"/>
	</g>
	<g>
		<path class="st4" d="M-838.63,333.45c-6.22,0-9.4-1.3-16.1-1.88c-6.7-0.58-13.17-0.32-18.32-0.32v-7.58c2.45,0,11.55-2,18.32-2
			c2.21,0,4.61-3.03,16.1-3.03l-1.56,9.08"/>
	</g>
	<g>
		<circle class="st4" cx="-895.79" cy="331.57" r="3.31"/>
	</g>
	<g class="st5">
		<path class="st6" d="M-838.63,332.25c-6.22,0-9.4-1.3-16.1-1.88c-6.7-0.58-13.17-0.32-18.32-0.32c-1.89,0-3.45-1.38-3.74-3.19
			c-0.03,0.2-0.05,0.39-0.05,0.6c0,2.09,1.7,3.79,3.79,3.79c5.15,0,11.61-0.26,18.32,0.32c6.7,0.58,9.88,1.88,16.1,1.88
			c4.09,0,7.4-3.31,7.4-7.4c0-0.2-0.01-0.4-0.03-0.6C-831.56,329.25-834.75,332.25-838.63,332.25z"/>
	</g>
	<g class="st5">
		<path class="st6" d="M-858.08,338.91c-5.27,0-16.12-1.84-20.51-2.39c-4.39-0.56-10.85-2.43-17.2-2.43c-1.69,0-3.09-1.27-3.29-2.91
			c-0.08,0.67-0.02,1.76,0.86,2.65c0.92,0.93,2.17,1.03,3.47,1.07c6,0.19,12,1.89,16.15,2.42c4.39,0.56,15.24,2.39,20.51,2.39
			c5.27,0,21.71-2.71,33.12-2.71l0,0c-2.68-0.5-5.41-0.66-8.12-0.46C-843.09,337.27-853.98,338.91-858.08,338.91z"/>
	</g>
	<g class="st11">
		<path class="st12" d="M-916.77,373.52L-916.77,373.52c0.87,0,1.58-0.71,1.58-1.58v-34.59c0-0.87-0.71-1.58-1.58-1.58l0,0
			c-0.87,0-1.58,0.71-1.58,1.58v34.59C-918.35,372.82-917.64,373.52-916.77,373.52z"/>
	</g>
</g>
</svg>
