<?xml version="1.0" encoding="utf-8"?>
<!-- Generator: Adobe Illustrator 23.0.3, SVG Export Plug-In . SVG Version: 6.00 Build 0)  -->
<svg version="1.1" id="Calque_1" xmlns="http://www.w3.org/2000/svg" xmlns:xlink="http://www.w3.org/1999/xlink" x="0px" y="0px"
	 viewBox="0 0 339.13 339.13" style="enable-background:new 0 0 339.13 339.13;" xml:space="preserve">
<style type="text/css">
	.st0{opacity:0.2;}
	.st1{fill:#FF0000;}
	.st2{fill:none;stroke:#FF0000;stroke-linecap:round;stroke-linejoin:round;stroke-miterlimit:10;}
	.st3{fill:none;stroke:#FF0000;stroke-width:0.6;stroke-linecap:round;stroke-linejoin:round;stroke-miterlimit:10;}
	.st4{filter:url(#Adobe_OpacityMaskFilter);}
	.st5{clip-path:url(#SVGID_14_);fill:url(#SVGID_16_);}
	.st6{clip-path:url(#SVGID_14_);mask:url(#SVGID_15_);fill:url(#SVGID_17_);}
	.st7{fill:#E2B593;}
	.st8{fill:#999999;}
	.st9{fill:#7C94F4;}
	.st10{opacity:0.15;}
	.st11{fill:#FFFFFF;}
	.st12{fill:#1A1A1A;}
	.st13{clip-path:url(#SVGID_19_);fill:#FFFFFF;}
	.st14{fill:#C90000;}
	.st15{fill:#CCCCCC;}
	.st16{fill:#F6C89F;}
	.st17{opacity:0.55;}
	.st18{clip-path:url(#SVGID_21_);fill:#D3A885;}
	.st19{clip-path:url(#SVGID_23_);fill:#D3A885;}
	.st20{clip-path:url(#SVGID_25_);fill:#D3A885;}
	.st21{clip-path:url(#SVGID_27_);fill:#D3A885;}
	.st22{fill:#333333;}
</style>
<g>
	<g>
		<g class="st0">
			<g>
				<defs>
					<rect id="SVGID_1_" x="184.47" y="140.19" width="4.64" height="9.19"/>
				</defs>
				<clipPath id="SVGID_2_">
					<use xlink:href="#SVGID_1_"  style="overflow:visible;"/>
				</clipPath>
			</g>
		</g>
		<g class="st0">
			<g>
				<defs>
					<rect id="SVGID_3_" x="170.79" y="118.41" width="13.62" height="17.4"/>
				</defs>
				<clipPath id="SVGID_4_">
					<use xlink:href="#SVGID_3_"  style="overflow:visible;"/>
				</clipPath>
			</g>
		</g>
	</g>
	<g>
		<g class="st0">
			<g>
				<defs>
					<rect id="SVGID_5_" x="169.26" y="142.05" width="7.31" height="6.75"/>
				</defs>
				<clipPath id="SVGID_6_">
					<use xlink:href="#SVGID_5_"  style="overflow:visible;"/>
				</clipPath>
			</g>
		</g>
	</g>
	<g>
		<g class="st0">
			<g>
				<defs>
					<rect id="SVGID_7_" x="177.75" y="134.48" width="19.66" height="29.41"/>
				</defs>
				<clipPath id="SVGID_8_">
					<use xlink:href="#SVGID_7_"  style="overflow:visible;"/>
				</clipPath>
			</g>
		</g>
		<g class="st0">
			<g>
				<defs>
					<rect id="SVGID_9_" x="179.35" y="135.62" width="5.4" height="8"/>
				</defs>
				<clipPath id="SVGID_10_">
					<use xlink:href="#SVGID_9_"  style="overflow:visible;"/>
				</clipPath>
			</g>
		</g>
	</g>
	<polygon class="st1" points="169.45,181.44 173.97,183.8 172.41,181.44 173.97,179.07 	"/>
	<polygon class="st2" points="169.45,181.44 173.97,183.8 172.41,181.44 173.97,179.07 	"/>
	<line class="st3" x1="200.08" y1="183.03" x2="200.08" y2="179.85"/>
	<line class="st3" x1="198.07" y1="183.93" x2="198.07" y2="178.95"/>
	<line class="st3" x1="198.07" y1="183.93" x2="198.07" y2="178.95"/>
	<line class="st3" x1="196.05" y1="183.03" x2="196.05" y2="179.85"/>
	<line class="st3" x1="194.04" y1="183.03" x2="194.04" y2="179.85"/>
	<line class="st3" x1="192.02" y1="183.03" x2="192.02" y2="179.85"/>
	<line class="st3" x1="190.01" y1="183.93" x2="190.01" y2="178.95"/>
	<line class="st3" x1="190.01" y1="183.93" x2="190.01" y2="178.95"/>
	<line class="st3" x1="188" y1="183.03" x2="188" y2="179.85"/>
	<line class="st3" x1="185.98" y1="183.03" x2="185.98" y2="179.85"/>
	<line class="st3" x1="183.97" y1="183.03" x2="183.97" y2="179.85"/>
	<line class="st3" x1="181.95" y1="183.93" x2="181.95" y2="178.95"/>
	<line class="st3" x1="181.95" y1="183.93" x2="181.95" y2="178.95"/>
	<line class="st3" x1="179.94" y1="183.03" x2="179.94" y2="179.85"/>
	<line class="st3" x1="177.92" y1="183.03" x2="177.92" y2="179.85"/>
	<line class="st3" x1="175.91" y1="183.03" x2="175.91" y2="179.85"/>
	<g>
		<g class="st0">
			<g>
				<defs>
					<rect id="SVGID_11_" x="146.65" y="135.79" width="2.96" height="8.6"/>
				</defs>
				<clipPath id="SVGID_12_">
					<use xlink:href="#SVGID_11_"  style="overflow:visible;"/>
				</clipPath>
			</g>
		</g>
	</g>
	<g>
		<defs>
			<polygon id="SVGID_13_" points="154.32,127.01 124.08,116.26 124.08,159.75 155.41,131.46 156.45,128.11 			"/>
		</defs>
		<clipPath id="SVGID_14_">
			<use xlink:href="#SVGID_13_"  style="overflow:visible;"/>
		</clipPath>
		<defs>
			<filter id="Adobe_OpacityMaskFilter" filterUnits="userSpaceOnUse" x="124.08" y="116.26" width="32.37" height="43.49">
				<feColorMatrix  type="matrix" values="1 0 0 0 0  0 1 0 0 0  0 0 1 0 0  0 0 0 1 0"/>
			</filter>
		</defs>
		<mask maskUnits="userSpaceOnUse" x="124.08" y="116.26" width="32.37" height="43.49" id="SVGID_15_">
			<g class="st4">
				
					<linearGradient id="SVGID_16_" gradientUnits="userSpaceOnUse" x1="1.037138e-05" y1="339.134" x2="1" y2="339.134" gradientTransform="matrix(32.3673 0 0 -32.3673 124.0837 11114.8477)">
					<stop  offset="0" style="stop-color:#000000"/>
					<stop  offset="1" style="stop-color:#FFFFFF"/>
				</linearGradient>
				<rect x="124.08" y="116.26" class="st5" width="32.37" height="43.49"/>
			</g>
		</mask>
		
			<linearGradient id="SVGID_17_" gradientUnits="userSpaceOnUse" x1="1.037138e-05" y1="339.134" x2="1" y2="339.134" gradientTransform="matrix(32.3673 0 0 -32.3673 124.0837 11114.8477)">
			<stop  offset="0" style="stop-color:#7C94F4"/>
			<stop  offset="1" style="stop-color:#7C94F4"/>
		</linearGradient>
		<rect x="124.08" y="116.26" class="st6" width="32.37" height="43.49"/>
	</g>
	<g>
		<path class="st7" d="M181.69,161.7c5.84-1.44,16.21-8.37,21.31-9.62l11.8-2.9c1.5-0.37,2.41-1.88,2.05-3.38l-3.09-12.57
			c-0.37-1.5-1.88-2.41-3.38-2.05l-18.02,4.43c-4.84,1.19-15.02,0.15-22.08,1.89c-7.06,1.73-9.12,2.08-9.12,2.08
			s-2.44,7.01,1.49,6.05s8.69,0.71,10.54,0.47c1.85-0.25,1.49,0.12,2.21-0.27C176.13,145.43,181.69,161.7,181.69,161.7"/>
		<path class="st8" d="M163.26,146.92c-0.53,0.21-1.15,0.12-1.6-0.29c-0.62-0.57-0.66-1.54-0.09-2.16
			c5.53-6.03,3.47-12.16,3.01-13.33c-0.31-0.78,0.07-1.67,0.85-1.99c0.78-0.31,1.67,0.07,1.99,0.85c0.59,1.47,3.18,9.15-3.59,16.53
			C163.65,146.71,163.46,146.84,163.26,146.92"/>
		<path class="st9" d="M204.89,209.44l-26.13,6.42c-1.81,0.45-3.65-0.66-4.09-2.48l-7.93-32.29l32.7-8.03l7.93,32.29
			C207.82,207.16,206.71,208.99,204.89,209.44"/>
		<path class="st9" d="M189.65,158.27L189.65,158.27c3.2-0.79,6.44,1.17,7.22,4.37l2.56,10.42l-5.8,1.43L189.65,158.27z"/>
		<path class="st9" d="M178.81,143.18l-4.51,1.11c-1.22,0.3-1.97,1.49-1.77,2.73c2.42,14.86-5.79,34.08-5.79,34.08l8.03,6.16
			l7.3-1.79l0.43,1.74l13.45-3.3l-9.85-40.06c-0.31-1.28-1.6-2.06-2.88-1.74L178.81,143.18z"/>
		<g class="st10">
			<g>
				<path class="st11" d="M177.44,213.83c-0.16,0.04-0.31-0.06-0.35-0.21l-7.95-32.34c1.5-3.73,7.91-20.79,5.65-34.62
					c-0.01-0.06,0.01-0.13,0.06-0.14l8.92-2.19c0.05-0.01,0.1,0.02,0.11,0.07l3.55,14.43c0.3,1.23,1.54,1.98,2.77,1.68
					c1.97-0.48,3.97,0.73,4.45,2.7l10.69,43.49c0.04,0.16-0.06,0.31-0.21,0.35L177.44,213.83z"/>
			</g>
		</g>
		<g class="st10">
			<g>
				<path class="st11" d="M185.76,152.02l1.67,6.79c0.3,1.23,1.54,1.98,2.77,1.68c1.97-0.48,3.97,0.73,4.45,2.7l10.69,43.48
					c0.04,0.16-0.06,0.31-0.21,0.35l-27.68,6.8c-0.16,0.04-0.31-0.06-0.35-0.21l-7.95-32.34c1.24-3.07,5.8-15.19,6.11-27.1
					c1.13-0.37,2.15-0.24,3.46-0.56c1.31-0.32,3.61-1.37,4.83-1.49C184.76,152,185.76,152.02,185.76,152.02"/>
			</g>
		</g>
		<path class="st1" d="M178.91,133.69l-4.68,1.15c-1.17,0.29-1.89,1.47-1.6,2.65l1.67,6.8l8.92-2.19l-1.67-6.8
			C181.27,134.12,180.08,133.41,178.91,133.69"/>
		<path class="st12" d="M183.52,126.28l-21.8,5.36c-0.75,0.18-1.51-0.27-1.7-1.03l-1.23-4.99c-0.19-0.75,0.27-1.51,1.03-1.69
			l21.8-5.36c0.75-0.18,1.51,0.27,1.7,1.03l1.23,4.99C184.73,125.34,184.27,126.1,183.52,126.28"/>
		<path class="st12" d="M162.84,131.36l3.52-0.86c3.27-0.8,6.57,1.2,7.38,4.47l2.98-9.79L162.84,131.36z"/>
		<path class="st12" d="M183.88,126.19L183.88,126.19c-3.27,0.8-5.27,4.11-4.47,7.38l-3.69-9.05L183.88,126.19z"/>
		<polygon class="st12" points="173.73,134.97 179.41,133.57 177.43,125.49 175.5,128.68 		"/>
		<path class="st1" d="M156.34,131.86l3.76-0.92l-1.39-5.64l-3.76,0.92c-0.43,0.11-0.7,0.54-0.59,0.98l1,4.07
			C155.47,131.7,155.9,131.97,156.34,131.86"/>
		<g class="st0">
			<g>
				<defs>
					<rect id="SVGID_18_" x="179.79" y="145.06" width="16.46" height="63.24"/>
				</defs>
				<clipPath id="SVGID_19_">
					<use xlink:href="#SVGID_18_"  style="overflow:visible;"/>
				</clipPath>
				
					<rect x="187.51" y="144.24" transform="matrix(0.9712 -0.2383 0.2383 0.9712 -36.6893 49.9014)" class="st13" width="1.01" height="64.87"/>
			</g>
		</g>
		<path class="st14" d="M175.65,143.55c-0.34,0-0.66-0.23-0.74-0.58l-1.43-5.81c-0.1-0.41,0.15-0.82,0.56-0.92
			c0.41-0.1,0.82,0.15,0.92,0.56l1.43,5.81c0.1,0.41-0.15,0.82-0.56,0.92C175.78,143.54,175.71,143.55,175.65,143.55"/>
		<path class="st14" d="M178.5,142.85c-0.34,0-0.66-0.23-0.74-0.58l-1.43-5.81c-0.1-0.41,0.15-0.82,0.56-0.92
			c0.41-0.1,0.82,0.15,0.92,0.56l1.43,5.81c0.1,0.41-0.15,0.82-0.56,0.92C178.62,142.85,178.56,142.85,178.5,142.85"/>
		<path class="st14" d="M181.34,142.16c-0.34,0-0.66-0.23-0.74-0.58l-1.43-5.81c-0.1-0.41,0.15-0.82,0.56-0.92
			c0.41-0.1,0.82,0.15,0.92,0.56l1.43,5.81c0.1,0.41-0.15,0.82-0.56,0.92C181.46,142.15,181.4,142.16,181.34,142.16"/>
		<path class="st15" d="M152.28,116.24l-1.82-0.16c-0.64-0.06-1.14-0.56-1.2-1.2l-0.16-1.84c-0.02-0.25-0.24-0.45-0.51-0.43
			c-0.23,0.02-0.41,0.22-0.43,0.45l-0.16,1.82c-0.06,0.64-0.56,1.14-1.2,1.2l-1.84,0.17c-0.25,0.02-0.45,0.24-0.43,0.5
			c0.02,0.23,0.22,0.41,0.45,0.43l1.82,0.16c0.64,0.06,1.14,0.56,1.2,1.2l0.16,1.84c0.02,0.25,0.24,0.45,0.51,0.43
			c0.23-0.02,0.41-0.21,0.43-0.45l0.16-1.82c0.06-0.64,0.56-1.14,1.2-1.2l1.84-0.16c0.25-0.02,0.45-0.24,0.43-0.51
			C152.71,116.44,152.51,116.26,152.28,116.24"/>
		<path class="st15" d="M151.93,150.24l-1.82-0.16c-0.64-0.06-1.14-0.56-1.2-1.2l-0.16-1.84c-0.02-0.25-0.24-0.45-0.51-0.43
			c-0.23,0.02-0.41,0.22-0.43,0.45l-0.16,1.82c-0.06,0.64-0.56,1.14-1.2,1.2l-1.84,0.17c-0.25,0.02-0.45,0.24-0.43,0.5
			c0.02,0.23,0.22,0.41,0.45,0.43l1.82,0.16c0.64,0.06,1.14,0.56,1.2,1.2l0.16,1.84c0.02,0.25,0.24,0.45,0.51,0.43
			c0.23-0.02,0.41-0.21,0.43-0.45l0.16-1.82c0.06-0.64,0.56-1.14,1.2-1.2l1.84-0.16c0.25-0.02,0.45-0.24,0.43-0.51
			C152.36,150.44,152.16,150.26,151.93,150.24"/>
		<path class="st15" d="M135.81,107.54l-1.82-0.16c-0.64-0.06-1.14-0.56-1.2-1.2l-0.16-1.84c-0.02-0.25-0.24-0.45-0.51-0.43
			c-0.23,0.02-0.41,0.22-0.43,0.45l-0.16,1.82c-0.06,0.64-0.56,1.14-1.2,1.2l-1.84,0.17c-0.25,0.02-0.45,0.24-0.43,0.5
			c0.02,0.23,0.22,0.41,0.45,0.43l1.82,0.16c0.64,0.06,1.14,0.56,1.2,1.2l0.16,1.84c0.02,0.25,0.24,0.45,0.51,0.43
			c0.23-0.02,0.41-0.21,0.43-0.45l0.16-1.82c0.06-0.64,0.56-1.14,1.2-1.2l1.84-0.16c0.25-0.02,0.45-0.24,0.43-0.51
			C136.24,107.74,136.04,107.56,135.81,107.54"/>
		<path class="st16" d="M170.79,143.62l-10.02,2.46c-1.67,0.41-3.36-0.61-3.77-2.28c-0.41-1.67,0.61-3.36,2.28-3.77l10.02-2.46
			c1.67-0.41,3.36,0.61,3.77,2.28C173.48,141.52,172.46,143.21,170.79,143.62"/>
		<path class="st16" d="M180.07,149.27l-12.84,3.16c-1.67,0.41-3.36-0.61-3.77-2.28c-0.41-1.67,0.61-3.36,2.28-3.77l12.84-3.15
			c1.67-0.41,3.36,0.61,3.77,2.28C182.76,147.17,181.74,148.86,180.07,149.27"/>
		<path class="st16" d="M183.03,154.95l-12.96,3.19c-1.67,0.41-3.36-0.61-3.77-2.28c-0.41-1.67,0.61-3.36,2.28-3.77l12.96-3.19
			c1.67-0.41,3.36,0.61,3.77,2.28C185.72,152.86,184.7,154.54,183.03,154.95"/>
		<path class="st16" d="M181.69,161.7l-8.79,2.16c-1.67,0.41-3.36-0.61-3.77-2.28c-0.41-1.67,0.61-3.36,2.28-3.77l8.79-2.16
			c1.67-0.41,3.36,0.61,3.77,2.28C184.38,159.6,183.36,161.28,181.69,161.7"/>
		<g class="st17">
			<g>
				<defs>
					<rect id="SVGID_20_" x="179.29" y="156.37" width="3.94" height="4.58"/>
				</defs>
				<clipPath id="SVGID_21_">
					<use xlink:href="#SVGID_20_"  style="overflow:visible;"/>
				</clipPath>
				<path class="st18" d="M183.17,158.11c0.3,1.23-0.45,2.47-1.68,2.77c-1.23,0.3-1.73-0.63-2.03-1.86
					c-0.3-1.23-0.29-2.29,0.94-2.59C181.63,156.13,182.87,156.88,183.17,158.11"/>
			</g>
		</g>
		<g class="st17">
			<g>
				<defs>
					<rect id="SVGID_22_" x="180.69" y="149.62" width="3.94" height="4.58"/>
				</defs>
				<clipPath id="SVGID_23_">
					<use xlink:href="#SVGID_22_"  style="overflow:visible;"/>
				</clipPath>
				<path class="st19" d="M184.56,151.37c0.3,1.23-0.45,2.47-1.68,2.77c-1.23,0.3-1.73-0.63-2.03-1.86
					c-0.3-1.23-0.29-2.29,0.94-2.59C183.02,149.39,184.26,150.14,184.56,151.37"/>
			</g>
		</g>
		<g class="st17">
			<g>
				<defs>
					<rect id="SVGID_24_" x="177.67" y="143.95" width="3.94" height="4.58"/>
				</defs>
				<clipPath id="SVGID_25_">
					<use xlink:href="#SVGID_24_"  style="overflow:visible;"/>
				</clipPath>
				<path class="st20" d="M181.55,145.7c0.3,1.23-0.45,2.47-1.68,2.77c-1.23,0.3-1.73-0.63-2.03-1.86c-0.3-1.23-0.29-2.29,0.94-2.59
					C180.01,143.71,181.25,144.47,181.55,145.7"/>
			</g>
		</g>
		<g class="st17">
			<g>
				<defs>
					<rect id="SVGID_26_" x="168.17" y="138.36" width="3.94" height="4.58"/>
				</defs>
				<clipPath id="SVGID_27_">
					<use xlink:href="#SVGID_26_"  style="overflow:visible;"/>
				</clipPath>
				<path class="st21" d="M172.05,140.1c0.3,1.23-0.45,2.47-1.68,2.77c-1.23,0.3-1.73-0.63-2.03-1.86c-0.3-1.23-0.29-2.29,0.94-2.59
					C170.5,138.12,171.75,138.87,172.05,140.1"/>
			</g>
		</g>
		<path class="st22" d="M124.08,216.46c-0.26,0-0.46-0.21-0.46-0.46V96.59c0-0.25,0.21-0.46,0.46-0.46c0.25,0,0.46,0.21,0.46,0.46
			V216C124.55,216.25,124.34,216.46,124.08,216.46"/>
	</g>
</g>
</svg>
