<svg id="Calque_1" data-name="Calque 1" xmlns="http://www.w3.org/2000/svg" viewBox="0 0 64 64"><defs><style>.cls-1{fill:#1d1d1b;}.cls-2,.cls-3{fill:#fff;}.cls-2,.cls-3,.cls-4,.cls-6{stroke:#1d1d1b;}.cls-2,.cls-3,.cls-4,.cls-5,.cls-6,.cls-7{stroke-linecap:round;stroke-miterlimit:10;}.cls-2{stroke-width:0.15px;}.cls-3,.cls-4{stroke-width:0.25px;}.cls-4,.cls-5,.cls-6,.cls-7{fill:none;}.cls-5{stroke:#fff;}.cls-5,.cls-6,.cls-7{stroke-width:0.5px;}.cls-7{stroke:#000;}</style></defs><path class="cls-1" d="M60.2,28.4V53.05a4.09,4.09,0,0,1-4.09,4.09H36.56c-2.26,0-4.88-2.4-4.88-4.66L28.85,28.4a4.09,4.09,0,0,1,4.09-4.09H56.11A4.09,4.09,0,0,1,60.2,28.4Z"/><path class="cls-1" d="M12.29,24.2V35.55H8.62a4.17,4.17,0,0,1-4.43-3.87V28.06A4.17,4.17,0,0,1,8.62,24.2Z"/><path class="cls-1" d="M40.84,28.06v3.62a4.18,4.18,0,0,1-4.44,3.87H20.91V24.2H36.4A4.18,4.18,0,0,1,40.84,28.06Z"/><path class="cls-2" d="M20.89,24.32a16.71,16.71,0,0,0-8.6,0V35.42a16.54,16.54,0,0,0,8.62,0V24.32Zm-2.43,6a1.8,1.8,0,0,1-1.79,1.79,1.78,1.78,0,0,1-1.77-1.79V29.17a1.79,1.79,0,0,1,1.77-1.8,1.81,1.81,0,0,1,1.79,1.8Z"/><path class="cls-3" d="M18.46,29.17v1.19a1.8,1.8,0,0,1-1.79,1.79,1.78,1.78,0,0,1-1.77-1.79V29.17a1.79,1.79,0,0,1,1.77-1.8A1.81,1.81,0,0,1,18.46,29.17Z"/><path class="cls-4" d="M12.29,24.3l0,0"/><path class="cls-5" d="M39.41,24.45s-7,8.75-2.3,13.22,8.35-4.6,8.35-4.6-3.76,9.19,12.7,13"/><path class="cls-5" d="M45.53,37.87s4.27,7.64.39,18.52"/><line class="cls-5" x1="47.12" y1="50.43" x2="31.44" y2="50.43"/><line class="cls-5" x1="46.78" y1="43.19" x2="30.6" y2="43.26"/><line class="cls-5" x1="35.48" y1="35.4" x2="29.93" y2="35.89"/><line class="cls-6" x1="13.22" y1="22.25" x2="11.14" y2="17.59"/><line class="cls-6" x1="20.82" y1="22.78" x2="23.13" y2="18.74"/><polygon points="26.76 15.59 25.62 16.38 25.62 17.77 24.52 16.93 23.2 17.36 23.66 16.05 22.85 14.93 24.23 14.96 25.04 13.84 25.44 15.17 26.76 15.59"/><polygon points="10.7 8.7 10.32 11.73 12.6 13.76 9.6 14.34 8.38 17.14 6.9 14.46 3.87 14.16 5.95 11.93 5.3 8.95 8.06 10.25 10.7 8.7"/><line class="cls-7" x1="16.92" y1="19.35" x2="17.26" y2="13.84"/><polygon points="19.8 13.02 17.87 11.65 15.65 12.46 16.35 10.2 14.89 8.34 17.26 8.31 18.58 6.35 19.33 8.59 21.61 9.24 19.71 10.65 19.8 13.02"/><circle class="cls-2" cx="15.92" cy="33.52" r="0.26"/><circle class="cls-2" cx="15.92" cy="34.25" r="0.26"/><circle class="cls-2" cx="16.66" cy="33.52" r="0.26"/><circle class="cls-2" cx="16.66" cy="34.25" r="0.26"/><circle class="cls-2" cx="17.37" cy="33.52" r="0.26"/><circle class="cls-2" cx="17.37" cy="34.25" r="0.26"/><circle class="cls-2" cx="15.95" cy="25.43" r="0.26"/><circle class="cls-2" cx="15.95" cy="26.16" r="0.26"/><circle class="cls-2" cx="16.69" cy="25.43" r="0.26"/><circle class="cls-2" cx="16.69" cy="26.16" r="0.26"/><circle class="cls-2" cx="17.4" cy="25.43" r="0.26"/><circle class="cls-2" cx="17.4" cy="26.16" r="0.26"/></svg>