<?xml version="1.0" encoding="utf-8"?>
<!-- Generator: Adobe Illustrator 25.0.0, SVG Export Plug-In . SVG Version: 6.00 Build 0)  -->
<svg version="1.1" id="Calque_1" xmlns="http://www.w3.org/2000/svg" xmlns:xlink="http://www.w3.org/1999/xlink" x="0px" y="0px"
	 viewBox="0 0 64 64" style="enable-background:new 0 0 64 64;" xml:space="preserve">
<style type="text/css">
	.st0{fill:#1D1D1B;}
	.st1{fill:none;stroke:#1D1D1B;stroke-width:3.5;stroke-linecap:round;stroke-miterlimit:10;}
	.st2{fill:#FFFFFF;stroke:#1D1D1B;stroke-width:0.3;stroke-linecap:round;stroke-miterlimit:10;}
	.st3{fill:none;stroke:#1D1D1B;stroke-width:0.75;stroke-linecap:round;stroke-miterlimit:10;}
	.st4{stroke:#000000;stroke-miterlimit:10;}
	.st5{fill:none;stroke:#1D1D1B;stroke-width:0.5;stroke-linecap:round;stroke-miterlimit:10;}
	.st6{fill:none;stroke:#1D1D1B;stroke-width:2;stroke-linecap:round;stroke-miterlimit:10;}
	.st7{fill:none;stroke:#FFFFFF;stroke-width:0.5;stroke-miterlimit:10;}
</style>
<circle class="st0" cx="12.9" cy="15.8" r="4.4"/>
<path class="st1" d="M6.1,31.2c5.3-1.8,8.3-5.1,8.7-7.2c0.2-1.3,1.4-2.2,2.7-2c0.2,0,0.4,0.1,0.6,0.2c3,1.4,8,6,9.5,11"/>
<path class="st2" d="M15.5,11c0,0.1-0.1-4.8,1.1-6.1s3.5-0.3,2.2,2S16.9,7.9,15.5,11z"/>
<polyline class="st3" points="29.2,42.6 23.7,46.8 32,45.9 28.8,55.8 40.7,49.2 46.7,59 49,51.4 61.4,57.2 56,47.5 "/>
<path class="st2" d="M18.1,11.7c0,0,1.7-3,3-3.4s2.3,1.1,0.6,2.1S20,10.3,18.1,11.7z"/>
<rect x="35.4" y="26.4" transform="matrix(0.1507 -0.9886 0.9886 0.1507 2.8352 73.4069)" class="st4" width="17.4" height="17.4"/>
<line class="st5" x1="44.7" y1="12.3" x2="42.9" y2="23.9"/>
<line class="st5" x1="47.4" y1="15.6" x2="46.1" y2="24.4"/>
<line class="st5" x1="50.6" y1="15.3" x2="49.2" y2="25"/>
<path class="st0" d="M17.5,21.6L14.7,23c-0.5,0.3-0.7,0.9-0.4,1.4c0,0,0.1,0.1,0.1,0.1c1.7,2.2,4.9,9.7,1.2,16.5l6.2-1.6
	c0,0,1.5-10.1-3-17.4C18.5,21.5,18,21.4,17.5,21.6z"/>
<path class="st1" d="M19.2,25c0,0,3.3,10.1-0.7,34.5"/>
<path class="st6" d="M15.4,25.8c1.6,3.9,2,8.1,1.3,12.2"/>
<line class="st7" x1="47.8" y1="28.9" x2="47.5" y2="30.9"/>
<polyline class="st7" points="46.5,31.6 49.9,29.1 38.5,27.4 36.8,38.7 46.5,31.6 "/>
<polygon class="st7" points="38.3,41 49.7,42.7 51.5,31.4 "/>
<line class="st7" x1="42.5" y1="28.2" x2="41.3" y2="35.3"/>
<line class="st7" x1="46.9" y1="34.7" x2="45.7" y2="42"/>
<line class="st7" x1="40.8" y1="39.1" x2="40.4" y2="41.3"/>
<line class="st1" x1="17.7" y1="36.7" x2="3.9" y2="56.2"/>
</svg>
