<svg id="Calque_1" data-name="Calque 1" xmlns="http://www.w3.org/2000/svg" viewBox="0 0 64 64"><defs><style>.cls-1{fill:#fff;stroke:#1d1d1b;}.cls-1,.cls-2{stroke-miterlimit:10;}.cls-2{fill:none;stroke:#000;stroke-linecap:round;}</style></defs><circle class="cls-1" cx="16.73" cy="23.73" r="13.17"/><circle class="cls-1" cx="47.51" cy="23.73" r="13.17"/><rect class="cls-1" x="11.62" y="46.31" width="10.24" height="10.24"/><rect class="cls-1" x="42.39" y="46.31" width="10.24" height="10.24"/><circle cx="11.34" cy="20.4" r="1.73"/><circle cx="21.45" cy="20.4" r="1.73"/><circle cx="42.46" cy="20.4" r="1.73"/><circle cx="52.57" cy="20.4" r="1.73"/><path class="cls-2" d="M10.41,30c0-2.63,2.83-4.76,6.32-4.76s6.33,2.13,6.33,4.76"/><path class="cls-2" d="M41.19,25.52c0,2.63,2.83,4.76,6.32,4.76s6.32-2.13,6.32-4.76"/><polygon points="19.23 52.6 17.38 54.68 12.6 50.42 14.45 48.34 17.14 50.74 22.68 44.51 24.76 46.36 19.22 52.59 19.23 52.6"/></svg>