<svg id="Calque_1" data-name="Calque 1" xmlns="http://www.w3.org/2000/svg" viewBox="0 0 32 32"><defs><style>.cls-1{stroke:#000;stroke-miterlimit:10;stroke-width:2px;}.cls-2{fill:#fff;}</style></defs><path class="cls-1" d="M15.65,5.75,5,24.26A1.42,1.42,0,0,0,6.2,26.39H27.57a1.42,1.42,0,0,0,1.23-2.13L18.11,5.75A1.43,1.43,0,0,0,15.65,5.75Z"/><rect class="cls-2" x="16.3" y="11.49" width="1.54" height="6.08"/><rect class="cls-2" x="16.32" y="18.38" width="1.54" height="1.75"/><rect class="cls-2" x="19.53" y="13.91" width="1.06" height="3.26" transform="translate(2.33 -2.62) rotate(7.92)"/><rect class="cls-2" x="19.22" y="17.36" width="1.06" height="0.94" transform="translate(2.65 -2.55) rotate(7.92)"/><rect class="cls-2" x="13.53" y="14.39" width="0.98" height="3.02" transform="translate(-2.31 2.38) rotate(-8.96)"/><rect class="cls-2" x="13.86" y="17.77" width="0.98" height="0.87" transform="translate(-2.66 2.46) rotate(-8.96)"/><path class="cls-2" d="M16,7.15,6.34,23.85a1,1,0,0,0,.9,1.56H26.53a1,1,0,0,0,.9-1.56L17.79,7.15A1,1,0,0,0,16,7.15Z"/><rect x="15.7" y="10.71" width="2.24" height="8.87" rx="0.72"/><rect x="15.72" y="20.76" width="2.24" height="2.55" rx="0.72"/></svg>