<svg id="Calque_1" data-name="Calque 1" xmlns="http://www.w3.org/2000/svg" viewBox="0 0 64 64"><defs><style>.cls-1,.cls-2,.cls-4{fill:#fff;}.cls-1,.cls-3,.cls-4{stroke:#000;stroke-miterlimit:10;}.cls-3{fill:none;stroke-linecap:round;}.cls-4{stroke-width:0.75px;}</style></defs><path class="cls-1" d="M46.28,34.72a14.32,14.32,0,0,1-8.42,13.05v2.9H26.07v-2.9a14.32,14.32,0,0,1,5.27-27.36H32a14.32,14.32,0,0,1,13.64,10A14,14,0,0,1,46.28,34.72Z"/><path d="M38.36,52v2.83a5.08,5.08,0,0,1-5.28,4.86H30.82a5.09,5.09,0,0,1-5.28-4.86V52Z"/><rect class="cls-2" x="26.07" y="51.34" width="11.8" height="0.67"/><line class="cls-3" x1="15.94" y1="25.65" x2="4.78" y2="19.08"/><line class="cls-3" x1="29.5" y1="16.95" x2="28.59" y2="7.53"/><line class="cls-3" x1="21.2" y1="19.34" x2="17.01" y2="12.94"/><line class="cls-3" x1="41.39" y1="11.53" x2="38.92" y2="16.89"/><line class="cls-3" x1="51.85" y1="12.42" x2="45.07" y2="19.71"/><line class="cls-3" x1="55.82" y1="24.07" x2="48.68" y2="27.24"/><path class="cls-4" d="M30.4,31.93A1.94,1.94,0,1,1,28.45,30,2,2,0,0,1,30.4,31.93Z"/><path class="cls-4" d="M30.4,31.93A1.94,1.94,0,1,1,28.45,30,2,2,0,0,1,30.4,31.93Z"/><path class="cls-4" d="M34.47,33.06V30.79H33.18a5.14,5.14,0,0,0-.53-1.33l1-1L32,26.89l-.94.94a4.68,4.68,0,0,0-1.39-.6v-1H27.42v1a4.13,4.13,0,0,0-1.39.55l-.84-.83L23.6,28.48l.78.79a5,5,0,0,0-.62,1.41h-1.1V33h1.05a5,5,0,0,0,.58,1.5l-.69.71,1.59,1.59.71-.69a4.61,4.61,0,0,0,1.41.58V38H29.6V36.64A4.91,4.91,0,0,0,31.21,36l.81.8,1.61-1.59-.9-.9a5.4,5.4,0,0,0,.45-1.2Zm-6,.81a1.95,1.95,0,1,1,1.95-1.94A1.93,1.93,0,0,1,28.45,33.87Z"/><circle cx="36.26" cy="39.57" r="3.68"/><circle class="cls-2" cx="36.26" cy="39.57" r="1.47"/><rect x="34.14" y="35.46" width="1.72" height="1.25" transform="translate(-10.61 14.95) rotate(-21.01)"/><rect x="36.82" y="42.66" width="1.72" height="1.25" transform="translate(-13.01 16.38) rotate(-21.01)"/><rect x="31.85" y="40.21" width="1.72" height="1.25" transform="translate(6.32 86.02) rotate(-111.01)"/><rect x="39.06" y="37.53" width="1.72" height="1.25" transform="translate(18.6 89.1) rotate(-111.01)"/><rect x="33.87" y="42.32" width="1.72" height="1.25" transform="translate(49 96.3) rotate(-156.01)"/><rect x="37.07" y="35.33" width="1.72" height="1.25" transform="translate(57.97 84.23) rotate(-156.01)"/><rect x="39" y="40.35" width="1.72" height="1.25" transform="translate(-13.78 60.73) rotate(-66.01)"/><rect x="31.95" y="37.3" width="1.72" height="1.25" transform="translate(-15.18 52.47) rotate(-66.01)"/></svg>