<svg id="Calque_1" data-name="Calque 1" xmlns="http://www.w3.org/2000/svg" viewBox="0 0 64 64"><defs><style>.cls-1{fill:#1d1d1b;}.cls-2,.cls-3,.cls-4{fill:none;stroke-linecap:round;stroke-miterlimit:10;}.cls-2,.cls-3{stroke:#1d1d1b;}.cls-2{stroke-width:0.5px;}.cls-3{stroke-width:2px;}.cls-4{stroke:#000;stroke-width:0.75px;}</style></defs><circle class="cls-1" cx="47.41" cy="20.46" r="2.87"/><path class="cls-2" d="M44.9,24.9l.55-.19"/><path class="cls-3" d="M53.84,28.68c.33-.31-6,2.49-8.39-4"/><circle class="cls-1" cx="13.75" cy="19" r="2.81"/><path class="cls-3" d="M9.3,32.62c0-3.84.62-9.24,4.45-9.24s4.46,5.25,4.46,9.09"/><rect class="cls-1" x="11.28" y="23.35" width="4.94" height="12.86" rx="1.32"/><line class="cls-3" x1="12.51" y1="34.44" x2="9.91" y2="50.02"/><line class="cls-3" x1="15.03" y1="34.52" x2="17.64" y2="50.1"/><circle class="cls-1" cx="25.84" cy="19" r="2.81"/><path class="cls-3" d="M21.38,32.62c0-3.84.62-9.24,4.46-9.24s4.46,5.25,4.46,9.09"/><rect class="cls-1" x="23.36" y="23.35" width="4.94" height="12.86" rx="1.32"/><line class="cls-3" x1="24.6" y1="34.44" x2="21.99" y2="50.02"/><line class="cls-3" x1="27.12" y1="34.52" x2="29.73" y2="50.1"/><path class="cls-1" d="M42.44,24.58l2.46.32,2.29,1.72s-2.72,3.22.83,9.81L43.24,37S39,39,42.44,24.58Z"/><path class="cls-3" d="M45.37,24.57c.48-.59-11.62-.85-7.78,3.36"/><polyline class="cls-4" points="41.92 21.57 41.92 10.11 56.08 18.15 56.08 49.44"/><line class="cls-3" x1="42.98" y1="35.06" x2="40.86" y2="43.08"/><line class="cls-3" x1="32.61" y1="40.24" x2="40.86" y2="43.08"/><line class="cls-3" x1="46.26" y1="35.32" x2="50.76" y2="40.07"/><line class="cls-3" x1="50.14" y1="50.1" x2="50.79" y2="40.32"/></svg>