<svg id="Calque_1" data-name="Calque 1" xmlns="http://www.w3.org/2000/svg" viewBox="0 0 32 32"><defs><style>.cls-1{fill:#1d1d1b;}.cls-2,.cls-3,.cls-4{fill:none;stroke:#1d1d1b;stroke-miterlimit:10;}.cls-2,.cls-4{stroke-linecap:round;}.cls-2{stroke-width:2px;}.cls-3{stroke-width:0.5px;}.cls-4{stroke-width:0.25px;}</style></defs><circle class="cls-1" cx="10.31" cy="11.12" r="2.33"/><polyline class="cls-2" points="16.52 8.86 12.36 14.71 4.45 14.9"/><path class="cls-1" d="M13.34,12.57,10,14.82s2.14,4.89,9.18,6L20.8,17S14.41,16.18,13.34,12.57Z"/><polyline class="cls-3" points="11.3 18.7 7.93 18.67 10.37 20.2 6.4 23.91 11.34 22.16 10.73 26.45 13.59 23.22 16.14 26.95 15.79 23.26 18.88 24.1 16.8 21.2"/><path class="cls-4" d="M2.73,16a1.61,1.61,0,0,1,.15-2.26"/><path class="cls-4" d="M1.4,16.37a2.18,2.18,0,0,1,.22-3.08"/><path class="cls-4" d="M17.12,6.23a1.6,1.6,0,0,1,1.82,1.34"/><path class="cls-4" d="M17.36,5.17A2.19,2.19,0,0,1,19.85,7"/><line class="cls-2" x1="17.96" y1="19.57" x2="30.48" y2="22.89"/><line class="cls-2" x1="19.18" y1="17.83" x2="22.87" y2="12.01"/><line class="cls-2" x1="28.15" y1="17.58" x2="22.87" y2="12.01"/></svg>