<svg id="Calque_1" data-name="Calque 1" xmlns="http://www.w3.org/2000/svg" viewBox="0 0 64 64"><defs><style>.cls-1{fill:#fff;}.cls-2,.cls-4,.cls-5{fill:none;stroke:#1d1d1b;stroke-miterlimit:10;}.cls-2,.cls-5{stroke-linecap:round;}.cls-2{stroke-width:0.5px;}.cls-3{fill:#1d1d1b;}.cls-4,.cls-5{stroke-width:0.25px;}</style></defs><rect class="cls-1" x="15.29" y="25" width="12.31" height="10.94"/><line class="cls-2" x1="9.28" y1="30.1" x2="7" y2="30.1"/><line class="cls-2" x1="9.28" y1="33.5" x2="1.1" y2="33.5"/><line class="cls-2" x1="9.28" y1="37.9" x2="3.6" y2="37.9"/><line class="cls-2" x1="9.28" y1="41.7" x2="6.44" y2="41.7"/><circle class="cls-3" cx="21.61" cy="45.03" r="4.67"/><circle class="cls-3" cx="46.62" cy="45.03" r="4.67"/><path class="cls-3" d="M58.93,31.87H57.84c-3,0-7.53-5.39-8.9-7.12a2.84,2.84,0,0,0-.37-.47l0,0,0,0h0A3.7,3.7,0,0,0,45.8,23h-30a3.71,3.71,0,0,0-3.72,3.71V42.05a3.71,3.71,0,0,0,3.72,3.71H16a5.64,5.64,0,1,1,11.13,0H41a5.63,5.63,0,1,1,11.14,0h6.79a2.37,2.37,0,0,0,2.37-2.37V34.23A2.37,2.37,0,0,0,58.93,31.87Zm-26.75.71H27.67V37.1h-3V32.58H20.2V29.63h4.52V25.11h3v4.52h4.51Zm15.57-.39h-7.3a1.08,1.08,0,0,1-1.18-.9V27.67c0-1.22,1.3-2.21,2.91-2.21a1.35,1.35,0,0,1,.9.32l5.57,4.92C49.31,31.29,48.76,32.19,47.75,32.19Zm8.15,3.74c-1.27,0-2.3-.57-2.3-1.28s1-1.29,2.3-1.29,2.31.58,2.31,1.29S57.18,35.93,55.9,35.93Z"/><rect class="cls-3" x="36.68" y="21.38" width="7.88" height="1.42"/><path class="cls-4" d="M44.35,20.61a3.73,3.73,0,1,0-7.45,0Z"/><line class="cls-5" x1="35.61" y1="18.31" x2="30.69" y2="15.54"/><line class="cls-5" x1="38.37" y1="16.12" x2="35.95" y2="12.06"/><line class="cls-5" x1="41.4" y1="15.52" x2="41.59" y2="12.88"/><line class="cls-5" x1="43.73" y1="16.48" x2="46.97" y2="13.1"/><line class="cls-5" x1="45.22" y1="19" x2="50.36" y2="16.93"/></svg>