<svg id="Calque_1" data-name="Calque 1" xmlns="http://www.w3.org/2000/svg" viewBox="0 0 32 32"><defs><style>.cls-1,.cls-2,.cls-3,.cls-4{stroke:#000;stroke-miterlimit:10;stroke-width:0.25px;}.cls-2{fill:#1d1d1b;}.cls-3{fill:#fff;}.cls-4{fill:none;}</style></defs><path class="cls-1" d="M11.44,25.66a10.72,10.72,0,0,1-6-9.66c0-.25,0-.5,0-.74l.06.13c.42.93.19-.39.19-.39a5.72,5.72,0,0,1,0-1.23c.05-.19.14-.25.29,0,.47.7-.08,2.45.51,2.72s3.33.74,3.33,1.24-1.2,1.63-.23,2.64,1.71,1.71,1.67,2.45A17.29,17.29,0,0,0,11.44,25.66Z"/><path class="cls-2" d="M26.49,18.83c-.09.32-.19.64-.31,1A2.46,2.46,0,0,1,26.49,18.83Z"/><path class="cls-1" d="M23.85,23.46a10.72,10.72,0,0,1-10.47,2.92c-.31-.88-.34-2.29,1.44-3.81,2.95-2.53.1-3.26-.8-3.61s-.79-.78-1.45-1a25.75,25.75,0,0,0-2.76-1.17c-.38,0-2.21-.5-1.82-1.36s1.86-.73,1.86-.73,2.37-1.28,2.57-1.91,1.43-.66,1.43-.66.66-3.22-1.4-3.26-.62,1.48-.62,1.48-3.22.23-1.43-1.52c1.41-1.38,1.7-2.3,1-2.45a10.81,10.81,0,0,1,3.71-1.06,2.68,2.68,0,0,1,0,2.47C14.36,9.52,16.41,10,16.41,10s-.77-1,0-1.59S19.4,6.73,20,6a10.69,10.69,0,0,1,2.83,1.61h0c-.78.58-2.17,1.59-2.17,2.06s1.9,1.16,2,.62v0c0-.07,0-.15,0-.24s0-.07,0-.1l0-.16s0-.06,0-.08l0-.13s0-.06,0-.09.06-.27.1-.4l0-.07a.43.43,0,0,1,0-.05.56.56,0,0,1,0-.12,1.21,1.21,0,0,1,0-.18s0,0,0,0h0a.49.49,0,0,0,0-.11l0,0,0-.05a.56.56,0,0,1,.09-.14h0l0,0h0a.07.07,0,0,1,.05,0c.24.32-.27,1,0,1.25a.91.91,0,0,1-.11,1.25c-.35.19-3.34.23-3.07.89s.89,1.2.62,1.2-1.94,0-1.51.47,1.24.89,1.59.54,1.2-1.43,1.51-1-.23.93.43,1-.16-1.32.15-1.39.43.73.7,1,1.61.8,1.91.62a3,3,0,0,1-2.8.66c-1.59-.51-3.65-.27-3.8,1.63s2.33,2.6,2.95,2.35,1,1.68.85,2.07-.58,2.64.49,2.76A3.21,3.21,0,0,0,23.85,23.46Z"/><path class="cls-3" d="M14.82,22.57c-1.78,1.52-1.75,2.93-1.44,3.81a10.73,10.73,0,0,1-1.94-.72,17.29,17.29,0,0,1-.19-2.86c0-.74-.7-1.44-1.67-2.45s.23-2.13.23-2.64-2.75-1-3.33-1.24,0-2-.51-2.72c-.15-.23-.24-.17-.29,0l0,0a10.74,10.74,0,0,1,5.74-7.38c.73.15.44,1.07-1,2.45-1.79,1.75,1.43,1.52,1.43,1.52s-1.43-1.52.62-1.48,1.4,3.26,1.4,3.26-1.24,0-1.43.66-2.57,1.91-2.57,1.91-1.47-.12-1.86.73,1.44,1.36,1.82,1.36A25.75,25.75,0,0,1,12.57,18c.66.23.54.66,1.45,1S17.77,20,14.82,22.57Z"/><path class="cls-2" d="M5.47,15.39l-.06-.13a10.77,10.77,0,0,1,.22-1.51l0,0a5.72,5.72,0,0,0,0,1.23S5.89,16.32,5.47,15.39Z"/><path class="cls-3" d="M20,6c-.56.76-2.92,1.92-3.55,2.39s0,1.59,0,1.59S14.36,9.52,15,7.78a2.68,2.68,0,0,0,0-2.47c.34,0,.69,0,1,0A10.59,10.59,0,0,1,20,6Z"/><path class="cls-3" d="M23.35,8.06l-.12.13h0l0,0h0a.56.56,0,0,0-.09.14.17.17,0,0,1,0,.05l0,0a.49.49,0,0,1,0,.11h0s0,0,0,0a1.21,1.21,0,0,0,0,.18.56.56,0,0,0,0,.12.43.43,0,0,0,0,.05l0,.07c0,.13-.07.27-.1.4s0,.06,0,.09l0,.13s0,0,0,.08l0,.16s0,.07,0,.1,0,.17,0,.24v0c-.08.54-2-.15-2-.62S22,8.16,22.78,7.58h0C23,7.73,23.17,7.89,23.35,8.06Z"/><path class="cls-3" d="M23.35,8.06l-.12.13a.07.07,0,0,1,.05,0c.24.32-.27,1,0,1.25a.91.91,0,0,1-.11,1.25c-.35.19-3.34.23-3.07.89s.89,1.2.62,1.2-1.94,0-1.51.47,1.24.89,1.59.54,1.2-1.43,1.51-1-.23.93.43,1-.16-1.32.15-1.39.43.73.7,1,1.61.8,1.91.62a3,3,0,0,1-2.8.66c-1.59-.51-3.65-.27-3.8,1.63s2.33,2.6,2.95,2.35,1,1.68.85,2.07-.58,2.64.49,2.76a3.21,3.21,0,0,0,.62,0,10.63,10.63,0,0,0,2.33-3.68,2.46,2.46,0,0,1,.31-1A11,11,0,0,0,26.87,16,10.69,10.69,0,0,0,23.35,8.06ZM25.54,14l0,0Z"/><path class="cls-4" d="M26.49,18.83c-.09.32-.19.64-.31,1a10.75,10.75,0,0,1-10,7A10.74,10.74,0,0,1,5.39,16c0-.25,0-.5,0-.74a10.74,10.74,0,0,1,9.67-9.95c.34,0,.69,0,1,0a10.76,10.76,0,0,1,6.66,2.32c.19.15.38.31.56.48A10.69,10.69,0,0,1,26.87,16,11,11,0,0,1,26.49,18.83Z"/><path class="cls-2" d="M25.57,14l0,0Z"/></svg>