<?xml version="1.0" encoding="utf-8"?>
<!-- Generator: Adobe Illustrator 25.0.0, SVG Export Plug-In . SVG Version: 6.00 Build 0)  -->
<svg version="1.1" id="Calque_1" xmlns="http://www.w3.org/2000/svg" xmlns:xlink="http://www.w3.org/1999/xlink" x="0px" y="0px"
	 viewBox="0 0 32 32" style="enable-background:new 0 0 32 32;" xml:space="preserve">
<path d="M3.2,19.5L3.2,19.5L3.2,19.5C3.2,19.5,3.2,19.5,3.2,19.5z"/>
<path d="M28.2,10.5L28.2,10.5l-0.1-0.2C28.2,10.4,28.2,10.5,28.2,10.5z"/>
<path d="M3.2,19.5L3.2,19.5l0,0.2l-0.1,0.1c0,0,0,0,0-0.1l0,0l0,0C3.1,19.6,3.2,19.6,3.2,19.5C3.2,19.5,3.2,19.5,3.2,19.5z"/>
<polygon points="28.2,10.5 28.2,10.5 28.2,10.5 "/>
<path d="M30.2,23.6c0-0.1-0.1-0.2-0.1-0.3L30.2,23.6l-7,1.5l-7,0.7C3.6,27.1,0.6,23.6,0.6,23.6c0-1.9,2-3.5,2.5-3.8c0,0,0,0,0,0
	l0.1-0.1l0-0.1v0c0,0,0,0,0,0c0,0,0,0,0,0c0.3-5.9,0.8-6.2,0.8-6.2l0.9-0.2v0.1l0-0.1l0,0c0.3-1.2,2.3-7.5,9.2-8.6h0
	c1-0.2,2-0.2,3-0.2c0.9,0,1.8,0.1,2.6,0.3L21,5h0.1c2.9,0.9,5.4,2.8,7,5.4l0.1,0.2h0l0,0l0.5,0.8l0,0.1c0.3,0.6,0.6,1.3,0.8,2l0,0
	c0.2,0.2,0.4,0.5,0.6,0.9C31.5,17.2,30.2,23.6,30.2,23.6z"/>
<path d="M3.2,19.6l0,0.1l-0.1,0.1c0,0,0,0,0,0l0-0.1l0,0L3.2,19.6L3.2,19.6z"/>
</svg>
