<svg id="Calque_1" data-name="Calque 1" xmlns="http://www.w3.org/2000/svg" viewBox="0 0 64 64"><defs><style>.cls-1{fill:#1d1d1b;}</style></defs><path class="cls-1" d="M56.37,13h0l-7.22,8.8-5.21-.29-1.27-5.68,6.71-8.52A9.21,9.21,0,0,0,37.48,9.33l-2.76,3.35a9.21,9.21,0,0,0,1.14,12.93l5.58,4.58a9.2,9.2,0,0,0,12.9-1.4l2.75-3.36A9.18,9.18,0,0,0,56.37,13Z"/><path class="cls-1" d="M42.49,25.72l-2.57-2.11a3.69,3.69,0,0,0-5.2.51L32,27.78,34.61,31s1.76-2,4.09.45.41,3.78.41,3.78l.19.19L43,30.91A3.68,3.68,0,0,0,42.49,25.72Z"/><path class="cls-1" d="M28.94,40.22c-1.67-1.49-.2-4.15-.2-4.15L27,33.66,11.76,52.09a3.69,3.69,0,0,0,.51,5.19l2.58,2.11A3.68,3.68,0,0,0,20,58.88L33.3,42.73l-1-1.29A4.31,4.31,0,0,1,28.94,40.22Z"/><path class="cls-1" d="M54.3,60a4.38,4.38,0,0,1-6.19-.28,3.27,3.27,0,0,1-.5-.75l-.06.06L32.66,39.88a2.18,2.18,0,0,1-3-.35,2.06,2.06,0,0,1-.53-1.43A2.18,2.18,0,0,1,30,36.38l4.83-4.15a2.27,2.27,0,0,1,3.16.25A2.39,2.39,0,0,1,38.47,34a2.18,2.18,0,0,1-.53,1.4L54.45,53.18l-.09.06a5.76,5.76,0,0,1,.62.59A4.4,4.4,0,0,1,54.3,60Z"/><polygon class="cls-1" points="29.74 35.23 31.6 33.63 33.88 31.68 14.17 9.86 14.26 6.21 7.75 1.76 4.8 4.28 7.93 11.34 11.6 11.9 29.74 35.23"/></svg>