<svg id="Calque_1" data-name="Calque 1" xmlns="http://www.w3.org/2000/svg" viewBox="0 0 377.04 376.55"><defs><style>.cls-1,.cls-10,.cls-13,.cls-2,.cls-3,.cls-4,.cls-6,.cls-7,.cls-8{fill:none;stroke-miterlimit:10;}.cls-1,.cls-2{stroke:#00983a;}.cls-1,.cls-13,.cls-2,.cls-3,.cls-4,.cls-6,.cls-7{stroke-linecap:round;}.cls-2{stroke-dasharray:5.85 5.85;}.cls-3,.cls-4{stroke:#009fe3;}.cls-4{stroke-dasharray:5.32 5.32;}.cls-5{fill:#9aa0a0;}.cls-6,.cls-7{stroke:#99999d;}.cls-10,.cls-6,.cls-7{stroke-width:2px;}.cls-7{stroke-dasharray:7.99 7.99;}.cls-10,.cls-13,.cls-8{stroke:#1d1d1b;}.cls-8{stroke-width:5px;}.cls-9{fill:#1d1d1b;}.cls-11{font-size:22px;fill:#36a9e1;}.cls-11,.cls-12{font-family:MyriadPro-Regular, Myriad Pro;}.cls-12{font-size:23px;fill:#00983a;}</style></defs><path class="cls-1" d="M408.5,622.41l2.47,1.7" transform="translate(-263.34 -496.96)"/><path class="cls-2" d="M415.87,627.32c23.6,14.9,49.05,23,75.59,23,34,0,66.21-13.33,95-37.17" transform="translate(-263.34 -496.96)"/><path class="cls-1" d="M588.73,611.3c.76-.65,1.52-1.3,2.27-2" transform="translate(-263.34 -496.96)"/><path class="cls-3" d="M345.21,648.3c1-.13,2-.23,3-.29" transform="translate(-263.34 -496.96)"/><path class="cls-4" d="M353.51,648a42.36,42.36,0,0,1,17.73,5.18" transform="translate(-263.34 -496.96)"/><path class="cls-3" d="M373.53,654.55c.84.54,1.67,1.1,2.47,1.7" transform="translate(-263.34 -496.96)"/><line class="cls-5" x1="82" y1="260.55" x2="82" y2="84.71"/><line class="cls-6" x1="82" y1="260.55" x2="82" y2="256.55"/><line class="cls-7" x1="82" y1="248.55" x2="82" y2="92.71"/><line class="cls-6" x1="82" y1="88.71" x2="82" y2="84.71"/><path class="cls-8" d="M560.09,759.31" transform="translate(-263.34 -496.96)"/><polyline class="cls-8" points="82 207.23 82 209.87 82.29 374.05 297.67 374.05 297.34 204.88"/><line class="cls-8" x1="82.5" y1="315.51" x2="108.19" y2="291.27"/><line class="cls-8" x1="107.96" y1="240.36" x2="108.28" y2="240.06"/><path class="cls-8" d="M599.5,748.45" transform="translate(-263.34 -496.96)"/><path class="cls-8" d="M634.94,749.77l.31-.33a.58.58,0,0,0-.35-1H608.84" transform="translate(-263.34 -496.96)"/><path class="cls-9" d="M496,498.5l1.64,5.25L502,518l6.58,21.13,8,25.68L525.39,593l8.84,28.39L542.51,648l7,22.37,5,16.16c.79,2.54,1.53,5.1,2.37,7.62,0,.11.07.22.11.34.47,1.53,2.89.87,2.41-.67l-1.64-5.26-4.43-14.23-6.58-21.13-8-25.67L530,599.28l-8.84-28.39-8.28-26.58-7-22.37-5-16.15c-.79-2.54-1.53-5.1-2.37-7.63,0-.11-.07-.22-.11-.33-.47-1.53-2.89-.88-2.41.67Z" transform="translate(-263.34 -496.96)"/><path class="cls-8" d="M560.17,750.52" transform="translate(-263.34 -496.96)"/><path class="cls-10" d="M578.86,557.34" transform="translate(-263.34 -496.96)"/><line class="cls-10" x1="83.33" y1="199.71" x2="233.17" y2="1.55"/><ellipse class="cls-8" cx="148.67" cy="207.43" rx="41.33" ry="15"/><path class="cls-8" d="M370.94,793.39a5.53,5.53,0,0,0-.19.78" transform="translate(-263.34 -496.96)"/><path class="cls-8" d="M370.75,794.17a6,6,0,0,0-.08.94c0,8.28,18.51,15,41.33,15s41.34-6.72,41.34-15a5.68,5.68,0,0,0-.32-1.86" transform="translate(-263.34 -496.96)"/><ellipse class="cls-8" cx="247.94" cy="206.43" rx="41.33" ry="15"/><path class="cls-8" d="M470.07,793.9a5.47,5.47,0,0,0-.13,1.21c0,8.28,18.51,15,41.33,15s41.34-6.72,41.34-15a5.68,5.68,0,0,0-.11-1.09" transform="translate(-263.34 -496.96)"/><ellipse class="cls-8" cx="304.33" cy="176.12" rx="41.33" ry="15"/><path class="cls-8" d="M550.88,774.7a101.27,101.27,0,0,0,16.5,1.31c22.57,0,42.44-7.07,41.37-15.5" transform="translate(-263.34 -496.96)"/><path class="cls-8" d="M516,670.16c-3.58-7-20.41-12.23-40.63-12.23-20,0-36.64,5.14-40.5,12" transform="translate(-263.34 -496.96)"/><path class="cls-8" d="M434.88,669.91a6.13,6.13,0,0,0-.84,3c0,8.29,18.51,15,41.34,15s41.33-6.71,41.33-15a6.05,6.05,0,0,0-.7-2.77" transform="translate(-263.34 -496.96)"/><path class="cls-8" d="M452.84,771.85a98.89,98.89,0,0,0,17.58,2" transform="translate(-263.34 -496.96)"/><line class="cls-8" x1="345.37" y1="173.97" x2="345.46" y2="264.17"/><line class="cls-8" x1="289.27" y1="207.71" x2="289.27" y2="298.15"/><line class="cls-8" x1="206.6" y1="208.38" x2="206.6" y2="298.15"/><line class="cls-8" x1="190" y1="297.32" x2="190" y2="298.15"/><line class="cls-8" x1="190" y1="209.38" x2="190" y2="297.32"/><line class="cls-8" x1="107.33" y1="208.88" x2="107.33" y2="298.15"/><line class="cls-8" x1="155.92" y1="167.59" x2="155.92" y2="190.55"/><line class="cls-10" x1="233.82" y1="1.2" x2="157.5" y2="158.71"/><line class="cls-10" x1="370.17" y1="159.88" x2="234.05" y2="1.16"/><path class="cls-8" d="M561.78,871.7,636,800.09c.11-.12.21-13.73.21-13.9l-.29-121.41" transform="translate(-263.34 -496.96)"/><polyline class="cls-8" points="82 316.05 298.29 316.05 371.15 252.15"/><path class="cls-8" d="M418.5,702.09" transform="translate(-263.34 -496.96)"/><path class="cls-9" d="M609.82,702.84h26l-1.77-4.27-7.48,6.49-17.85,15.47L587,739.35l-18.68,16.2-6.22,5.39c-1,.83-2.05,1.62-2.93,2.54l-.13.11,1.77-.73H354.54c-2.77,0-5.6-.19-8.36,0h-.36l1.76,4.27L367.76,747l2.82-2.83c2.28-2.28-1.25-5.81-3.53-3.53l-20.18,20.18-2.82,2.82a2.53,2.53,0,0,0,1.77,4.27H557.76a14.93,14.93,0,0,0,3.72-.09,7,7,0,0,0,2.27-1.66l3.44-3,12.11-10.5,33.47-29,23.58-20.45,1.23-1.06c1.68-1.46.3-4.27-1.76-4.27h-26c-3.22,0-3.23,5,0,5Z" transform="translate(-263.34 -496.96)"/><line class="cls-8" x1="170.71" y1="175.97" x2="170.67" y2="194.38"/><line class="cls-8" x1="253.37" y1="175.97" x2="253.37" y2="191.38"/><line class="cls-8" x1="263" y1="176.12" x2="263" y2="191.38"/><text class="cls-11" transform="translate(0 155.55)">60° max</text><text class="cls-12" transform="translate(179.33 139.38)">120° max</text><ellipse class="cls-13" cx="297.42" cy="200.57" rx="4.13" ry="4.56"/><ellipse class="cls-13" cx="372.42" cy="163.32" rx="4.13" ry="4.56"/><ellipse class="cls-13" cx="82.17" cy="203.82" rx="4.13" ry="4.56"/><ellipse class="cls-13" cx="155.92" cy="163.23" rx="4.13" ry="4.56"/></svg>