<svg id="Calque_1" data-name="Calque 1" xmlns="http://www.w3.org/2000/svg" viewBox="0 0 588.34 1232.65"><defs><style>.cls-1,.cls-2,.cls-3,.cls-5,.cls-6{fill:none;}.cls-1,.cls-2,.cls-3,.cls-4,.cls-5{stroke:#1d1d1b;}.cls-1,.cls-2,.cls-3,.cls-4,.cls-5,.cls-6{stroke-miterlimit:10;}.cls-1{stroke-width:6px;}.cls-2,.cls-4{stroke-width:5px;}.cls-3{stroke-width:4px;}.cls-4{fill:#1d1d1b;}.cls-5{stroke-width:2px;}.cls-6{stroke:#000;stroke-width:3px;}</style></defs><polyline class="cls-1" points="571.32 1040.13 297.42 1126.78 14.61 1027.99"/><path class="cls-1" d="M372.05,797.89" transform="translate(-145.3 42.62)"/><path class="cls-1" d="M360.21,935,161.44,865.54a.54.54,0,0,1,0-1l66.16-20.93" transform="translate(-145.3 42.62)"/><path class="cls-1" d="M666.1,857.61l50,17.23a.81.81,0,0,1,0,1.53L441.3,963.29,360.21,935" transform="translate(-145.3 42.62)"/><polyline class="cls-1" points="573.09 1109.71 299.52 1196.66 14.59 1097.5"/><line class="cls-1" x1="521.42" y1="1022.24" x2="574.39" y2="1040.68"/><path class="cls-1" d="M666.73,979.63" transform="translate(-145.3 42.62)"/><line class="cls-1" x1="369.69" y1="969.43" x2="385.51" y2="974.94"/><path class="cls-1" d="M515,926.82" transform="translate(-145.3 42.62)"/><line class="cls-1" x1="214.04" y1="967.08" x2="228.78" y2="962.39"/><path class="cls-1" d="M344.05,929.32" transform="translate(-145.3 42.62)"/><line class="cls-1" x1="18.29" y1="1029.3" x2="81.62" y2="1009.17"/><line class="cls-2" x1="562.23" y1="945.96" x2="562.23" y2="1043.94"/><path class="cls-2" d="M707.53,903.35" transform="translate(-145.3 42.62)"/><polyline class="cls-2" points="573.17 1042.02 573.17 845.61 562.23 845.61 562.23 914.43 562.23 922.87"/><polyline class="cls-2" points="310.45 1003.51 310.45 932.49 299.19 932.45 299.19 1128.75 299.19 1198.66"/><line class="cls-2" x1="310.45" y1="1121.94" x2="310.45" y2="1026.5"/><polyline class="cls-2" points="14.61 1030.79 14.61 833.63 24.97 833.63 25.02 905.42"/><line class="cls-2" x1="25.02" y1="1030.71" x2="25.02" y2="934.58"/><path class="cls-2" d="M662.94,808.51a8.28,8.28,0,0,1,2.46,5.54c0,11.32-29.78,20.49-66.52,20.49a196.64,196.64,0,0,1-30.49-2.27" transform="translate(-145.3 42.62)"/><path class="cls-2" d="M598.88,793.56" transform="translate(-145.3 42.62)"/><path class="cls-2" d="M532.36,814.05" transform="translate(-145.3 42.62)"/><path class="cls-2" d="M665.4,987.57c0,11.31-29.78,20.49-66.52,20.49s-66.52-9.18-66.52-20.49a6.43,6.43,0,0,1,.12-1.24" transform="translate(-145.3 42.62)"/><path class="cls-2" d="M296.14,791.5l2,0" transform="translate(-145.3 42.62)"/><path class="cls-2" d="M359.34,816.06c-6.14,9.36-33,16.41-65.2,16.41-36.74,0-66.52-9.17-66.52-20.49s29.78-20.49,66.52-20.49h2" transform="translate(-145.3 42.62)"/><path class="cls-2" d="M360.57,987.7a6.56,6.56,0,0,1,.09,1.08c0,11.32-29.78,20.49-66.52,20.49s-66.52-9.17-66.52-20.49a6.5,6.5,0,0,1,.15-1.39" transform="translate(-145.3 42.62)"/><ellipse class="cls-2" cx="294.19" cy="906" rx="66.52" ry="20.49"/><path class="cls-2" d="M444.49,1055.19c-1.65,0-3.32.06-5,.06-36.74,0-66.52-9.17-66.52-20.49a6.26,6.26,0,0,1,.18-1.49" transform="translate(-145.3 42.62)"/><path class="cls-2" d="M505.57,1032.4a6.71,6.71,0,0,1,.44,2.36c0,9.59-21.4,17.64-50.3,19.87" transform="translate(-145.3 42.62)"/><line class="cls-2" x1="520.09" y1="1028.74" x2="520.09" y2="1030.18"/><line class="cls-2" x1="520.09" y1="960.6" x2="520.09" y2="1028.74"/><line class="cls-2" x1="520.09" y1="856.67" x2="520.09" y2="935.45"/><line class="cls-2" x1="387.06" y1="1003.12" x2="387.06" y2="1030.18"/><path class="cls-2" d="M532.36,962.66" transform="translate(-145.3 42.62)"/><path class="cls-2" d="M532.36,934.69" transform="translate(-145.3 42.62)"/><line class="cls-2" x1="387.06" y1="883.42" x2="387.06" y2="977.31"/><line class="cls-2" x1="360.7" y1="1010.72" x2="360.7" y2="1077.37"/><line class="cls-2" x1="360.7" y1="906" x2="360.7" y2="985.57"/><line class="cls-2" x1="227.67" y1="1075.9" x2="227.67" y2="1077.37"/><line class="cls-2" x1="227.67" y1="1005.37" x2="227.67" y2="1075.9"/><line class="cls-2" x1="227.67" y1="906" x2="227.67" y2="982.19"/><path class="cls-2" d="M375.66,807" transform="translate(-145.3 42.62)"/><line class="cls-2" x1="215.35" y1="978.76" x2="215.35" y2="854.6"/><line class="cls-2" x1="215.35" y1="1031.4" x2="215.35" y2="1000.02"/><line class="cls-2" x1="82.31" y1="1030.25" x2="82.31" y2="1031.4"/><line class="cls-2" x1="82.31" y1="1029.97" x2="82.31" y2="1030.25"/><line class="cls-2" x1="82.31" y1="1029.44" x2="82.31" y2="1029.97"/><line class="cls-2" x1="82.32" y1="954.41" x2="82.31" y2="1029.44"/><path class="cls-2" d="M227.52,915.47" transform="translate(-145.3 42.62)"/><path class="cls-2" d="M227.62,888.71" transform="translate(-145.3 42.62)"/><line class="cls-2" x1="82.31" y1="854.6" x2="82.31" y2="931.32"/><line class="cls-2" x1="237.02" y1="864.25" x2="237.02" y2="895.94"/><line class="cls-2" x1="370.06" y1="877.17" x2="370.06" y2="980.9"/><path class="cls-2" d="M718.39,1067.09l.09-69.58Z" transform="translate(-145.3 42.62)"/><path class="cls-2" d="M159.89,1054.88l.09-70Z" transform="translate(-145.3 42.62)"/><polyline class="cls-2" points="14.55 930.24 299.69 1029.84 572.74 942.87"/><line class="cls-2" x1="528.11" y1="1154.57" x2="501.19" y2="1145.16"/><line class="cls-2" x1="421.19" y1="1188.1" x2="394.28" y2="1178.7"/><polygon class="cls-2" points="501.19 1133.85 528.11 1126.24 528.11 1154.57 501.19 1163.08 501.19 1133.85"/><polygon class="cls-2" points="395.15 1167.69 422.06 1160.08 422.06 1188.41 395.15 1196.92 395.15 1167.69"/><line class="cls-2" x1="499.43" y1="1164" x2="453.14" y2="1147.83"/><line class="cls-2" x1="534.91" y1="844.58" x2="508" y2="835.18"/><polygon class="cls-2" points="508 823.87 534.91 816.25 534.91 844.58 508 853.09 508 823.87"/><line class="cls-2" x1="506.24" y1="854.01" x2="456.32" y2="835.18"/><line class="cls-2" x1="393.56" y1="1198.03" x2="349.07" y2="1179.95"/><line class="cls-2" x1="520.09" y1="924.47" x2="535.17" y2="930.24"/><path class="cls-3" d="M718.76,1084.11l4.11,1.44a.06.06,0,0,1,0,.11l-15.41,4.88-14.57-5.09a0,0,0,0,1,0,0l5-1.78" transform="translate(-145.3 42.62)"/><line class="cls-3" x1="561.92" y1="1143.19" x2="562.15" y2="1133.15"/><polyline class="cls-3" points="577.61 1128.23 584.73 1135.89 561.8 1143.19 561.79 1143.19 540.23 1135.62 547.52 1128.04"/><path class="cls-3" d="M458.21,1171.48l4.37,1.53c.05,0,.05.09,0,.11L447.16,1178l-14.6-5.1s0,0,0,0l4.07-1.38" transform="translate(-145.3 42.62)"/><path class="cls-3" d="M458.21,1171.48" transform="translate(-145.3 42.62)"/><path class="cls-3" d="M436.63,1171.49" transform="translate(-145.3 42.62)"/><line class="cls-3" x1="301.63" y1="1230.65" x2="301.86" y2="1220.61"/><line class="cls-3" x1="287.23" y1="1215.5" x2="279.94" y2="1223.07"/><path class="cls-3" d="M462.62,1173.07l7.13,7.65v0L446.81,1188h0l-21.53-7.56s0,0,0,0l.05,0" transform="translate(-145.3 42.62)"/><line class="cls-3" x1="230.42" y1="861.95" x2="214.91" y2="866.86"/><line class="cls-3" x1="82.31" y1="908.81" x2="48.57" y2="919.48"/><polyline class="cls-3" points="552.61 1126.23 552.61 1126.84 562.76 1130.47 562.78 1113.07"/><line class="cls-3" x1="552.69" y1="1115.81" x2="552.61" y2="1126.23"/><polyline class="cls-3" points="573.46 1127.08 562.78 1130.47 562.78 1113.07"/><line class="cls-3" x1="573.57" y1="1109.38" x2="573.46" y2="1127.08"/><polygon class="cls-3" points="291.84 1192.85 291.69 1213.57 301.85 1217.2 301.86 1196.39 291.84 1192.85"/><polygon class="cls-3" points="301.86 1217.2 301.86 1196.48 312.68 1192.99 312.55 1213.81 301.86 1217.2"/><path class="cls-3" d="M179.54,1076l5.87,2a.06.06,0,0,1,0,.11L170,1083l-14.6-5.1s0,0,0,0l5.85-2" transform="translate(-145.3 42.62)"/><line class="cls-3" x1="24.45" y1="1135.66" x2="24.68" y2="1125.62"/><line class="cls-3" x1="10.05" y1="1120.51" x2="2.76" y2="1128.09"/><path class="cls-3" d="M185.44,1078.09l7.13,7.64v0l-22.94,7.3h0l-21.54-7.57s0,0,0,0h.06" transform="translate(-145.3 42.62)"/><polygon class="cls-3" points="14.67 1097.86 14.52 1118.59 24.68 1122.22 24.69 1101.4 14.67 1097.86"/><polyline class="cls-3" points="35.45 1106.17 35.37 1118.82 24.69 1122.22 24.69 1101.5"/><polyline class="cls-1" points="570.54 729.19 296.64 815.84 13.83 717.05"/><path class="cls-1" d="M371.27,487" transform="translate(-145.3 42.62)"/><path class="cls-1" d="M359.43,624,160.66,554.6a.54.54,0,0,1,0-1l66.16-20.93" transform="translate(-145.3 42.62)"/><path class="cls-1" d="M665.32,546.67l50,17.24a.8.8,0,0,1,0,1.52L440.52,652.36,359.43,624" transform="translate(-145.3 42.62)"/><line class="cls-1" x1="202.97" y1="532.1" x2="235.44" y2="521.83"/><polyline class="cls-1" points="572.31 798.77 298.74 885.73 13.81 786.56"/><line class="cls-1" x1="520.64" y1="711.31" x2="573.61" y2="729.74"/><path class="cls-1" d="M666,668.69" transform="translate(-145.3 42.62)"/><line class="cls-1" x1="368.91" y1="658.5" x2="384.73" y2="664"/><path class="cls-1" d="M514.21,615.88" transform="translate(-145.3 42.62)"/><line class="cls-1" x1="213.26" y1="656.14" x2="228" y2="651.46"/><path class="cls-1" d="M343.27,618.39" transform="translate(-145.3 42.62)"/><line class="cls-1" x1="17.51" y1="718.36" x2="80.84" y2="698.23"/><polyline class="cls-2" points="304.67 470.41 304.67 429.93 293.4 429.93 293.4 470.41"/><line class="cls-2" x1="561.45" y1="635.03" x2="561.45" y2="733.01"/><path class="cls-2" d="M706.75,592.41" transform="translate(-145.3 42.62)"/><polyline class="cls-2" points="572.39 731.08 572.39 534.67 561.45 534.67 561.45 603.49 561.45 611.94"/><polyline class="cls-2" points="309.67 692.58 309.67 621.56 298.41 621.51 298.41 817.81 298.41 887.73"/><line class="cls-2" x1="309.67" y1="811" x2="309.67" y2="715.57"/><polyline class="cls-2" points="13.83 719.85 13.83 522.69 24.19 522.69 24.23 594.48"/><line class="cls-2" x1="24.23" y1="719.78" x2="24.23" y2="623.65"/><ellipse class="cls-2" cx="452.79" cy="545.73" rx="66.52" ry="20.49"/><path class="cls-2" d="M664.62,676.63c0,11.32-29.78,20.49-66.52,20.49s-66.52-9.17-66.52-20.49a6.41,6.41,0,0,1,.12-1.23" transform="translate(-145.3 42.62)"/><ellipse class="cls-2" cx="302.76" cy="490.9" rx="66.52" ry="20.49"/><ellipse class="cls-2" cx="148.05" cy="543.66" rx="66.52" ry="20.49"/><path class="cls-2" d="M359.78,676.76a5.67,5.67,0,0,1,.1,1.09c0,11.31-29.79,20.49-66.52,20.49s-66.52-9.18-66.52-20.49a6.59,6.59,0,0,1,.15-1.4" transform="translate(-145.3 42.62)"/><ellipse class="cls-2" cx="293.4" cy="595.07" rx="66.52" ry="20.49"/><path class="cls-2" d="M443.71,744.26c-1.65,0-3.32,0-5,0-36.74,0-66.52-9.17-66.52-20.49a6.81,6.81,0,0,1,.17-1.49" transform="translate(-145.3 42.62)"/><path class="cls-2" d="M504.79,721.47a6.65,6.65,0,0,1,.44,2.35c0,9.6-21.4,17.65-50.3,19.88" transform="translate(-145.3 42.62)"/><line class="cls-2" x1="519.31" y1="717.81" x2="519.31" y2="719.25"/><line class="cls-2" x1="519.31" y1="649.67" x2="519.31" y2="717.81"/><line class="cls-2" x1="519.31" y1="545.73" x2="519.31" y2="624.52"/><line class="cls-2" x1="386.28" y1="692.18" x2="386.28" y2="719.25"/><path class="cls-2" d="M531.58,651.73" transform="translate(-145.3 42.62)"/><path class="cls-2" d="M531.58,623.76" transform="translate(-145.3 42.62)"/><line class="cls-2" x1="386.28" y1="545.73" x2="386.28" y2="666.37"/><line class="cls-2" x1="359.92" y1="699.79" x2="359.92" y2="766.44"/><line class="cls-2" x1="359.92" y1="595.07" x2="359.92" y2="674.63"/><line class="cls-2" x1="226.89" y1="764.97" x2="226.89" y2="766.44"/><line class="cls-2" x1="226.89" y1="694.44" x2="226.89" y2="764.97"/><line class="cls-2" x1="226.89" y1="595.07" x2="226.89" y2="671.25"/><path class="cls-2" d="M374.88,496.05" transform="translate(-145.3 42.62)"/><line class="cls-2" x1="214.57" y1="667.83" x2="214.57" y2="543.66"/><line class="cls-2" x1="214.57" y1="720.46" x2="214.57" y2="689.09"/><line class="cls-2" x1="81.53" y1="719.32" x2="81.53" y2="720.46"/><line class="cls-2" x1="81.53" y1="719.04" x2="81.53" y2="719.32"/><line class="cls-2" x1="81.53" y1="718.51" x2="81.53" y2="719.04"/><line class="cls-2" x1="81.54" y1="643.47" x2="81.53" y2="718.51"/><path class="cls-2" d="M226.74,604.54" transform="translate(-145.3 42.62)"/><path class="cls-2" d="M226.84,577.77" transform="translate(-145.3 42.62)"/><line class="cls-2" x1="81.53" y1="543.66" x2="81.53" y2="620.39"/><line class="cls-2" x1="236.24" y1="489.9" x2="236.24" y2="585.01"/><line class="cls-2" x1="369.28" y1="488.9" x2="369.28" y2="669.96"/><path class="cls-2" d="M717.61,756.16l.09-69.58Z" transform="translate(-145.3 42.62)"/><path class="cls-2" d="M159.11,744l.09-70Z" transform="translate(-145.3 42.62)"/><line class="cls-4" x1="369.11" y1="536.61" x2="386.11" y2="542.03"/><polyline class="cls-2" points="13.77 619.31 298.9 718.91 571.96 631.93"/><line class="cls-2" x1="420.41" y1="877.17" x2="393.5" y2="867.77"/><polygon class="cls-2" points="394.37 856.76 421.28 849.14 421.28 877.47 394.37 885.99 394.37 856.76"/><path class="cls-2" d="M599.69,795" transform="translate(-145.3 42.62)"/><path class="cls-2" d="M644,810.45" transform="translate(-145.3 42.62)"/><line class="cls-2" x1="392.77" y1="887.09" x2="348.29" y2="869.02"/><line class="cls-2" x1="519.31" y1="613.54" x2="534.39" y2="619.31"/><line class="cls-2" x1="384.73" y1="566.53" x2="369.28" y2="561.13"/><path class="cls-3" d="M718,777.18l4.11,1.43a.06.06,0,0,1,0,.11l-15.42,4.88-14.56-5.09a0,0,0,0,1,0,0l5-1.79" transform="translate(-145.3 42.62)"/><line class="cls-3" x1="561.14" y1="836.26" x2="561.37" y2="826.22"/><polyline class="cls-3" points="576.83 821.29 583.95 828.96 561.02 836.26 561.01 836.26 539.45 828.68 546.74 821.11"/><path class="cls-3" d="M457.52,866.15l4.37,1.52a.06.06,0,0,1,0,.11l-15.42,4.88-14.6-5.1s0,0,0,0l4.07-1.38" transform="translate(-145.3 42.62)"/><path class="cls-3" d="M457.52,866.15" transform="translate(-145.3 42.62)"/><path class="cls-3" d="M435.94,866.16" transform="translate(-145.3 42.62)"/><line class="cls-3" x1="300.94" y1="925.32" x2="301.17" y2="915.27"/><line class="cls-3" x1="286.54" y1="910.16" x2="279.25" y2="917.74"/><path class="cls-3" d="M461.93,867.74l7.13,7.64v0l-22.94,7.3h0l-21.53-7.57s0,0,0,0l.05,0" transform="translate(-145.3 42.62)"/><line class="cls-3" x1="236.24" y1="548.93" x2="214.13" y2="555.93"/><line class="cls-3" x1="81.53" y1="597.87" x2="47.79" y2="608.55"/><polyline class="cls-3" points="551.83 819.3 551.83 819.91 561.98 823.54 562 806.13"/><line class="cls-3" x1="551.93" y1="806.13" x2="551.83" y2="819.3"/><polyline class="cls-3" points="572.68 820.15 562 823.54 562 802.05"/><line class="cls-3" x1="572.79" y1="798.77" x2="572.68" y2="820.15"/><polygon class="cls-3" points="291.19 883.1 291 908.24 301.16 911.87 301.18 884.95 291.19 883.1"/><polygon class="cls-3" points="301.18 911.87 301.18 884.95 312.04 881.5 311.86 908.48 301.18 911.87"/><path class="cls-3" d="M178.76,765l5.86,2a.06.06,0,0,1,0,.11l-15.41,4.88-14.6-5.1s0,0,0,0l5.85-2" transform="translate(-145.3 42.62)"/><line class="cls-3" x1="23.67" y1="824.73" x2="23.9" y2="814.69"/><line class="cls-3" x1="9.27" y1="809.58" x2="1.98" y2="817.15"/><path class="cls-3" d="M184.66,767.15l7.13,7.65h0l-22.94,7.3h0l-21.54-7.56s0,0,0,0l.05,0" transform="translate(-145.3 42.62)"/><polygon class="cls-3" points="13.89 786.93 13.74 807.65 23.89 811.28 23.91 790.47 13.89 786.93"/><polyline class="cls-3" points="34.67 795.23 34.59 807.89 23.91 811.28 23.91 790.56"/><polyline class="cls-5" points="19.03 516.65 302.76 2.14 566.92 526.03"/><polyline class="cls-5" points="304.04 612.88 302.76 2.14 299.04 421.42"/><path class="cls-6" d="M438.17,385.89c0-3.92,2.76-7.09,6.17-7.09s6.17,3.17,6.17,7.09" transform="translate(-145.3 42.62)"/><path class="cls-6" d="M158.94,788.52c0-3.92,2.76-7.09,6.17-7.09s6.17,3.17,6.17,7.09" transform="translate(-145.3 42.62)"/><path class="cls-6" d="M706.84,801.44c0-3.92,2.76-7.09,6.17-7.09s6.17,3.17,6.17,7.09" transform="translate(-145.3 42.62)"/><path class="cls-6" d="M444,888.29c0-3.92,2.76-7.09,6.17-7.09s6.17,3.17,6.17,7.09" transform="translate(-145.3 42.62)"/><path class="cls-6" d="M158.16,477.58c0-3.91,2.76-7.08,6.17-7.08s6.17,3.17,6.17,7.08" transform="translate(-145.3 42.62)"/><path class="cls-6" d="M706.05,490.5c0-3.91,2.77-7.08,6.18-7.08s6.17,3.17,6.17,7.08" transform="translate(-145.3 42.62)"/><path class="cls-6" d="M443.17,577.35c0-3.91,2.77-7.08,6.18-7.08s6.17,3.17,6.17,7.08" transform="translate(-145.3 42.62)"/></svg>