<svg id="Calque_1" data-name="Calque 1" xmlns="http://www.w3.org/2000/svg" viewBox="0 0 411.66 253.41"><defs><style>.cls-1,.cls-2,.cls-3,.cls-4{fill:none;stroke:#1d1d1b;stroke-miterlimit:10;}.cls-1{stroke-width:5px;}.cls-2{stroke-width:3px;}.cls-3{stroke-width:4px;}.cls-4{stroke-width:0.5px;}</style></defs><circle class="cls-1" cx="357.11" cy="222.29" r="26.79"/><circle class="cls-1" cx="56.76" cy="224.12" r="26.79"/><line class="cls-2" x1="323.1" y1="210.12" x2="333.33" y2="210.12"/><line class="cls-1" x1="89.3" y1="210.12" x2="323.1" y2="210.12"/><line class="cls-2" x1="80.21" y1="210.12" x2="89.3" y2="210.12"/><polyline class="cls-1" points="390.59 210.29 409.07 210.29 407.24 156.77 365.71 125.34 316.13 62.91 260.73 62.45 260.73 208.05"/><line class="cls-2" x1="381.2" y1="210.29" x2="390.59" y2="210.29"/><polygon class="cls-1" points="272.46 74.36 272.46 124.72 344.5 124.72 308.18 75.28 272.46 74.36"/><line class="cls-1" x1="32.24" y1="195.07" x2="2.5" y2="195.07"/><line class="cls-1" x1="262.86" y1="195.07" x2="80.21" y2="195.07"/><polyline class="cls-1" points="23.62 209.72 2.5 209.72 2.5 193.71"/><line class="cls-2" x1="35.16" y1="209.73" x2="23.62" y2="209.73"/><polyline class="cls-1" points="259.36 150.12 2.5 150.12 2.5 193.71"/><polygon class="cls-1" points="242.36 65.35 251.49 65.35 251.49 147.3 242.03 147.3 242.36 65.35"/><rect class="cls-1" x="123.69" y="109.83" width="98.71" height="39.42"/><line class="cls-3" x1="123.69" y1="125.54" x2="222.4" y2="125.54"/><line class="cls-3" x1="222.91" y1="81.53" x2="222.91" y2="109.83"/><line class="cls-3" x1="123.15" y1="81.53" x2="123.15" y2="109.83"/><ellipse class="cls-4" cx="123.15" cy="81.02" rx="1.79" ry="2.15"/><ellipse class="cls-4" cx="222.91" cy="81.02" rx="1.64" ry="2.15"/><ellipse class="cls-4" cx="122.38" cy="2.4" rx="1.79" ry="2.15"/><ellipse class="cls-4" cx="222.7" cy="2.71" rx="1.75" ry="2.15"/><rect class="cls-1" x="122.88" y="30.7" width="99.31" height="39.42"/><line class="cls-3" x1="122.88" y1="46.4" x2="222.2" y2="46.4"/><line class="cls-3" x1="222.7" y1="2.71" x2="222.7" y2="31"/><line class="cls-3" x1="122.38" y1="2.46" x2="122.38" y2="30.75"/><polyline class="cls-1" points="23.05 209.95 35.75 189.41 77.5 189.47 90.48 210.12"/><polyline class="cls-1" points="323.4 209.95 336.1 189.41 377.85 189.47 390.83 210.12"/></svg>