<svg id="Calque_1" data-name="Calque 1" xmlns="http://www.w3.org/2000/svg" viewBox="0 0 246.62 173.63"><defs><style>.cls-1,.cls-2,.cls-3{fill:none;}.cls-1,.cls-2,.cls-3,.cls-4{stroke:#1d1d1b;stroke-miterlimit:10;}.cls-1{stroke-width:5px;}.cls-2{stroke-width:4px;}.cls-3{stroke-width:0.5px;}.cls-4{fill:#1d1d1b;}</style></defs><rect class="cls-1" x="2.51" y="104.79" width="90.66" height="39.42"/><rect class="cls-2" x="10.43" y="78.74" width="32.33" height="40.99"/><rect class="cls-2" x="51.4" y="78.74" width="32.33" height="40.99"/><line class="cls-2" x1="2.51" y1="120.49" x2="93.17" y2="120.49"/><line class="cls-2" x1="93.68" y1="76.49" x2="93.68" y2="104.79"/><line class="cls-2" x1="2.01" y1="76.49" x2="2.01" y2="104.79"/><ellipse class="cls-3" cx="2.01" cy="75.98" rx="1.64" ry="2.15"/><ellipse class="cls-3" cx="93.68" cy="75.98" rx="1.64" ry="2.15"/><rect class="cls-1" x="2.5" y="31.21" width="90.66" height="39.42"/><rect class="cls-2" x="10.42" y="5.17" width="32.33" height="40.99"/><rect class="cls-2" x="51.4" y="5.17" width="32.33" height="40.99"/><line class="cls-2" x1="2.5" y1="46.92" x2="93.16" y2="46.92"/><line class="cls-2" x1="93.67" y1="2.92" x2="93.67" y2="31.21"/><line class="cls-2" x1="2" y1="2.92" x2="2" y2="31.21"/><ellipse class="cls-3" cx="2" cy="2.4" rx="1.64" ry="2.15"/><ellipse class="cls-3" cx="93.67" cy="2.4" rx="1.64" ry="2.15"/><circle class="cls-1" cx="131.22" cy="156.3" r="14.83"/><circle class="cls-1" cx="224.45" cy="159.59" r="11.54"/><line class="cls-1" x1="146.05" y1="156.3" x2="212.91" y2="156.3"/><polyline class="cls-1" points="235.99 156.3 244.12 156.3 244.12 126.18 235.99 104.36 226.24 104.36 226.24 44.25"/><path class="cls-1" d="M403.77,639.38c28.89-69.94,28.49-68,35.31-84.66,6-14.57,15.3-15.17,18.07-15,.79,0,1.57.09,2.35.09h46.16" transform="translate(-275.42 -497.91)"/><path class="cls-1" d="M392.42,663.61h-3.1V542.16H402v97.22S391.85,643,391.81,650.7A110.66,110.66,0,0,0,392.42,663.61Z" transform="translate(-275.42 -497.91)"/><path class="cls-1" d="M492.37,548.92h-32.1S453,550,447.88,563s-23.09,59.69-23.09,59.69H444.5l1.69-19.81,46.18-1.22Z" transform="translate(-275.42 -497.91)"/><line class="cls-1" x1="105.2" y1="96.13" x2="105.2" y2="155.07"/><polygon class="cls-4" points="36.31 154.13 100.13 150 100.13 154.13 36.31 154.13"/></svg>