<svg id="Calque_1" data-name="Calque 1" xmlns="http://www.w3.org/2000/svg" viewBox="0 0 411.66 193.48"><defs><style>.cls-1,.cls-2,.cls-3,.cls-4{fill:none;stroke:#1d1d1b;stroke-miterlimit:10;}.cls-1{stroke-width:5px;}.cls-2{stroke-width:2px;}.cls-3{stroke-width:4px;}.cls-4{stroke-width:0.5px;}</style></defs><circle class="cls-1" cx="357.11" cy="162.35" r="26.79"/><circle class="cls-1" cx="56.76" cy="164.18" r="26.79"/><line class="cls-2" x1="80.04" y1="150.17" x2="91.03" y2="150.17"/><line class="cls-2" x1="381.2" y1="151.35" x2="390.49" y2="151.35"/><polygon class="cls-1" points="272.46 14.43 272.46 64.79 344.5 64.79 308.18 15.34 272.46 14.43"/><line class="cls-1" x1="33.05" y1="135.14" x2="2.5" y2="135.14"/><path class="cls-1" d="M248.41,634" transform="translate(-215.35 -498.9)"/><line class="cls-1" x1="262.86" y1="135.14" x2="81.2" y2="135.14"/><line class="cls-2" x1="323.06" y1="151.18" x2="333.33" y2="151.18"/><polyline class="cls-1" points="2.5 133.77 2.5 149.79 23.62 149.79 36.56 130.64 78.31 130.7 91.2 150.18 323.06 150.18 335.76 129.64 377.51 129.7 390.49 150.35 409.07 150.35 407.24 96.84 365.71 65.4 316.13 2.98 260.73 2.52 260.73 148.12"/><line class="cls-2" x1="35.28" y1="149.7" x2="23.74" y2="149.7"/><polyline class="cls-1" points="259.36 90.18 2.5 90.18 2.5 133.77"/><polygon class="cls-1" points="242.36 5.41 251.49 5.41 251.49 87.37 242.03 87.37 242.36 5.41"/><rect class="cls-1" x="123.94" y="49.89" width="103.17" height="39.42"/><line class="cls-3" x1="123.94" y1="65.6" x2="227.11" y2="65.6"/><line class="cls-3" x1="227.6" y1="21.6" x2="227.6" y2="49.89"/><line class="cls-3" x1="123.43" y1="21.6" x2="123.43" y2="49.89"/><ellipse class="cls-4" cx="123.43" cy="21.09" rx="1.87" ry="2.15"/><ellipse class="cls-4" cx="227.6" cy="21.09" rx="1.87" ry="2.15"/></svg>