<svg id="Calque_1" data-name="Calque 1" xmlns="http://www.w3.org/2000/svg" viewBox="0 0 299.5 376.55"><defs><style>.cls-1,.cls-3,.cls-4{fill:none;stroke:#1d1d1b;stroke-miterlimit:10;}.cls-1{stroke-width:5px;}.cls-2{fill:#1d1d1b;}.cls-3{stroke-width:2px;}.cls-4{stroke-linecap:round;}</style></defs><path class="cls-1" d="M920.82,759.31" transform="translate(-701.61 -496.96)"/><polyline class="cls-1" points="4.46 207.23 4.46 209.87 4.75 374.05 220.13 374.05 219.79 204.88"/><line class="cls-1" x1="4.96" y1="315.51" x2="30.64" y2="291.27"/><line class="cls-1" x1="30.42" y1="240.36" x2="30.74" y2="240.06"/><path class="cls-1" d="M960.23,748.45" transform="translate(-701.61 -496.96)"/><path class="cls-1" d="M995.66,749.77l.32-.33a.58.58,0,0,0-.35-1H969.57" transform="translate(-701.61 -496.96)"/><path class="cls-2" d="M856.68,498.5l1.64,5.25L862.75,518l6.58,21.13,8,25.68L886.12,593,895,621.41,903.24,648l7,22.37,5,16.16c.79,2.54,1.53,5.1,2.37,7.62,0,.11.07.22.11.34.47,1.53,2.89.87,2.41-.67l-1.64-5.26-4.43-14.23-6.58-21.13-8-25.67-8.79-28.23-8.84-28.39-8.28-26.58-7-22.37-5-16.15c-.79-2.54-1.53-5.1-2.37-7.63,0-.11-.07-.22-.11-.33-.47-1.53-2.89-.88-2.41.67Z" transform="translate(-701.61 -496.96)"/><path class="cls-1" d="M920.9,750.52" transform="translate(-701.61 -496.96)"/><path class="cls-3" d="M939.59,557.34" transform="translate(-701.61 -496.96)"/><line class="cls-3" x1="5.79" y1="199.71" x2="155.63" y2="1.55"/><ellipse class="cls-1" cx="71.13" cy="207.43" rx="41.33" ry="15"/><path class="cls-1" d="M731.67,793.39a5.53,5.53,0,0,0-.19.78" transform="translate(-701.61 -496.96)"/><path class="cls-1" d="M731.48,794.17a6,6,0,0,0-.08.94c0,8.28,18.5,15,41.33,15s41.34-6.72,41.34-15a5.68,5.68,0,0,0-.32-1.86" transform="translate(-701.61 -496.96)"/><line class="cls-1" x1="112.46" y1="297.32" x2="112.46" y2="298.15"/><line class="cls-1" x1="112.46" y1="209.38" x2="112.46" y2="297.32"/><line class="cls-1" x1="29.79" y1="208.88" x2="29.79" y2="298.15"/><line class="cls-1" x1="183.86" y1="207.81" x2="184.18" y2="207.51"/><ellipse class="cls-1" cx="224.57" cy="174.88" rx="41.33" ry="15"/><path class="cls-1" d="M884.92,761.63a5.84,5.84,0,0,0-.08.93c0,8.29,18.51,15,41.33,15s41.34-6.71,41.34-15a5.68,5.68,0,0,0-.32-1.86" transform="translate(-701.61 -496.96)"/><line class="cls-1" x1="265.9" y1="176.83" x2="265.9" y2="264.77"/><line class="cls-1" x1="183.23" y1="176.33" x2="183.23" y2="265.6"/><line class="cls-1" x1="78.38" y1="167.59" x2="78.38" y2="190.55"/><line class="cls-3" x1="156.28" y1="1.2" x2="79.96" y2="158.71"/><line class="cls-3" x1="292.63" y1="159.88" x2="156.51" y2="1.16"/><path class="cls-1" d="M922.51,871.7l74.22-71.61c.11-.12.21-13.73.21-13.9l-.29-121.41" transform="translate(-701.61 -496.96)"/><polyline class="cls-1" points="4.46 316.05 220.75 316.05 293.6 252.15"/><path class="cls-1" d="M779.23,702.09" transform="translate(-701.61 -496.96)"/><path class="cls-2" d="M970.55,702.84h26l-1.77-4.27-7.48,6.49-17.86,15.47-21.7,18.82-18.68,16.2-6.23,5.39c-1,.83-2,1.62-2.92,2.54l-.13.11,1.77-.73H715.27c-2.77,0-5.61-.19-8.36,0h-.36l1.76,4.27L728.49,747l2.82-2.83c2.28-2.28-1.25-5.81-3.53-3.53L707.6,760.77l-2.82,2.82a2.53,2.53,0,0,0,1.77,4.27H918.49a14.94,14.94,0,0,0,3.72-.09,7,7,0,0,0,2.27-1.66l3.43-3L940,752.64l33.47-29,23.58-20.45,1.23-1.06c1.68-1.46.3-4.27-1.76-4.27h-26c-3.22,0-3.23,5,0,5Z" transform="translate(-701.61 -496.96)"/><ellipse class="cls-4" cx="219.88" cy="200.57" rx="4.13" ry="4.56"/><ellipse class="cls-4" cx="294.88" cy="163.32" rx="4.13" ry="4.56"/><ellipse class="cls-4" cx="4.63" cy="203.82" rx="4.13" ry="4.56"/><ellipse class="cls-4" cx="78.38" cy="163.23" rx="4.13" ry="4.56"/><line class="cls-1" x1="183.23" y1="203.38" x2="112.46" y2="203.38"/><line class="cls-1" x1="183.23" y1="251.49" x2="112.46" y2="251.49"/></svg>