<svg id="Calque_1" data-name="Calque 1" xmlns="http://www.w3.org/2000/svg" viewBox="0 0 411.66 193.48"><defs><style>.cls-1,.cls-2,.cls-3,.cls-4{fill:none;stroke:#1d1d1b;stroke-miterlimit:10;}.cls-1{stroke-width:5px;}.cls-2{stroke-width:3px;}.cls-3{stroke-width:4px;}.cls-4{stroke-width:0.5px;}</style></defs><circle class="cls-1" cx="357.11" cy="162.35" r="26.79"/><circle class="cls-1" cx="56.76" cy="164.18" r="26.79"/><line class="cls-2" x1="323.1" y1="150.18" x2="333.33" y2="150.18"/><line class="cls-1" x1="89.3" y1="150.18" x2="323.1" y2="150.18"/><line class="cls-2" x1="80.21" y1="150.18" x2="89.3" y2="150.18"/><polyline class="cls-1" points="390.59 150.35 409.07 150.35 407.24 96.84 365.71 65.4 316.13 2.98 260.73 2.52 260.73 148.12"/><line class="cls-2" x1="381.2" y1="150.35" x2="390.59" y2="150.35"/><polygon class="cls-1" points="272.46 14.43 272.46 64.79 344.5 64.79 308.18 15.34 272.46 14.43"/><line class="cls-1" x1="32.24" y1="135.14" x2="2.5" y2="135.14"/><line class="cls-1" x1="262.86" y1="135.14" x2="80.79" y2="135.14"/><polyline class="cls-1" points="23.62 149.79 2.5 149.79 2.5 133.77"/><line class="cls-2" x1="35.16" y1="149.79" x2="23.62" y2="149.79"/><polyline class="cls-1" points="259.36 90.18 2.5 90.18 2.5 133.77"/><polygon class="cls-1" points="242.36 5.41 251.49 5.41 251.49 87.37 242.03 87.37 242.36 5.41"/><rect class="cls-1" x="132.69" y="49.89" width="98.71" height="39.42"/><line class="cls-3" x1="132.69" y1="65.6" x2="231.4" y2="65.6"/><line class="cls-3" x1="231.91" y1="21.6" x2="231.91" y2="49.89"/><line class="cls-3" x1="132.15" y1="21.6" x2="132.15" y2="49.89"/><ellipse class="cls-4" cx="132.15" cy="21.09" rx="1.79" ry="2.15"/><ellipse class="cls-4" cx="231.91" cy="21.09" rx="1.64" ry="2.15"/><rect class="cls-1" x="10.4" y="49.89" width="105" height="39.42"/><line class="cls-3" x1="10.4" y1="65.6" x2="115.39" y2="65.6"/><line class="cls-3" x1="115.89" y1="21.51" x2="115.89" y2="49.8"/><line class="cls-3" x1="9.9" y1="21.6" x2="9.9" y2="49.89"/><ellipse class="cls-4" cx="9.9" cy="21.09" rx="1.9" ry="2.15"/><ellipse class="cls-4" cx="115.89" cy="20.99" rx="1.9" ry="2.15"/><line class="cls-1" x1="80.79" y1="134.77" x2="90.48" y2="150.18"/><polyline class="cls-1" points="32.24 135.14 35.75 129.47 77.5 129.53 80.79 134.77"/><line class="cls-1" x1="23.05" y1="150.02" x2="32.24" y2="135.14"/><polyline class="cls-1" points="323.4 150.02 336.1 129.47 377.85 129.53 390.83 150.18"/></svg>