<svg id="Calque_1" data-name="Calque 1" xmlns="http://www.w3.org/2000/svg" viewBox="0 0 587.56 501.8"><defs><style>.cls-1,.cls-2,.cls-4,.cls-5{fill:none;}.cls-1,.cls-2,.cls-3,.cls-4{stroke:#1d1d1b;}.cls-1,.cls-2,.cls-3,.cls-4,.cls-5{stroke-miterlimit:10;}.cls-1{stroke-width:6px;}.cls-2,.cls-3{stroke-width:5px;}.cls-3{fill:#1d1d1b;}.cls-4{stroke-width:4px;}.cls-5{stroke:#000;stroke-width:3px;}</style></defs><polyline class="cls-1" points="570.54 309.27 296.64 395.92 13.83 297.14"/><path class="cls-1" d="M165.43,510.2" transform="translate(60.53 -400.55)"/><path class="cls-1" d="M153.59,647.28-45.17,577.85a.54.54,0,0,1,0-1L21,555.89" transform="translate(60.53 -400.55)"/><path class="cls-1" d="M459.48,569.92l50,17.23a.81.81,0,0,1,0,1.53L234.69,675.6l-81.1-28.32" transform="translate(60.53 -400.55)"/><line class="cls-1" x1="202.97" y1="112.18" x2="235.44" y2="101.91"/><polyline class="cls-1" points="572.31 378.86 298.74 465.81 13.81 366.64"/><line class="cls-1" x1="520.64" y1="291.39" x2="573.61" y2="309.83"/><path class="cls-1" d="M460.11,691.93" transform="translate(60.53 -400.55)"/><line class="cls-1" x1="368.91" y1="238.58" x2="384.73" y2="244.09"/><path class="cls-1" d="M308.38,639.13" transform="translate(60.53 -400.55)"/><line class="cls-1" x1="213.26" y1="236.23" x2="228" y2="231.54"/><path class="cls-1" d="M137.44,641.63" transform="translate(60.53 -400.55)"/><line class="cls-1" x1="17.51" y1="298.45" x2="80.84" y2="278.32"/><polyline class="cls-2" points="304.67 50.5 304.67 10.02 293.4 10.02 293.4 50.5"/><line class="cls-2" x1="561.45" y1="215.11" x2="561.45" y2="313.09"/><path class="cls-2" d="M500.92,615.66" transform="translate(60.53 -400.55)"/><polyline class="cls-2" points="572.39 311.17 572.39 114.76 561.45 114.76 561.45 183.58 561.45 192.02"/><polyline class="cls-2" points="309.67 272.66 309.67 201.64 298.41 201.6 298.41 397.9 298.41 467.81"/><line class="cls-2" x1="309.67" y1="391.09" x2="309.67" y2="295.65"/><polyline class="cls-2" points="13.83 299.94 13.83 102.77 24.19 102.77 24.23 174.57"/><line class="cls-2" x1="24.23" y1="299.86" x2="24.23" y2="203.73"/><ellipse class="cls-2" cx="452.79" cy="125.82" rx="66.52" ry="20.49"/><path class="cls-2" d="M458.78,699.88c0,11.31-29.78,20.49-66.52,20.49s-66.52-9.18-66.52-20.49a6.43,6.43,0,0,1,.12-1.24" transform="translate(60.53 -400.55)"/><ellipse class="cls-2" cx="302.76" cy="70.99" rx="66.52" ry="20.49"/><ellipse class="cls-2" cx="148.05" cy="123.75" rx="66.52" ry="20.49"/><path class="cls-2" d="M154,700a6.56,6.56,0,0,1,.09,1.08c0,11.32-29.78,20.49-66.52,20.49S21,712.41,21,701.09a6.5,6.5,0,0,1,.15-1.39" transform="translate(60.53 -400.55)"/><ellipse class="cls-2" cx="293.4" cy="175.15" rx="66.52" ry="20.49"/><path class="cls-2" d="M237.88,767.5c-1.66,0-3.32.06-5,.06-36.73,0-66.52-9.18-66.52-20.49a6.26,6.26,0,0,1,.18-1.49" transform="translate(60.53 -400.55)"/><path class="cls-2" d="M299,744.71a6.93,6.93,0,0,1,.43,2.36c0,9.59-21.4,17.64-50.3,19.87" transform="translate(60.53 -400.55)"/><line class="cls-2" x1="519.31" y1="297.89" x2="519.31" y2="299.33"/><line class="cls-2" x1="519.31" y1="229.75" x2="519.31" y2="297.89"/><line class="cls-2" x1="519.31" y1="125.82" x2="519.31" y2="204.6"/><line class="cls-2" x1="386.28" y1="272.27" x2="386.28" y2="299.33"/><path class="cls-2" d="M325.74,675" transform="translate(60.53 -400.55)"/><path class="cls-2" d="M325.74,647" transform="translate(60.53 -400.55)"/><line class="cls-2" x1="386.28" y1="125.82" x2="386.28" y2="246.46"/><line class="cls-2" x1="359.92" y1="279.87" x2="359.92" y2="346.52"/><line class="cls-2" x1="359.92" y1="175.15" x2="359.92" y2="254.72"/><line class="cls-2" x1="226.89" y1="345.05" x2="226.89" y2="346.52"/><line class="cls-2" x1="226.89" y1="274.52" x2="226.89" y2="345.05"/><line class="cls-2" x1="226.89" y1="175.15" x2="226.89" y2="251.34"/><path class="cls-2" d="M169,519.29" transform="translate(60.53 -400.55)"/><line class="cls-2" x1="214.57" y1="247.91" x2="214.57" y2="123.75"/><line class="cls-2" x1="214.57" y1="300.55" x2="214.57" y2="269.17"/><line class="cls-2" x1="81.53" y1="299.4" x2="81.53" y2="300.55"/><line class="cls-2" x1="81.53" y1="299.12" x2="81.53" y2="299.4"/><line class="cls-2" x1="81.53" y1="298.59" x2="81.53" y2="299.12"/><line class="cls-2" x1="81.54" y1="223.56" x2="81.53" y2="298.59"/><path class="cls-2" d="M20.9,627.78" transform="translate(60.53 -400.55)"/><path class="cls-2" d="M21,601" transform="translate(60.53 -400.55)"/><line class="cls-2" x1="81.53" y1="123.75" x2="81.53" y2="200.47"/><line class="cls-2" x1="236.24" y1="69.99" x2="236.24" y2="165.09"/><line class="cls-2" x1="369.28" y1="68.99" x2="369.28" y2="250.05"/><path class="cls-2" d="M511.78,779.4l.08-69.58Z" transform="translate(60.53 -400.55)"/><path class="cls-2" d="M-46.72,767.19l.08-70Z" transform="translate(60.53 -400.55)"/><line class="cls-3" x1="369.11" y1="116.7" x2="386.11" y2="122.11"/><polyline class="cls-2" points="13.77 199.39 298.9 298.99 571.96 212.01"/><line class="cls-2" x1="527.33" y1="423.71" x2="500.41" y2="414.31"/><line class="cls-2" x1="420.41" y1="457.25" x2="393.5" y2="447.85"/><polygon class="cls-2" points="500.41 403 527.33 395.39 527.33 423.71 500.41 432.23 500.41 403"/><polygon class="cls-2" points="394.37 436.84 421.28 429.23 421.28 457.55 394.37 466.07 394.37 436.84"/><line class="cls-2" x1="498.65" y1="433.15" x2="452.36" y2="416.98"/><line class="cls-2" x1="392.77" y1="467.17" x2="348.29" y2="449.1"/><line class="cls-2" x1="519.31" y1="193.62" x2="534.39" y2="199.39"/><line class="cls-2" x1="384.73" y1="146.61" x2="369.28" y2="141.21"/><path class="cls-4" d="M512.15,796.42l4.11,1.44a.06.06,0,0,1,0,.11l-15.42,4.87-14.57-5.08a0,0,0,0,1,0,0l5-1.78" transform="translate(60.53 -400.55)"/><line class="cls-4" x1="561.14" y1="412.34" x2="561.37" y2="402.3"/><polyline class="cls-4" points="576.83 397.38 583.95 405.04 561.02 412.34 561.01 412.34 539.45 404.76 546.74 397.19"/><path class="cls-4" d="M251.59,883.79l4.37,1.52s0,.1,0,.11l-15.42,4.88L226,885.2s0,0,0,0L230,883.8" transform="translate(60.53 -400.55)"/><path class="cls-4" d="M251.59,883.79" transform="translate(60.53 -400.55)"/><path class="cls-4" d="M230,883.8" transform="translate(60.53 -400.55)"/><line class="cls-4" x1="300.85" y1="499.8" x2="301.07" y2="489.76"/><line class="cls-4" x1="286.45" y1="484.65" x2="279.16" y2="492.22"/><path class="cls-4" d="M256,885.38l7.13,7.65h0l-22.94,7.3h0l-21.54-7.56s0,0,0,0l0,0" transform="translate(60.53 -400.55)"/><line class="cls-4" x1="236.24" y1="129.01" x2="214.13" y2="136.01"/><line class="cls-4" x1="81.53" y1="177.96" x2="47.79" y2="188.63"/><polyline class="cls-4" points="551.83 395.38 551.83 395.99 561.98 399.62 562 382.21"/><line class="cls-4" x1="551.91" y1="384.96" x2="551.83" y2="395.38"/><polyline class="cls-4" points="572.68 396.23 562 399.62 562 382.21"/><line class="cls-4" x1="572.79" y1="378.53" x2="572.68" y2="396.23"/><polygon class="cls-4" points="291.06 462 290.91 482.72 301.07 486.35 301.08 465.54 291.06 462"/><polygon class="cls-4" points="301.08 486.35 301.08 465.63 311.9 462.14 311.76 482.96 301.08 486.35"/><path class="cls-4" d="M-27.08,788.28l5.87,2.05a.06.06,0,0,1,0,.11l-15.42,4.88-14.6-5.1a0,0,0,0,1,0,0l5.85-2" transform="translate(60.53 -400.55)"/><line class="cls-4" x1="23.67" y1="404.81" x2="23.9" y2="394.77"/><line class="cls-4" x1="9.27" y1="389.66" x2="1.98" y2="397.24"/><path class="cls-4" d="M-21.17,790.4-14,798v0L-37,805.36h0l-21.54-7.57v0h.06" transform="translate(60.53 -400.55)"/><polygon class="cls-4" points="13.89 367.01 13.74 387.73 23.89 391.37 23.91 370.55 13.89 367.01"/><polyline class="cls-4" points="34.67 375.32 34.59 387.97 23.91 391.37 23.91 370.64"/><path class="cls-5" d="M-47.68,500.83c0-3.92,2.77-7.09,6.18-7.09s6.17,3.17,6.17,7.09" transform="translate(60.53 -400.55)"/><path class="cls-5" d="M232.33,409.13c0-3.91,2.77-7.08,6.17-7.08s6.18,3.17,6.18,7.08" transform="translate(60.53 -400.55)"/><path class="cls-5" d="M500.22,513.75c0-3.92,2.76-7.09,6.17-7.09s6.17,3.17,6.17,7.09" transform="translate(60.53 -400.55)"/><path class="cls-5" d="M237.34,600.6c0-3.92,2.76-7.09,6.17-7.09s6.17,3.17,6.17,7.09" transform="translate(60.53 -400.55)"/></svg>