<svg id="Calque_1" data-name="Calque 1" xmlns="http://www.w3.org/2000/svg" viewBox="0 0 1368.62 813.68"><defs><style>.cls-1,.cls-10,.cls-11,.cls-3,.cls-5,.cls-6,.cls-9{fill:none;}.cls-1{stroke:#e30613;}.cls-1,.cls-10,.cls-11,.cls-2,.cls-3,.cls-4,.cls-5,.cls-6,.cls-7,.cls-9{stroke-miterlimit:10;}.cls-1,.cls-11,.cls-6,.cls-7{stroke-width:5px;}.cls-2{fill:#be1622;}.cls-2,.cls-3,.cls-4,.cls-5,.cls-6,.cls-7{stroke:#1d1d1b;}.cls-2,.cls-3,.cls-4{stroke-width:4px;}.cls-4,.cls-8{fill:#e30613;}.cls-5,.cls-9{stroke-width:6px;}.cls-7{fill:#1d1d1b;}.cls-10,.cls-11,.cls-9{stroke:#000;}.cls-10{stroke-width:3px;}</style></defs><polygon class="cls-1" points="384.63 625.98 416.55 615.88 251.89 601.93 281.97 658.45 310.13 649.54 515.38 721.24 589.42 697.51 384.63 625.98"/><line class="cls-2" x1="741.87" y1="519.08" x2="783.69" y2="533.69"/><line class="cls-3" x1="719.2" y1="511.16" x2="720.54" y2="511.63"/><path class="cls-4" d="M269.85,772.35l-41.49-14.49-.17-.08-16-9.95a3.33,3.33,0,0,1,2.44-6.08l35.79,7.52.1,0,18.52,6.47" transform="translate(450.13 -244.61)"/><line class="cls-3" x1="779.57" y1="548.56" x2="742.36" y2="535.56"/><path class="cls-3" d="M269.85,779.75l-41.49-14.49a.91.91,0,0,1-.17-.09l-16-9.94a3.19,3.19,0,0,1-1.58-2.87" transform="translate(450.13 -244.61)"/><line class="cls-3" x1="778.31" y1="555.52" x2="742.36" y2="542.96"/><path class="cls-3" d="M486.15,842.25" transform="translate(450.13 -244.61)"/><path class="cls-3" d="M493.2,840" transform="translate(450.13 -244.61)"/><path class="cls-3" d="M238.2,862.47,93.31,810.36l-.17-.08-16-9.95a3.18,3.18,0,0,1-1.58-2.65" transform="translate(450.13 -244.61)"/><line class="cls-3" x1="719.2" y1="628.97" x2="688.33" y2="617.86"/><line class="cls-3" x1="753.48" y1="641.78" x2="741.87" y2="637.6"/><path class="cls-4" d="M269.72,863.89,95.63,803.08l0,0L76.91,791.42a2.77,2.77,0,0,1,2-5.07l38.9,8.18h0l152,53.09" transform="translate(450.13 -244.61)"/><line class="cls-3" x1="660.77" y1="501.8" x2="660.77" y2="509.33"/><line class="cls-3" x1="525.72" y1="545.55" x2="525.72" y2="553.07"/><polyline class="cls-5" points="570.54 309.27 296.64 395.92 13.83 297.14"/><path class="cls-5" d="M-224.17,354.26" transform="translate(450.13 -244.61)"/><path class="cls-5" d="M-236,491.34l-198.77-69.43a.54.54,0,0,1,0-1L-368.6,400" transform="translate(450.13 -244.61)"/><path class="cls-5" d="M69.88,414l50,17.23a.81.81,0,0,1,0,1.53l-274.77,86.92L-236,491.34" transform="translate(450.13 -244.61)"/><line class="cls-5" x1="202.97" y1="112.18" x2="235.44" y2="101.91"/><polyline class="cls-5" points="572.31 378.86 298.74 465.81 13.81 366.64"/><line class="cls-5" x1="520.64" y1="291.39" x2="573.61" y2="309.83"/><path class="cls-5" d="M70.51,536" transform="translate(450.13 -244.61)"/><line class="cls-5" x1="368.91" y1="238.58" x2="384.73" y2="244.09"/><path class="cls-5" d="M-81.22,483.19" transform="translate(450.13 -244.61)"/><line class="cls-5" x1="213.26" y1="236.23" x2="228" y2="231.54"/><path class="cls-5" d="M-252.16,485.69" transform="translate(450.13 -244.61)"/><line class="cls-5" x1="17.51" y1="298.45" x2="80.84" y2="278.32"/><polyline class="cls-6" points="304.67 50.5 304.67 10.02 293.4 10.02 293.4 50.5"/><line class="cls-6" x1="561.45" y1="215.11" x2="561.45" y2="313.09"/><path class="cls-6" d="M111.32,459.72" transform="translate(450.13 -244.61)"/><polyline class="cls-6" points="572.39 311.17 572.39 114.76 561.45 114.76 561.45 183.58 561.45 192.02"/><polyline class="cls-6" points="309.67 272.66 309.67 201.64 298.41 201.6 298.41 397.9 298.41 467.81"/><line class="cls-6" x1="309.67" y1="391.09" x2="309.67" y2="295.65"/><polyline class="cls-6" points="13.83 299.94 13.83 102.77 24.19 102.77 24.23 174.57"/><line class="cls-6" x1="24.23" y1="299.86" x2="24.23" y2="203.73"/><ellipse class="cls-6" cx="452.79" cy="125.82" rx="66.52" ry="20.49"/><path class="cls-6" d="M69.18,543.94c0,11.32-29.78,20.49-66.52,20.49s-66.51-9.17-66.51-20.49a7.33,7.33,0,0,1,.11-1.24" transform="translate(450.13 -244.61)"/><ellipse class="cls-6" cx="302.76" cy="70.99" rx="66.52" ry="20.49"/><ellipse class="cls-6" cx="148.05" cy="123.75" rx="66.52" ry="20.49"/><path class="cls-6" d="M-235.65,544.07a6.56,6.56,0,0,1,.09,1.08c0,11.32-29.78,20.49-66.52,20.49s-66.52-9.17-66.52-20.49a5.93,5.93,0,0,1,.16-1.39" transform="translate(450.13 -244.61)"/><ellipse class="cls-6" cx="293.4" cy="175.15" rx="66.52" ry="20.49"/><path class="cls-6" d="M-151.72,611.56q-2.47.06-5,.06c-36.73,0-66.51-9.17-66.51-20.49a6.25,6.25,0,0,1,.17-1.49" transform="translate(450.13 -244.61)"/><path class="cls-6" d="M-90.64,588.77a6.69,6.69,0,0,1,.43,2.36c0,9.59-21.4,17.64-50.29,19.88" transform="translate(450.13 -244.61)"/><line class="cls-6" x1="519.31" y1="297.89" x2="519.31" y2="299.33"/><line class="cls-6" x1="519.31" y1="229.75" x2="519.31" y2="297.89"/><line class="cls-6" x1="519.31" y1="125.82" x2="519.31" y2="204.6"/><line class="cls-6" x1="386.28" y1="272.27" x2="386.28" y2="299.33"/><path class="cls-6" d="M-63.85,519" transform="translate(450.13 -244.61)"/><path class="cls-6" d="M-63.85,491.06" transform="translate(450.13 -244.61)"/><line class="cls-6" x1="386.28" y1="125.82" x2="386.28" y2="246.46"/><line class="cls-6" x1="359.92" y1="279.87" x2="359.92" y2="346.52"/><line class="cls-6" x1="359.92" y1="175.15" x2="359.92" y2="254.72"/><line class="cls-6" x1="226.89" y1="345.05" x2="226.89" y2="346.52"/><line class="cls-6" x1="226.89" y1="274.52" x2="226.89" y2="345.05"/><line class="cls-6" x1="226.89" y1="175.15" x2="226.89" y2="251.34"/><path class="cls-6" d="M-220.56,363.35" transform="translate(450.13 -244.61)"/><line class="cls-6" x1="214.57" y1="247.91" x2="214.57" y2="123.75"/><line class="cls-6" x1="214.57" y1="300.55" x2="214.57" y2="269.17"/><line class="cls-6" x1="81.53" y1="299.4" x2="81.53" y2="300.55"/><line class="cls-6" x1="81.53" y1="299.12" x2="81.53" y2="299.4"/><line class="cls-6" x1="81.53" y1="298.59" x2="81.53" y2="299.12"/><line class="cls-6" x1="81.54" y1="223.56" x2="81.53" y2="298.59"/><path class="cls-6" d="M-368.7,471.84" transform="translate(450.13 -244.61)"/><path class="cls-6" d="M-368.6,445.08" transform="translate(450.13 -244.61)"/><line class="cls-6" x1="81.53" y1="123.75" x2="81.53" y2="200.47"/><line class="cls-6" x1="236.24" y1="69.99" x2="236.24" y2="165.09"/><line class="cls-6" x1="369.28" y1="68.99" x2="369.28" y2="250.05"/><path class="cls-6" d="M122.18,623.46l.08-69.58Z" transform="translate(450.13 -244.61)"/><path class="cls-6" d="M-436.32,611.25l.08-70Z" transform="translate(450.13 -244.61)"/><line class="cls-7" x1="369.11" y1="116.7" x2="386.11" y2="122.11"/><polyline class="cls-6" points="13.77 199.39 298.9 298.99 571.96 212.01"/><line class="cls-6" x1="64.66" y1="416.77" x2="91.58" y2="407.36"/><line class="cls-6" x1="193.95" y1="461.6" x2="220.86" y2="452.2"/><polygon class="cls-6" points="91.58 396.06 64.66 388.44 64.66 416.77 91.58 425.28 91.58 396.06"/><polygon class="cls-6" points="219.99 441.19 193.08 433.58 193.08 461.9 219.99 470.42 219.99 441.19"/><line class="cls-6" x1="93.34" y1="426.2" x2="139.63" y2="410.03"/><line class="cls-6" x1="221.58" y1="471.52" x2="266.07" y2="453.45"/><line class="cls-6" x1="519.31" y1="193.62" x2="534.39" y2="199.39"/><line class="cls-6" x1="384.73" y1="146.61" x2="369.28" y2="141.21"/><path class="cls-3" d="M122.55,640.48l4.11,1.44a.06.06,0,0,1,0,.11l-15.42,4.88-14.57-5.09a0,0,0,0,1,0-.05l5-1.78" transform="translate(450.13 -244.61)"/><line class="cls-3" x1="561.14" y1="412.34" x2="561.37" y2="402.3"/><polyline class="cls-3" points="576.83 397.38 583.95 405.04 561.02 412.34 561.01 412.34 539.45 404.76 546.74 397.19"/><path class="cls-3" d="M-138,727.85l4.36,1.53c.06,0,0,.09,0,.11L-149,734.36l-14.6-5.1s0,0,0,0l4.06-1.38" transform="translate(450.13 -244.61)"/><path class="cls-3" d="M-138,727.85" transform="translate(450.13 -244.61)"/><path class="cls-3" d="M-159.59,727.86" transform="translate(450.13 -244.61)"/><line class="cls-3" x1="300.85" y1="499.8" x2="301.07" y2="489.76"/><line class="cls-3" x1="286.45" y1="484.65" x2="279.16" y2="492.22"/><path class="cls-3" d="M-133.6,729.44l7.13,7.65v0l-22.94,7.29h0l-21.54-7.56s0,0,0,0l0,0" transform="translate(450.13 -244.61)"/><line class="cls-3" x1="236.24" y1="129.01" x2="214.13" y2="136.01"/><line class="cls-3" x1="81.53" y1="177.96" x2="47.79" y2="188.63"/><polyline class="cls-3" points="551.83 395.38 551.83 395.99 561.98 399.62 562 382.21"/><line class="cls-3" x1="551.91" y1="384.96" x2="551.83" y2="395.38"/><polyline class="cls-3" points="572.68 396.23 562 399.62 562 382.21"/><line class="cls-3" x1="572.79" y1="378.53" x2="572.68" y2="396.23"/><polygon class="cls-3" points="291.06 462 290.91 482.72 301.07 486.35 301.08 465.54 291.06 462"/><polygon class="cls-3" points="301.08 486.35 301.08 465.63 311.9 462.14 311.76 482.96 301.08 486.35"/><path class="cls-3" d="M-416.67,632.34l5.86,2a.06.06,0,0,1,0,.11l-15.42,4.88-14.6-5.1s0,0,0,0l5.85-2" transform="translate(450.13 -244.61)"/><line class="cls-3" x1="23.67" y1="404.81" x2="23.9" y2="394.77"/><line class="cls-3" x1="9.27" y1="389.66" x2="1.98" y2="397.24"/><path class="cls-3" d="M-410.77,634.46l7.13,7.64v0l-22.94,7.3h0l-21.53-7.57s0,0,0,0l.05,0" transform="translate(450.13 -244.61)"/><polygon class="cls-3" points="13.89 367.01 13.74 387.73 23.89 391.37 23.91 370.55 13.89 367.01"/><polyline class="cls-3" points="34.67 375.32 34.59 387.97 23.91 391.37 23.91 370.64"/><polygon class="cls-8" points="745.21 521.45 745.21 534.87 777.49 545.85 780.92 534.21 745.21 521.45"/><polygon class="cls-8" points="94.02 397.56 94.02 423.89 131.18 410.37 94.02 397.56"/><polygon class="cls-8" points="66.63 413.75 89.09 405.87 89.09 397.56 66.84 391.08 66.63 413.75"/><polygon class="cls-8" points="195.55 436.42 217.51 442.99 217.51 451.06 195.55 458.75 195.55 436.42"/><polygon class="cls-8" points="221.58 441.86 257.56 454.44 222.45 469.08 221.58 441.86"/><line class="cls-3" x1="755.02" y1="633.3" x2="743.41" y2="629.12"/><polygon class="cls-8" points="745.21 612.96 745.21 627.88 755.01 631.21 758.77 617.51 745.21 612.96"/><polyline class="cls-9" points="1008.38 362.27 1008.38 541.68 1065.42 561.31 1117.41 676.84 1117.41 792.06"/><polyline class="cls-9" points="1255.92 285.54 1255.92 464.95 1315.41 484.34 1364.5 599.87 1364.5 715.09"/><line class="cls-9" x1="1258.37" y1="464.71" x2="1008.38" y2="541.68"/><line class="cls-9" x1="1367.4" y1="599.87" x2="1117.41" y2="676.84"/><polygon class="cls-6" points="1051.75 408.54 1223.89 354.08 1223.89 438.51 1051.75 492.97 1051.75 408.54"/><line class="cls-3" x1="944.85" y1="491.27" x2="982.45" y2="479.37"/><line class="cls-3" x1="883.86" y1="510.56" x2="936.49" y2="494.28"/><line class="cls-3" x1="819.3" y1="530.99" x2="875.69" y2="513.15"/><line class="cls-3" x1="892.21" y1="516.32" x2="938.46" y2="501.25"/><line class="cls-3" x1="948.03" y1="498.67" x2="982.55" y2="487.74"/><line class="cls-3" x1="816.87" y1="540.16" x2="883.86" y2="518.97"/><path class="cls-3" d="M490.33,760.93" transform="translate(450.13 -244.61)"/><path class="cls-3" d="M477.12,768.45a53.71,53.71,0,0,1-17.43,2.81c-21,0-38.08-11.37-38.08-25.41s17.05-25.4,38.08-25.4,38.7,11.39,38.07,25.4c-.06,1.4-.35,4-.21,2.69" transform="translate(450.13 -244.61)"/><ellipse class="cls-3" cx="909.82" cy="501.25" rx="28.65" ry="19.11"/><line class="cls-6" x1="926.5" y1="512.3" x2="981.19" y2="495.56"/><line class="cls-6" x1="850.04" y1="569.55" x2="926.5" y2="546.16"/><path class="cls-10" d="M-437.27,344.89c0-3.92,2.76-7.09,6.17-7.09s6.17,3.17,6.17,7.09" transform="translate(450.13 -244.61)"/><path class="cls-10" d="M-157.27,253.19c0-3.91,2.77-7.08,6.18-7.08s6.17,3.17,6.17,7.08" transform="translate(450.13 -244.61)"/><path class="cls-10" d="M110.62,357.81c0-3.92,2.76-7.09,6.17-7.09s6.17,3.17,6.17,7.09" transform="translate(450.13 -244.61)"/><path class="cls-10" d="M-152.26,444.66c0-3.92,2.76-7.09,6.17-7.09s6.17,3.17,6.17,7.09" transform="translate(450.13 -244.61)"/><ellipse class="cls-11" cx="1048.54" cy="763.14" rx="34.08" ry="48.04"/><path class="cls-11" d="M331.87,869.28c-11.59,11.57-19.15,30.62-19.15,52.17,0,35.28,20.28,63.88,45.31,63.88s45.31-28.6,45.31-63.88S383.05,857.57,358,857.57c-9.75,0-18.77,4.33-26.16,11.71" transform="translate(450.13 -244.61)"/><line class="cls-11" x1="748.09" y1="659.56" x2="763.61" y2="665.13"/><polyline class="cls-11" points="1080.01 778.65 1117.41 792.06 1360.7 715.09 1359.28 714.6"/><line class="cls-11" x1="849.69" y1="696.01" x2="1014.92" y2="755.29"/><line class="cls-11" x1="757.1" y1="632.29" x2="749.85" y2="660.19"/><path class="cls-11" d="M293.93,854.65l17.3,5.86L307,876.9l57-219.39a104.62,104.62,0,0,1,137.88-71.7l56.4,21.07,243.3-77-35.06-10a230.18,230.18,0,0,0-131.91,1.53L440.93,581.77" transform="translate(450.13 -244.61)"/><path class="cls-11" d="M361.55,804.38l36.13-136.52a64.56,64.56,0,0,1,85.09-44.25l49.55,17.53V776.93l-54.69-19.1v84.42l-76.87-26.86v50.78L349.91,848.4l9.85-37.25" transform="translate(450.13 -244.61)"/><line class="cls-11" x1="809.89" y1="566.55" x2="811.68" y2="559.78"/><line class="cls-11" x1="1008.38" y1="378.19" x2="1255.92" y2="297.26"/><line class="cls-11" x1="962.26" y1="277.93" x2="962.26" y2="315.46"/><line class="cls-11" x1="962.26" y1="388.17" x2="962.26" y2="485.32"/><polyline class="cls-11" points="719.2 511.16 719.2 262.12 962.26 183.99 962.26 277.93"/><line class="cls-11" x1="719.2" y1="527.47" x2="719.2" y2="511.16"/><line class="cls-11" x1="719.2" y1="534.87" x2="719.2" y2="527.47"/><polyline class="cls-11" points="742.72 519.38 742.72 660.19 719.2 648.9 719.2 534.87"/><polyline class="cls-11" points="985.78 307.39 985.78 195.28 742.72 273.41 742.72 519.38"/><line class="cls-11" x1="719.2" y1="262.5" x2="746.74" y2="272.12"/><line class="cls-11" x1="960.62" y1="183.99" x2="988.15" y2="193.61"/><line class="cls-9" x1="1315.41" y1="484.34" x2="1065.42" y2="561.31"/><line class="cls-11" x1="744.06" y1="661.58" x2="752.01" y2="658.42"/><path class="cls-11" d="M307,876.9" transform="translate(450.13 -244.61)"/></svg>