<svg id="Calque_1" data-name="Calque 1" xmlns="http://www.w3.org/2000/svg" viewBox="0 0 246.61 134.35"><defs><style>.cls-1,.cls-2,.cls-3{fill:none;}.cls-1,.cls-2,.cls-3,.cls-4{stroke:#1d1d1b;stroke-miterlimit:10;}.cls-1{stroke-width:5px;}.cls-2{stroke-width:4px;}.cls-3{stroke-width:0.5px;}.cls-4{fill:#1d1d1b;}</style></defs><rect class="cls-1" x="2.5" y="65.51" width="90.66" height="39.42"/><rect class="cls-2" x="10.42" y="39.46" width="32.33" height="40.99"/><rect class="cls-2" x="51.4" y="39.46" width="32.33" height="40.99"/><line class="cls-2" x1="2.5" y1="81.21" x2="93.16" y2="81.21"/><line class="cls-2" x1="93.67" y1="37.21" x2="93.67" y2="65.51"/><line class="cls-2" x1="2" y1="37.21" x2="2" y2="65.51"/><ellipse class="cls-3" cx="2" cy="36.7" rx="1.64" ry="2.15"/><ellipse class="cls-3" cx="93.67" cy="36.7" rx="1.64" ry="2.15"/><circle class="cls-1" cx="131.21" cy="117.02" r="14.83"/><circle class="cls-1" cx="224.44" cy="120.31" r="11.54"/><line class="cls-1" x1="146.05" y1="117.02" x2="212.91" y2="117.02"/><polyline class="cls-1" points="235.98 117.02 244.11 117.02 244.11 86.9 235.98 65.08 226.23 65.08 226.23 4.97"/><path class="cls-1" d="M506.4,720.25c28.88-69.94,28.48-68,35.31-84.67,6-14.57,15.3-15.17,18.07-15,.78,0,1.56.09,2.35.09h46.16" transform="translate(-378.05 -618.06)"/><path class="cls-1" d="M495,744.47h-3.1V623h12.67v97.23s-10.14,3.61-10.18,11.31A113.26,113.26,0,0,0,495,744.47Z" transform="translate(-378.05 -618.06)"/><path class="cls-1" d="M595,629.78H562.9s-7.32,1.13-12.39,14.08-23.09,59.69-23.09,59.69h19.71l1.69-19.8L595,682.52Z" transform="translate(-378.05 -618.06)"/><line class="cls-1" x1="105.19" y1="56.85" x2="105.19" y2="115.79"/><polygon class="cls-4" points="36.3 114.85 100.12 110.72 100.12 114.85 36.3 114.85"/></svg>