<svg id="Calque_1" data-name="Calque 1" xmlns="http://www.w3.org/2000/svg" viewBox="0 0 1366.56 783.27"><defs><style>.cls-1,.cls-10,.cls-2,.cls-4,.cls-5,.cls-8,.cls-9{fill:none;}.cls-1{stroke:#95c11f;}.cls-1,.cls-10,.cls-11,.cls-12,.cls-2,.cls-3,.cls-4,.cls-5,.cls-6,.cls-8,.cls-9{stroke-miterlimit:10;}.cls-1,.cls-10,.cls-11,.cls-12,.cls-5,.cls-6{stroke-width:5px;}.cls-11,.cls-12,.cls-2,.cls-3,.cls-4,.cls-5,.cls-6{stroke:#1d1d1b;}.cls-2,.cls-3{stroke-width:4px;}.cls-12,.cls-3,.cls-7{fill:#95c11f;}.cls-4,.cls-8{stroke-width:6px;}.cls-6{fill:#1d1d1b;}.cls-10,.cls-8,.cls-9{stroke:#000;}.cls-9{stroke-width:3px;}.cls-11{fill:#70c8f2;}</style></defs><polygon class="cls-1" points="466.57 602.9 498.49 592.8 333.83 578.86 363.91 635.38 392.07 626.47 597.31 698.16 671.36 674.43 466.57 602.9"/><line class="cls-2" x1="739.82" y1="488.67" x2="781.63" y2="503.28"/><line class="cls-2" x1="717.15" y1="480.75" x2="718.48" y2="481.22"/><path class="cls-3" d="M268.82,757.14l-41.49-14.49a.53.53,0,0,1-.17-.08l-16-9.94a3.33,3.33,0,0,1,2.44-6.08l35.79,7.52a.23.23,0,0,1,.11,0L268,740.57" transform="translate(449.1 -259.81)"/><line class="cls-2" x1="777.52" y1="518.15" x2="740.31" y2="505.15"/><path class="cls-2" d="M268.82,764.54l-41.49-14.49-.17-.08-16-10a3.2,3.2,0,0,1-1.58-2.87" transform="translate(449.1 -259.81)"/><line class="cls-2" x1="776.25" y1="525.11" x2="740.31" y2="512.55"/><path class="cls-2" d="M485.12,827" transform="translate(449.1 -259.81)"/><path class="cls-2" d="M492.17,824.75" transform="translate(449.1 -259.81)"/><path class="cls-2" d="M268,858.37,92.28,795.15l-.17-.08-16-9.94a3.22,3.22,0,0,1-1.58-2.66" transform="translate(449.1 -259.81)"/><path class="cls-3" d="M268.7,848.69,94.61,787.88l0,0L75.88,776.22a2.77,2.77,0,0,1,2-5.07l38.89,8.17h0l152,53.09" transform="translate(449.1 -259.81)"/><line class="cls-2" x1="658.71" y1="471.39" x2="658.71" y2="478.92"/><line class="cls-2" x1="523.66" y1="515.14" x2="523.66" y2="522.66"/><polyline class="cls-4" points="570.54 309.27 296.64 395.92 13.83 297.14"/><path class="cls-4" d="M-223.14,369.47" transform="translate(449.1 -259.81)"/><path class="cls-4" d="M-235,506.54l-198.76-69.43a.54.54,0,0,1,0-1l66.16-20.93" transform="translate(449.1 -259.81)"/><path class="cls-4" d="M70.91,429.18l50,17.24a.8.8,0,0,1,0,1.52l-274.78,86.93L-235,506.54" transform="translate(449.1 -259.81)"/><line class="cls-4" x1="202.97" y1="112.18" x2="235.44" y2="101.91"/><polyline class="cls-4" points="572.31 378.86 298.74 465.81 13.81 366.64"/><line class="cls-4" x1="520.64" y1="291.39" x2="573.61" y2="309.83"/><path class="cls-4" d="M71.54,551.2" transform="translate(449.1 -259.81)"/><line class="cls-4" x1="368.91" y1="238.58" x2="384.73" y2="244.09"/><path class="cls-4" d="M-80.19,498.39" transform="translate(449.1 -259.81)"/><line class="cls-4" x1="213.26" y1="236.23" x2="228" y2="231.54"/><path class="cls-4" d="M-251.13,500.9" transform="translate(449.1 -259.81)"/><line class="cls-4" x1="17.51" y1="298.45" x2="80.84" y2="278.32"/><polyline class="cls-5" points="304.67 50.5 304.67 10.02 293.4 10.02 293.4 50.5"/><line class="cls-5" x1="561.45" y1="215.11" x2="561.45" y2="313.09"/><path class="cls-5" d="M112.35,474.92" transform="translate(449.1 -259.81)"/><polyline class="cls-5" points="572.39 311.17 572.39 114.76 561.45 114.76 561.45 183.58 561.45 192.02"/><polyline class="cls-5" points="309.67 272.66 309.67 201.64 298.41 201.6 298.41 397.9 298.41 467.81"/><line class="cls-5" x1="309.67" y1="391.09" x2="309.67" y2="295.65"/><polyline class="cls-5" points="13.83 299.94 13.83 102.77 24.19 102.77 24.23 174.57"/><line class="cls-5" x1="24.23" y1="299.86" x2="24.23" y2="203.73"/><ellipse class="cls-5" cx="452.79" cy="125.82" rx="66.52" ry="20.49"/><path class="cls-5" d="M70.21,559.14c0,11.32-29.78,20.49-66.52,20.49s-66.52-9.17-66.52-20.49a6.41,6.41,0,0,1,.12-1.23" transform="translate(449.1 -259.81)"/><ellipse class="cls-5" cx="302.76" cy="70.99" rx="66.52" ry="20.49"/><ellipse class="cls-5" cx="148.05" cy="123.75" rx="66.52" ry="20.49"/><path class="cls-5" d="M-234.62,559.27a6.59,6.59,0,0,1,.09,1.09c0,11.31-29.78,20.49-66.52,20.49s-66.52-9.18-66.52-20.49a6.59,6.59,0,0,1,.15-1.4" transform="translate(449.1 -259.81)"/><ellipse class="cls-5" cx="293.4" cy="175.15" rx="66.52" ry="20.49"/><path class="cls-5" d="M-150.69,626.77c-1.66,0-3.32.05-5,.05-36.73,0-66.52-9.17-66.52-20.49a6.26,6.26,0,0,1,.18-1.49" transform="translate(449.1 -259.81)"/><path class="cls-5" d="M-89.61,604a6.87,6.87,0,0,1,.43,2.35c0,9.6-21.4,17.65-50.3,19.88" transform="translate(449.1 -259.81)"/><line class="cls-5" x1="519.31" y1="297.89" x2="519.31" y2="299.33"/><line class="cls-5" x1="519.31" y1="229.75" x2="519.31" y2="297.89"/><line class="cls-5" x1="519.31" y1="125.82" x2="519.31" y2="204.6"/><line class="cls-5" x1="386.28" y1="272.27" x2="386.28" y2="299.33"/><path class="cls-5" d="M-62.83,534.24" transform="translate(449.1 -259.81)"/><path class="cls-5" d="M-62.83,506.27" transform="translate(449.1 -259.81)"/><line class="cls-5" x1="386.28" y1="125.82" x2="386.28" y2="246.46"/><line class="cls-5" x1="359.92" y1="279.87" x2="359.92" y2="346.52"/><line class="cls-5" x1="359.92" y1="175.15" x2="359.92" y2="254.72"/><line class="cls-5" x1="226.89" y1="345.05" x2="226.89" y2="346.52"/><line class="cls-5" x1="226.89" y1="274.52" x2="226.89" y2="345.05"/><line class="cls-5" x1="226.89" y1="175.15" x2="226.89" y2="251.34"/><path class="cls-5" d="M-219.53,378.56" transform="translate(449.1 -259.81)"/><line class="cls-5" x1="214.57" y1="247.91" x2="214.57" y2="123.75"/><line class="cls-5" x1="214.57" y1="300.55" x2="214.57" y2="269.17"/><line class="cls-5" x1="81.53" y1="299.4" x2="81.53" y2="300.55"/><line class="cls-5" x1="81.53" y1="299.12" x2="81.53" y2="299.4"/><line class="cls-5" x1="81.53" y1="298.59" x2="81.53" y2="299.12"/><line class="cls-5" x1="81.54" y1="223.56" x2="81.53" y2="298.59"/><path class="cls-5" d="M-367.67,487.05" transform="translate(449.1 -259.81)"/><path class="cls-5" d="M-367.57,460.28" transform="translate(449.1 -259.81)"/><line class="cls-5" x1="81.53" y1="123.75" x2="81.53" y2="200.47"/><line class="cls-5" x1="236.24" y1="69.99" x2="236.24" y2="165.09"/><line class="cls-5" x1="369.28" y1="68.99" x2="369.28" y2="250.05"/><path class="cls-5" d="M123.21,638.67l.08-69.58Z" transform="translate(449.1 -259.81)"/><path class="cls-5" d="M-435.29,626.46l.08-70Z" transform="translate(449.1 -259.81)"/><line class="cls-6" x1="369.11" y1="116.7" x2="386.11" y2="122.11"/><polyline class="cls-5" points="13.77 199.39 298.9 298.99 571.96 212.01"/><line class="cls-5" x1="527.33" y1="423.71" x2="500.41" y2="414.31"/><line class="cls-5" x1="420.41" y1="457.25" x2="393.5" y2="447.85"/><polygon class="cls-5" points="500.41 403 527.33 395.39 527.33 423.71 500.41 432.23 500.41 403"/><polygon class="cls-5" points="394.37 436.84 421.28 429.23 421.28 457.55 394.37 466.07 394.37 436.84"/><line class="cls-5" x1="498.65" y1="433.15" x2="452.36" y2="416.98"/><line class="cls-5" x1="519.31" y1="193.62" x2="534.39" y2="199.39"/><line class="cls-5" x1="384.73" y1="146.61" x2="369.28" y2="141.21"/><path class="cls-2" d="M123.58,655.69l4.11,1.43a.06.06,0,0,1,0,.11l-15.41,4.88L97.7,657a0,0,0,0,1,0,0l5-1.79" transform="translate(449.1 -259.81)"/><line class="cls-2" x1="561.14" y1="412.34" x2="561.37" y2="402.3"/><polyline class="cls-2" points="576.83 397.38 583.95 405.04 561.02 412.34 561.01 412.34 539.45 404.76 546.74 397.19"/><path class="cls-2" d="M-137,743.05l4.37,1.53a.06.06,0,0,1,0,.11L-148,749.57l-14.59-5.1s0,0,0,0l4.06-1.38" transform="translate(449.1 -259.81)"/><path class="cls-2" d="M-137,743.05" transform="translate(449.1 -259.81)"/><path class="cls-2" d="M-158.56,743.07" transform="translate(449.1 -259.81)"/><line class="cls-2" x1="300.85" y1="499.8" x2="301.07" y2="489.76"/><line class="cls-2" x1="286.45" y1="484.65" x2="279.16" y2="492.22"/><path class="cls-2" d="M-132.57,744.65l7.13,7.64v0l-22.94,7.3h0L-169.92,752s0,0,0,0h0" transform="translate(449.1 -259.81)"/><line class="cls-2" x1="236.24" y1="129.01" x2="214.13" y2="136.01"/><line class="cls-2" x1="81.53" y1="177.96" x2="47.79" y2="188.63"/><polyline class="cls-2" points="551.83 395.38 551.83 395.99 561.98 399.62 562 382.21"/><line class="cls-2" x1="551.91" y1="384.96" x2="551.83" y2="395.38"/><polyline class="cls-2" points="572.68 396.23 562 399.62 562 382.21"/><line class="cls-2" x1="572.79" y1="378.53" x2="572.68" y2="396.23"/><polygon class="cls-2" points="291.06 462 290.91 482.72 301.07 486.35 301.08 465.54 291.06 462"/><polygon class="cls-2" points="301.08 486.35 301.08 465.63 311.9 462.14 311.76 482.96 301.08 486.35"/><path class="cls-2" d="M-415.65,647.55l5.87,2s0,.1,0,.11l-15.42,4.88-14.6-5.1s0,0,0,0l5.85-2" transform="translate(449.1 -259.81)"/><line class="cls-2" x1="23.67" y1="404.81" x2="23.9" y2="394.77"/><line class="cls-2" x1="9.27" y1="389.66" x2="1.98" y2="397.24"/><path class="cls-2" d="M-409.74,649.66l7.13,7.65h0l-22.94,7.3h0l-21.54-7.56v0l.06,0" transform="translate(449.1 -259.81)"/><polygon class="cls-2" points="13.89 367.01 13.74 387.73 23.89 391.37 23.91 370.55 13.89 367.01"/><polyline class="cls-2" points="34.67 375.32 34.59 387.97 23.91 391.37 23.91 370.64"/><polygon class="cls-7" points="460.27 417.29 497.91 430.36 497.91 405.3 460.27 417.29"/><polygon class="cls-7" points="524.8 420.37 524.8 398.83 502.84 404.6 502.84 412.77 524.8 420.37"/><polygon class="cls-7" points="742.78 491.98 778.44 504.46 775.25 515.25 742.78 504.46 742.78 491.98"/><polyline class="cls-8" points="1006.33 331.86 1006.33 511.27 1063.36 530.9 1115.35 646.43 1115.35 761.65"/><polyline class="cls-8" points="1253.87 255.13 1253.87 434.54 1313.35 453.93 1362.45 569.47 1362.45 684.68"/><line class="cls-8" x1="1256.31" y1="434.3" x2="1006.32" y2="511.27"/><line class="cls-8" x1="1365.34" y1="569.47" x2="1115.35" y2="646.43"/><polygon class="cls-5" points="1049.69 378.13 1221.83 323.67 1221.83 408.1 1049.69 462.56 1049.69 378.13"/><line class="cls-2" x1="942.79" y1="460.86" x2="980.4" y2="448.97"/><line class="cls-2" x1="881.81" y1="480.15" x2="934.44" y2="463.87"/><line class="cls-2" x1="817.24" y1="500.58" x2="873.63" y2="482.74"/><line class="cls-2" x1="890.16" y1="485.92" x2="936.41" y2="470.84"/><line class="cls-2" x1="945.98" y1="468.26" x2="980.5" y2="457.34"/><line class="cls-2" x1="814.81" y1="509.75" x2="881.81" y2="488.56"/><ellipse class="cls-2" cx="907.76" cy="470.84" rx="38.08" ry="25.41"/><ellipse class="cls-2" cx="907.76" cy="470.84" rx="28.65" ry="19.11"/><line class="cls-5" x1="924.44" y1="481.89" x2="979.13" y2="465.15"/><line class="cls-5" x1="847.98" y1="539.15" x2="924.44" y2="515.75"/><path class="cls-9" d="M-436.25,360.09c0-3.91,2.77-7.08,6.18-7.08s6.17,3.17,6.17,7.08" transform="translate(449.1 -259.81)"/><path class="cls-9" d="M-156.24,268.4c0-3.92,2.77-7.09,6.17-7.09s6.17,3.17,6.17,7.09" transform="translate(449.1 -259.81)"/><path class="cls-9" d="M111.65,373c0-3.91,2.76-7.08,6.17-7.08S124,369.1,124,373" transform="translate(449.1 -259.81)"/><path class="cls-9" d="M-151.23,459.86c0-3.91,2.76-7.08,6.17-7.08s6.17,3.17,6.17,7.08" transform="translate(449.1 -259.81)"/><ellipse class="cls-10" cx="1046.48" cy="732.73" rx="34.08" ry="48.04"/><path class="cls-10" d="M330.84,854.08c-11.59,11.57-19.15,30.62-19.15,52.16,0,35.29,20.29,63.89,45.31,63.89s45.31-28.6,45.31-63.89S382,842.36,357,842.36c-9.74,0-18.77,4.34-26.16,11.72" transform="translate(449.1 -259.81)"/><line class="cls-10" x1="746.03" y1="629.15" x2="761.55" y2="634.72"/><polyline class="cls-10" points="1077.96 748.24 1115.35 761.65 1358.65 684.68 1357.22 684.19"/><line class="cls-10" x1="847.63" y1="665.6" x2="1012.86" y2="724.88"/><line class="cls-10" x1="755.05" y1="601.89" x2="747.8" y2="629.79"/><path class="cls-10" d="M439.9,566.56,633.55,506.2a230.26,230.26,0,0,1,131.91-1.54l35.06,10-243.3,77L500.83,570.6a104.63,104.63,0,0,0-137.89,71.7L306,861.7" transform="translate(449.1 -259.81)"/><path class="cls-10" d="M360.53,789.18l36.12-136.53a64.57,64.57,0,0,1,85.09-44.25l49.56,17.53v135.8l-54.69-19.1V827l-76.87-26.85V851L348.88,833.2,358.73,796" transform="translate(449.1 -259.81)"/><line class="cls-10" x1="807.84" y1="536.14" x2="809.63" y2="529.37"/><line class="cls-10" x1="1006.32" y1="347.78" x2="1253.87" y2="266.85"/><line class="cls-10" x1="960.2" y1="247.52" x2="960.2" y2="285.06"/><line class="cls-10" x1="960.2" y1="357.76" x2="960.2" y2="454.91"/><polyline class="cls-10" points="717.15 480.75 717.15 231.71 960.2 153.58 960.2 247.52"/><line class="cls-10" x1="717.15" y1="497.06" x2="717.15" y2="480.75"/><line class="cls-10" x1="717.15" y1="504.46" x2="717.15" y2="497.06"/><polyline class="cls-10" points="740.67 488.97 740.67 629.78 717.15 618.49 717.15 504.46"/><polyline class="cls-10" points="983.73 276.98 983.73 164.87 740.67 243 740.67 488.97"/><line class="cls-10" x1="717.15" y1="232.09" x2="744.68" y2="241.71"/><line class="cls-10" x1="958.56" y1="153.58" x2="986.1" y2="163.2"/><line class="cls-8" x1="1313.35" y1="453.93" x2="1063.36" y2="530.9"/><line class="cls-10" x1="742" y1="631.18" x2="749.96" y2="628.01"/><path class="cls-11" d="M-59.59,696.33" transform="translate(449.1 -259.81)"/><polyline class="cls-12" points="392.97 467.17 353.13 450.93 392.89 438.98"/><path class="cls-11" d="M-59.59,724.85" transform="translate(449.1 -259.81)"/><polygon class="cls-7" points="418.8 454.44 418.8 432.19 396.69 438.39 396.69 446.83 418.8 454.44"/></svg>