<svg id="Calque_1" data-name="Calque 1" xmlns="http://www.w3.org/2000/svg" viewBox="0 0 363.32 376.55"><defs><style>.cls-1,.cls-3,.cls-4,.cls-5,.cls-6,.cls-7{fill:none;}.cls-1,.cls-3,.cls-6,.cls-7,.cls-8{stroke:#1d1d1b;}.cls-1,.cls-3,.cls-4,.cls-5,.cls-6,.cls-7,.cls-8{stroke-miterlimit:10;}.cls-1{stroke-width:5px;}.cls-2,.cls-8{fill:#1d1d1b;}.cls-3,.cls-8{stroke-width:2px;}.cls-4,.cls-5{stroke:#cdcccc;stroke-width:0.75px;}.cls-5{stroke-dasharray:25.58 25.58;}.cls-6{stroke-linecap:round;}.cls-7{stroke-width:4px;}</style></defs><path class="cls-1" d="M466.84,548.3" transform="translate(-247.63 -285.95)"/><polyline class="cls-1" points="4.46 207.23 4.46 209.87 4.75 374.05 220.13 374.05 219.79 204.88"/><line class="cls-1" x1="4.96" y1="315.51" x2="30.64" y2="291.27"/><line class="cls-1" x1="30.42" y1="240.36" x2="30.74" y2="240.06"/><path class="cls-1" d="M506.25,537.44" transform="translate(-247.63 -285.95)"/><path class="cls-1" d="M541.68,538.77l.32-.34a.58.58,0,0,0-.35-1H515.59" transform="translate(-247.63 -285.95)"/><path class="cls-2" d="M402.7,287.49l1.64,5.26L408.77,307l6.58,21.13,8,25.67L432.14,382,441,410.4,449.26,437l7,22.37,5,16.15c.79,2.54,1.53,5.1,2.37,7.63,0,.11.07.22.11.33.47,1.53,2.89.88,2.41-.67l-1.64-5.25-4.43-14.23-6.58-21.13-8-25.67-8.79-28.24-8.84-28.39-8.28-26.57-7-22.37-5-16.16c-.79-2.54-1.53-5.1-2.37-7.62,0-.11-.07-.22-.11-.33-.47-1.53-2.89-.88-2.41.66Z" transform="translate(-247.63 -285.95)"/><path class="cls-1" d="M466.92,539.51" transform="translate(-247.63 -285.95)"/><path class="cls-3" d="M488.53,414.19" transform="translate(-247.63 -285.95)"/><line class="cls-3" x1="5.79" y1="199.71" x2="155.63" y2="1.55"/><ellipse class="cls-1" cx="71.13" cy="207.43" rx="41.33" ry="15"/><path class="cls-1" d="M277.69,582.39a4.94,4.94,0,0,0-.19.78" transform="translate(-247.63 -285.95)"/><path class="cls-1" d="M277.5,583.17a5.84,5.84,0,0,0-.08.93c0,8.29,18.5,15,41.33,15s41.34-6.71,41.34-15a5.68,5.68,0,0,0-.32-1.86" transform="translate(-247.63 -285.95)"/><ellipse class="cls-1" cx="170.39" cy="206.43" rx="41.33" ry="15"/><path class="cls-1" d="M376.82,582.9a5.44,5.44,0,0,0-.13,1.2c0,8.29,18.5,15,41.33,15s41.34-6.71,41.34-15a5.65,5.65,0,0,0-.11-1.08" transform="translate(-247.63 -285.95)"/><ellipse class="cls-1" cx="226.79" cy="176.12" rx="41.33" ry="15"/><path class="cls-1" d="M457.63,563.69a101.27,101.27,0,0,0,16.5,1.31c22.57,0,42.44-7.06,41.37-15.5" transform="translate(-247.63 -285.95)"/><path class="cls-1" d="M422.76,459.16c-3.59-7-20.41-12.23-40.63-12.23-20,0-36.64,5.14-40.5,12" transform="translate(-247.63 -285.95)"/><path class="cls-1" d="M341.63,458.9a6.14,6.14,0,0,0-.84,3c0,8.28,18.51,15,41.34,15s41.33-6.72,41.33-15a6,6,0,0,0-.7-2.77" transform="translate(-247.63 -285.95)"/><path class="cls-1" d="M359.58,560.84a99,99,0,0,0,17.59,2" transform="translate(-247.63 -285.95)"/><line class="cls-1" x1="267.83" y1="173.97" x2="267.92" y2="264.17"/><line class="cls-1" x1="211.73" y1="207.71" x2="211.73" y2="298.15"/><line class="cls-1" x1="129.06" y1="208.38" x2="129.06" y2="298.15"/><line class="cls-1" x1="112.46" y1="297.32" x2="112.46" y2="298.15"/><line class="cls-1" x1="112.46" y1="209.38" x2="112.46" y2="297.32"/><line class="cls-1" x1="29.79" y1="208.88" x2="29.79" y2="298.15"/><line class="cls-1" x1="78.38" y1="167.59" x2="78.38" y2="190.55"/><line class="cls-3" x1="156.28" y1="1.2" x2="79.96" y2="158.71"/><line class="cls-4" x1="292.62" y1="159.88" x2="282.86" y2="148.49"/><line class="cls-5" x1="266.2" y1="129.07" x2="174.6" y2="22.26"/><line class="cls-4" x1="166.27" y1="12.55" x2="156.51" y2="1.16"/><path class="cls-1" d="M468.53,660.69l74.22-71.61c.11-.12.21-13.72.21-13.9l-.29-121.41" transform="translate(-247.63 -285.95)"/><polyline class="cls-1" points="4.46 316.05 220.75 316.05 293.6 252.15"/><path class="cls-1" d="M325.25,491.08" transform="translate(-247.63 -285.95)"/><path class="cls-2" d="M516.57,491.83h26l-1.77-4.26-7.48,6.48-17.86,15.48-21.7,18.81-18.68,16.2-6.23,5.4c-1,.83-2,1.61-2.92,2.53l-.13.12,1.77-.74H261.29c-2.77,0-5.61-.18-8.36,0h-.36l1.76,4.27,20.18-20.18,2.82-2.83c2.28-2.27-1.25-5.81-3.53-3.53l-20.18,20.18-2.82,2.83a2.52,2.52,0,0,0,1.77,4.26H464.51a14.94,14.94,0,0,0,3.72-.08,7,7,0,0,0,2.27-1.66l3.43-3,12.12-10.5,33.47-29,23.58-20.44,1.23-1.07c1.68-1.45.3-4.27-1.76-4.27h-26c-3.22,0-3.23,5,0,5Z" transform="translate(-247.63 -285.95)"/><line class="cls-1" x1="93.16" y1="175.97" x2="93.13" y2="194.38"/><line class="cls-1" x1="175.83" y1="175.97" x2="175.83" y2="191.38"/><line class="cls-1" x1="185.46" y1="176.12" x2="185.46" y2="191.38"/><ellipse class="cls-6" cx="219.88" cy="200.57" rx="4.13" ry="4.56"/><ellipse class="cls-6" cx="294.88" cy="163.32" rx="4.13" ry="4.56"/><ellipse class="cls-6" cx="4.63" cy="203.82" rx="4.13" ry="4.56"/><ellipse class="cls-6" cx="78.38" cy="163.23" rx="4.13" ry="4.56"/><polygon class="cls-7" points="316.55 91.5 273.25 91.5 294.9 54 316.55 16.5 338.2 54 359.86 91.5 316.55 91.5"/><polygon class="cls-8" points="319.72 41.55 315.59 72.44 313.52 41.55 319.72 41.55"/><circle class="cls-7" cx="315.55" cy="81.86" r="1.03"/></svg>