<svg id="Calque_1" data-name="Calque 1" xmlns="http://www.w3.org/2000/svg" viewBox="0 0 445.45 266.18"><defs><style>.cls-1,.cls-2,.cls-3,.cls-6,.cls-7,.cls-8{fill:none;}.cls-1,.cls-2,.cls-3,.cls-5{stroke:#000;}.cls-1,.cls-2,.cls-3,.cls-4,.cls-5,.cls-6,.cls-7,.cls-8{stroke-miterlimit:10;}.cls-1,.cls-7{stroke-width:5px;}.cls-2{stroke-width:6px;}.cls-3,.cls-8{stroke-width:3px;}.cls-4{fill:#f39200;stroke:#f39200;}.cls-6,.cls-7,.cls-8{stroke:#1d1d1b;}.cls-6{stroke-width:4px;}</style></defs><path class="cls-1" d="M463.37,648.94" transform="translate(-154.88 -511.25)"/><path class="cls-1" d="M389.62,617V530.68a.09.09,0,0,1,.12-.08l114.64,40.94a.09.09,0,0,1,.06.08l-.33,65.45" transform="translate(-154.88 -511.25)"/><line class="cls-1" x1="308.49" y1="137.69" x2="256.09" y2="120.81"/><polygon class="cls-1" points="118.42 226.64 349.22 155.92 349.22 125.82 118.42 196.54 118.42 226.64"/><polyline class="cls-1" points="101.25 123.45 3.55 153.39 3.55 183.5 101.12 153.6"/><line class="cls-1" x1="235.55" y1="81.96" x2="199.25" y2="94"/><path class="cls-1" d="M394.22,530.63" transform="translate(-154.88 -511.25)"/><ellipse class="cls-2" cx="331.19" cy="750.99" rx="22.98" ry="19.91" transform="translate(-641.06 314.37) rotate(-71.42)"/><ellipse class="cls-2" cx="394.22" cy="732.88" rx="22.8" ry="19.91" transform="translate(-580.95 361.78) rotate(-71.42)"/><ellipse class="cls-2" cx="540.21" cy="688.2" rx="22.01" ry="20.48" transform="translate(-488.22 225.44) rotate(-55.05)"/><polyline class="cls-1" points="116.52 225.17 3.55 184.5 2.55 221.64 115.99 263.84"/><path class="cls-1" d="M273.17,735.42" transform="translate(-154.88 -511.25)"/><line class="cls-3" x1="358.85" y1="177.59" x2="365.84" y2="174.37"/><line class="cls-3" x1="256.09" y1="208.37" x2="261.36" y2="206.31"/><path class="cls-1" d="M415.78,729.58" transform="translate(-154.88 -511.25)"/><line class="cls-3" x1="194.27" y1="228.75" x2="216.73" y2="221.63"/><line class="cls-3" x1="150.74" y1="243.48" x2="157.58" y2="240.83"/><path class="cls-1" d="M352.8,749.17" transform="translate(-154.88 -511.25)"/><path class="cls-1" d="M331.21,650.85,255,624.28s0,0,0,0L336.13,599,412,626" transform="translate(-154.88 -511.25)"/><path class="cls-1" d="M255.55,682.89s0,0,0,0l45.53,16" transform="translate(-154.88 -511.25)"/><line class="cls-1" x1="176.33" y1="139.6" x2="177.01" y2="178.6"/><path class="cls-1" d="M412,666.6V626.07s0,0,0,0l-80.76,24.81" transform="translate(-154.88 -511.25)"/><line class="cls-1" x1="100.13" y1="113.03" x2="100.66" y2="171.64"/><polygon class="cls-3" points="262.9 57.46 313.1 74.62 313.1 99 262.9 81.25 262.9 57.46"/><polyline class="cls-4" points="212.26 165.23 202.19 130.41 124.32 102.09 120.96 103.17 197.62 132.01 208.4 166.41"/><polyline class="cls-4" points="248.31 154.18 238.46 120.05 160.59 91.73 157.23 92.8 233.9 121.64 244.44 155.35"/><polyline class="cls-3" points="415.81 40.3 415.81 65.42 421.25 65.42 421.25 40.34 415.81 40.3"/><polygon class="cls-5" points="403.82 45.22 403.79 43.08 415.32 39.48 415.32 41.63 403.82 45.22"/><path class="cls-6" d="M253.25,597.29l77.64,26.88a1,1,0,0,0,.64,0l78.71-24.31a1,1,0,0,0,0-2l-74.43-25.34a1,1,0,0,0-.63,0L255,597.17" transform="translate(-154.88 -511.25)"/><path class="cls-7" d="M616.3,625.79" transform="translate(-154.88 -511.25)"/><path class="cls-7" d="M538.38,689.74" transform="translate(-154.88 -511.25)"/><line class="cls-8" x1="406.6" y1="162.1" x2="399.99" y2="164.48"/><polygon class="cls-8" points="361.08 73.05 361.08 105.7 409.59 90 396.81 60.3 361.08 73.05"/><line class="cls-1" x1="100.13" y1="113.03" x2="100.13" y2="69.92"/><line class="cls-1" x1="176.29" y1="140.66" x2="176.29" y2="97.55"/><line class="cls-1" x1="257.09" y1="120.71" x2="257.09" y2="77.6"/><line class="cls-1" x1="181.5" y1="88.33" x2="181.5" y2="45.22"/><path class="cls-6" d="M273.17,734.42l-.53,38.67,28.44-8.88,12.08-32.09,92.08-29,16.56,23.41,87.45-27,12.12-31.63,29.08-9.39,16.44,20.83L598.33,668V627.9l-16-21.15-26.17-52.39a.84.84,0,0,0-1-.34l-51,17.38,51.33-16.33a.85.85,0,0,0,0-1.61l-115-40.16a.9.9,0,0,0-.54,0L389.73,529.6" transform="translate(-154.88 -511.25)"/></svg>