<svg id="Calque_1" data-name="Calque 1" xmlns="http://www.w3.org/2000/svg" viewBox="0 0 543.22 330.54"><defs><style>.cls-1,.cls-2,.cls-3,.cls-4,.cls-6{fill:none;}.cls-1,.cls-2,.cls-3,.cls-4,.cls-5{stroke:#000;}.cls-1,.cls-2,.cls-3,.cls-4,.cls-5,.cls-6{stroke-miterlimit:10;}.cls-1{stroke-width:7px;}.cls-2{stroke-width:6px;}.cls-3{stroke-width:8px;}.cls-4,.cls-5{stroke-width:5px;}.cls-5{fill:#cecdcd;}.cls-6{stroke:#008d36;stroke-width:13px;}</style></defs><polyline class="cls-1" points="496.41 250.87 539.72 250.87 539.72 296.52 511.04 296.52"/><path class="cls-2" d="M152.57,511H332.51l-47.73-77.48-86.69,9.21h0A51.62,51.62,0,0,0,152.57,494Z" transform="translate(-149.57 -430.37)"/><polyline class="cls-2" points="135.21 3.18 219.19 3.18 219.19 222.09 3 222.09 3 152.19 12.75 80.67"/><rect class="cls-2" x="32.51" y="111.8" width="14.09" height="46.06"/><circle class="cls-2" cx="116.51" cy="289" r="38.33"/><circle class="cls-2" cx="116.51" cy="289" r="23.26"/><path class="cls-2" d="M303.72,726.68" transform="translate(-149.57 -430.37)"/><path class="cls-2" d="M303.72,726.68h19.8V716.24a49.7,49.7,0,0,0-49.7-49.7H261.07a49.71,49.71,0,0,0-49.71,49.7v10.44h16.39" transform="translate(-149.57 -430.37)"/><circle class="cls-2" cx="451.58" cy="289.2" r="38.33"/><circle class="cls-2" cx="451.58" cy="289.2" r="23.26"/><path class="cls-2" d="M638.79,726.89" transform="translate(-149.57 -430.37)"/><path class="cls-2" d="M638.79,726.89h19.8V716.45a49.71,49.71,0,0,0-49.71-49.71H596.13a49.71,49.71,0,0,0-49.7,49.71v10.44h16.39" transform="translate(-149.57 -430.37)"/><polyline class="cls-2" points="46.59 111.8 46.59 98.66 117.71 98.66 117.71 157.85 46.59 157.85"/><path class="cls-2" d="M152.57,652.45v54.73a19.5,19.5,0,0,0,19.5,19.5h39.29" transform="translate(-149.57 -430.37)"/><polyline class="cls-2" points="177.47 222.09 177.47 250.67 411 250.67"/><line class="cls-2" x1="173.95" y1="296.32" x2="394.71" y2="296.32"/><polyline class="cls-3" points="232.2 3.18 232.2 222.09 525.33 222.09"/><line class="cls-4" x1="266.87" y1="80.67" x2="266.87" y2="210.16"/><line class="cls-4" x1="371.45" y1="80.67" x2="371.45" y2="210.16"/><line class="cls-4" x1="266.87" y1="116.43" x2="371.45" y2="116.43"/><line class="cls-4" x1="266.87" y1="159.23" x2="371.45" y2="159.23"/><line class="cls-4" x1="266.87" y1="201.5" x2="371.45" y2="201.5"/><line class="cls-4" x1="266.87" y1="87.71" x2="277.71" y2="87.71"/><line class="cls-4" x1="360.61" y1="87.71" x2="371.45" y2="87.71"/><line class="cls-4" x1="400.65" y1="80.67" x2="400.65" y2="210.16"/><line class="cls-4" x1="505.22" y1="80.67" x2="505.22" y2="210.16"/><line class="cls-4" x1="400.65" y1="116.43" x2="505.22" y2="116.43"/><line class="cls-4" x1="400.65" y1="159.23" x2="505.22" y2="159.23"/><line class="cls-4" x1="400.65" y1="201.5" x2="505.22" y2="201.5"/><line class="cls-4" x1="400.65" y1="87.71" x2="411.48" y2="87.71"/><line class="cls-4" x1="494.39" y1="87.71" x2="505.22" y2="87.71"/><rect class="cls-5" x="400.65" y="159.23" width="104.57" height="42.26"/><rect class="cls-5" x="266.87" y="159.23" width="104.57" height="42.26"/><line class="cls-6" x1="429.67" y1="155.25" x2="429.67" y2="218.1"/><line class="cls-6" x1="477.17" y1="155.25" x2="477.17" y2="218.1"/><line class="cls-6" x1="295.41" y1="155.25" x2="295.41" y2="218.1"/><line class="cls-6" x1="342.91" y1="155.25" x2="342.91" y2="218.1"/><line class="cls-2" x1="189.13" y1="3.18" x2="189.13" y2="222.08"/></svg>