<svg xmlns="http://www.w3.org/2000/svg" viewBox="0 0 210.34 134.35"><defs><style>.cls-1,.cls-3{fill:none;}.cls-1,.cls-2,.cls-3{stroke:#1d1d1b;stroke-miterlimit:10;}.cls-1{stroke-width:5px;}.cls-2{fill:#1d1d1b;}.cls-3{stroke-width:3px;}</style></defs><g id="Calque_2" data-name="Calque 2"><g id="Calque_1-2" data-name="Calque 1"><circle class="cls-1" cx="94.95" cy="117.02" r="14.83"/><circle class="cls-1" cx="188.17" cy="120.31" r="11.54"/><line class="cls-1" x1="109.78" y1="117.02" x2="176.64" y2="117.02"/><polyline class="cls-1" points="199.71 117.02 207.84 117.02 207.84 86.9 199.71 65.08 189.97 65.08 189.97 4.97"/><path class="cls-1" d="M92.08,102.19c28.88-69.94,28.48-68,35.31-84.66,6-14.58,15.3-15.18,18.07-15,.78,0,1.56.09,2.35.09H194"/><path class="cls-1" d="M80.72,126.41h-3.1V5H90.29v97.22s-10.14,3.61-10.17,11.32A112,112,0,0,0,80.72,126.41Z"/><path class="cls-1" d="M180.67,11.72H148.58s-7.32,1.13-12.39,14.08S113.1,85.49,113.1,85.49h19.71l1.69-19.8,46.17-1.23Z"/><line class="cls-1" x1="68.92" y1="56.85" x2="68.92" y2="115.79"/><polygon class="cls-2" points="0.03 114.85 63.85 110.72 63.85 114.85 0.03 114.85"/><line class="cls-3" x1="132.49" y1="45.72" x2="141.31" y2="55.99"/><line class="cls-3" x1="135.44" y1="52.49" x2="123.35" y2="61.5"/></g></g></svg>