<svg id="Calque_1" data-name="Calque 1" xmlns="http://www.w3.org/2000/svg" viewBox="0 0 541.69 331.58"><defs><style>.cls-1,.cls-2,.cls-3,.cls-5,.cls-6{fill:none;}.cls-1,.cls-2,.cls-3,.cls-4,.cls-6{stroke:#000;}.cls-1,.cls-2,.cls-3,.cls-4,.cls-5,.cls-6{stroke-miterlimit:10;}.cls-1{stroke-width:7px;}.cls-2{stroke-width:8px;}.cls-3,.cls-4{stroke-width:5px;}.cls-4{fill:#cecdcd;}.cls-5{stroke:#e30613;stroke-width:13px;}.cls-6{stroke-width:6px;}</style></defs><path class="cls-1" d="M153.84,511.05H328.31l-42.26-77.48-86.7,9.21h0A51.62,51.62,0,0,0,153.84,494Z" transform="translate(-150.34 -429.84)"/><polyline class="cls-1" points="135.71 3.73 219.69 3.73 219.69 222.63 3.5 222.63 3.5 152.73 13.25 81.21"/><rect class="cls-1" x="33.01" y="112.34" width="14.09" height="46.06"/><circle class="cls-1" cx="117.01" cy="289.55" r="38.33"/><circle class="cls-1" cx="117.01" cy="289.55" r="23.26"/><path class="cls-1" d="M305,726.71" transform="translate(-150.34 -429.84)"/><path class="cls-1" d="M305,726.71h19.8V716.27a49.71,49.71,0,0,0-49.71-49.71H262.33a49.7,49.7,0,0,0-49.7,49.71v10.44H229" transform="translate(-150.34 -429.84)"/><circle class="cls-1" cx="452.08" cy="289.75" r="38.33"/><circle class="cls-1" cx="452.08" cy="289.75" r="23.26"/><path class="cls-1" d="M640.05,726.91" transform="translate(-150.34 -429.84)"/><path class="cls-1" d="M640.05,726.91h19.8V716.47a49.71,49.71,0,0,0-49.7-49.71H597.4a49.72,49.72,0,0,0-49.71,49.71v10.44h16.39" transform="translate(-150.34 -429.84)"/><polyline class="cls-1" points="47.09 112.34 47.09 99.2 118.21 99.2 118.21 158.4 47.09 158.4"/><path class="cls-1" d="M153.84,652.47V707.2a19.51,19.51,0,0,0,19.5,19.51h39.29" transform="translate(-150.34 -429.84)"/><line class="cls-1" x1="337.72" y1="251.21" x2="411.5" y2="251.21"/><polyline class="cls-1" points="494.89 251.41 538.19 251.41 538.19 297.06 509.51 297.06"/><polyline class="cls-1" points="177.97 222.63 177.97 251.21 337.72 251.21"/><line class="cls-1" x1="174.45" y1="296.86" x2="395.21" y2="296.86"/><polyline class="cls-2" points="232.7 3.73 232.7 222.63 525.83 222.63"/><line class="cls-3" x1="267.37" y1="81.21" x2="267.37" y2="210.71"/><line class="cls-3" x1="371.95" y1="81.21" x2="371.95" y2="210.71"/><line class="cls-3" x1="267.37" y1="116.97" x2="371.95" y2="116.97"/><line class="cls-3" x1="267.37" y1="159.78" x2="371.95" y2="159.78"/><line class="cls-3" x1="267.37" y1="202.04" x2="371.95" y2="202.04"/><line class="cls-3" x1="267.37" y1="88.25" x2="278.21" y2="88.25"/><line class="cls-3" x1="361.11" y1="88.25" x2="371.95" y2="88.25"/><line class="cls-3" x1="401.15" y1="81.21" x2="401.15" y2="210.71"/><line class="cls-3" x1="505.72" y1="81.21" x2="505.72" y2="210.71"/><line class="cls-3" x1="401.15" y1="116.97" x2="505.72" y2="116.97"/><line class="cls-3" x1="401.15" y1="159.78" x2="505.72" y2="159.78"/><line class="cls-3" x1="401.15" y1="202.04" x2="505.72" y2="202.04"/><line class="cls-3" x1="401.15" y1="88.25" x2="411.98" y2="88.25"/><line class="cls-3" x1="494.89" y1="88.25" x2="505.72" y2="88.25"/><rect class="cls-4" x="401.15" y="159.78" width="104.57" height="42.26"/><rect class="cls-4" x="267.37" y="159.78" width="104.57" height="42.26"/><line class="cls-5" x1="319.66" y1="155.44" x2="319.66" y2="218.29"/><line class="cls-5" x1="457.18" y1="112.09" x2="457.18" y2="218.29"/><line class="cls-6" x1="177.97" y1="3.73" x2="177.97" y2="222.63"/></svg>