<svg id="Calque_1" data-name="Calque 1" xmlns="http://www.w3.org/2000/svg" viewBox="0 0 587.56 1082.65"><defs><style>.cls-1,.cls-2,.cls-4,.cls-5,.cls-6{fill:none;}.cls-1,.cls-2,.cls-3,.cls-4,.cls-5{stroke:#1d1d1b;}.cls-1,.cls-2,.cls-3,.cls-4,.cls-5,.cls-6{stroke-miterlimit:10;}.cls-1{stroke-width:6px;}.cls-2,.cls-3{stroke-width:5px;}.cls-3{fill:#1d1d1b;}.cls-4{stroke-width:4px;}.cls-5{stroke-width:2px;}.cls-6{stroke:#000;stroke-width:3px;}</style></defs><path class="cls-1" d="M354.72,1036.9" transform="translate(-127.98 -41.06)"/><path class="cls-2" d="M690.21,1142.35" transform="translate(-127.98 -41.06)"/><path class="cls-2" d="M581.55,1032.56" transform="translate(-127.98 -41.06)"/><path class="cls-2" d="M515,1053.05" transform="translate(-127.98 -41.06)"/><path class="cls-2" d="M278.81,1030.5l2,0" transform="translate(-127.98 -41.06)"/><path class="cls-2" d="M358.33,1046" transform="translate(-127.98 -41.06)"/><line class="cls-2" x1="523.41" y1="1002.38" x2="496.5" y2="992.98"/><polygon class="cls-2" points="496.5 981.67 523.41 974.05 523.41 1002.38 496.5 1010.89 496.5 981.67"/><line class="cls-2" x1="494.73" y1="1011.81" x2="444.82" y2="992.98"/><polyline class="cls-1" points="570.54 884.52 296.64 971.17 13.83 872.38"/><path class="cls-1" d="M353.94,726" transform="translate(-127.98 -41.06)"/><path class="cls-1" d="M342.11,863,143.34,793.6a.54.54,0,0,1,0-1l66.16-20.93" transform="translate(-127.98 -41.06)"/><path class="cls-1" d="M648,785.67l50,17.24a.8.8,0,0,1,0,1.52L423.2,891.36,342.11,863" transform="translate(-127.98 -41.06)"/><line class="cls-1" x1="202.97" y1="687.43" x2="235.44" y2="677.16"/><polyline class="cls-1" points="572.31 954.1 298.74 1041.06 13.81 941.89"/><line class="cls-1" x1="520.64" y1="866.63" x2="573.61" y2="885.07"/><path class="cls-1" d="M648.62,907.69" transform="translate(-127.98 -41.06)"/><line class="cls-1" x1="368.91" y1="813.82" x2="384.73" y2="819.33"/><path class="cls-1" d="M496.89,854.88" transform="translate(-127.98 -41.06)"/><line class="cls-1" x1="213.26" y1="811.47" x2="228" y2="806.79"/><path class="cls-1" d="M326,857.39" transform="translate(-127.98 -41.06)"/><line class="cls-1" x1="17.51" y1="873.69" x2="80.84" y2="853.56"/><polyline class="cls-2" points="304.67 625.74 304.67 585.26 293.4 585.26 293.4 625.74"/><line class="cls-2" x1="561.45" y1="790.36" x2="561.45" y2="888.34"/><path class="cls-2" d="M689.43,831.41" transform="translate(-127.98 -41.06)"/><polyline class="cls-2" points="572.39 886.41 572.39 690 561.45 690 561.45 758.82 561.45 767.27"/><polyline class="cls-2" points="309.67 847.91 309.67 776.89 298.41 776.84 298.41 973.14 298.41 1043.06"/><line class="cls-2" x1="309.67" y1="966.33" x2="309.67" y2="870.9"/><polyline class="cls-2" points="13.83 875.18 13.83 678.02 24.19 678.02 24.23 749.81"/><line class="cls-2" x1="24.23" y1="875.1" x2="24.23" y2="778.97"/><ellipse class="cls-2" cx="452.79" cy="701.06" rx="66.52" ry="20.49"/><path class="cls-2" d="M647.29,915.64c0,11.31-29.78,20.48-66.52,20.48s-66.51-9.17-66.51-20.48a7.33,7.33,0,0,1,.11-1.24" transform="translate(-127.98 -41.06)"/><ellipse class="cls-2" cx="302.76" cy="646.23" rx="66.52" ry="20.49"/><ellipse class="cls-2" cx="148.05" cy="698.99" rx="66.52" ry="20.49"/><path class="cls-2" d="M342.46,915.76a6.59,6.59,0,0,1,.09,1.09c0,11.31-29.78,20.49-66.52,20.49s-66.52-9.18-66.52-20.49a6.51,6.51,0,0,1,.16-1.39" transform="translate(-127.98 -41.06)"/><ellipse class="cls-2" cx="293.4" cy="750.39" rx="66.52" ry="20.49"/><path class="cls-2" d="M426.39,983.26c-1.65,0-3.32,0-5,0-36.73,0-66.51-9.17-66.51-20.48a6.33,6.33,0,0,1,.17-1.5" transform="translate(-127.98 -41.06)"/><path class="cls-2" d="M487.47,960.47a6.65,6.65,0,0,1,.43,2.36c0,9.59-21.4,17.64-50.29,19.87" transform="translate(-127.98 -41.06)"/><line class="cls-2" x1="519.31" y1="873.13" x2="519.31" y2="874.58"/><line class="cls-2" x1="519.31" y1="805" x2="519.31" y2="873.13"/><line class="cls-2" x1="519.31" y1="701.06" x2="519.31" y2="779.84"/><line class="cls-2" x1="386.28" y1="847.51" x2="386.28" y2="874.58"/><path class="cls-2" d="M514.26,890.73" transform="translate(-127.98 -41.06)"/><path class="cls-2" d="M514.26,862.76" transform="translate(-127.98 -41.06)"/><line class="cls-2" x1="386.28" y1="701.06" x2="386.28" y2="821.7"/><line class="cls-2" x1="359.92" y1="855.11" x2="359.92" y2="921.77"/><line class="cls-2" x1="359.92" y1="750.39" x2="359.92" y2="829.96"/><line class="cls-2" x1="226.89" y1="920.29" x2="226.89" y2="921.77"/><line class="cls-2" x1="226.89" y1="849.76" x2="226.89" y2="920.29"/><line class="cls-2" x1="226.89" y1="750.39" x2="226.89" y2="826.58"/><path class="cls-2" d="M357.55,735.05" transform="translate(-127.98 -41.06)"/><line class="cls-2" x1="214.57" y1="823.16" x2="214.57" y2="698.99"/><line class="cls-2" x1="214.57" y1="875.79" x2="214.57" y2="844.41"/><line class="cls-2" x1="81.53" y1="874.65" x2="81.53" y2="875.79"/><line class="cls-2" x1="81.53" y1="874.37" x2="81.53" y2="874.65"/><line class="cls-2" x1="81.53" y1="873.84" x2="81.53" y2="874.37"/><line class="cls-2" x1="81.54" y1="798.8" x2="81.53" y2="873.84"/><path class="cls-2" d="M209.41,843.54" transform="translate(-127.98 -41.06)"/><path class="cls-2" d="M209.51,816.77" transform="translate(-127.98 -41.06)"/><line class="cls-2" x1="81.53" y1="698.99" x2="81.53" y2="775.71"/><line class="cls-2" x1="236.24" y1="645.23" x2="236.24" y2="740.34"/><line class="cls-2" x1="369.28" y1="644.23" x2="369.28" y2="825.29"/><path class="cls-2" d="M700.29,995.16l.08-69.58Z" transform="translate(-127.98 -41.06)"/><path class="cls-2" d="M141.79,983l.08-70Z" transform="translate(-127.98 -41.06)"/><line class="cls-3" x1="369.11" y1="691.94" x2="386.11" y2="697.36"/><polyline class="cls-2" points="13.77 774.64 298.9 874.24 571.96 787.26"/><line class="cls-2" x1="420.41" y1="1032.5" x2="393.5" y2="1023.09"/><polygon class="cls-2" points="394.37 1012.09 421.28 1004.47 421.28 1032.8 394.37 1041.31 394.37 1012.09"/><path class="cls-2" d="M582.37,1034" transform="translate(-127.98 -41.06)"/><path class="cls-2" d="M615.13,1051.92" transform="translate(-127.98 -41.06)"/><line class="cls-2" x1="392.77" y1="1042.42" x2="348.29" y2="1024.35"/><line class="cls-2" x1="519.31" y1="768.87" x2="534.39" y2="774.64"/><line class="cls-2" x1="384.73" y1="721.86" x2="369.28" y2="716.46"/><path class="cls-4" d="M700.66,1016.18l4.11,1.43c.05,0,.05.1,0,.11l-15.42,4.88-14.57-5.09s0,0,0,0l5-1.79" transform="translate(-127.98 -41.06)"/><line class="cls-4" x1="561.14" y1="991.59" x2="561.37" y2="981.54"/><polyline class="cls-4" points="576.83 976.62 583.95 984.29 561.02 991.59 561.01 991.59 539.45 984.01 546.74 976.43"/><path class="cls-4" d="M440.2,1105.15l4.37,1.52a.06.06,0,0,1,0,.11l-15.41,4.88-14.6-5.1s0,0,0,0l4.07-1.38" transform="translate(-127.98 -41.06)"/><path class="cls-4" d="M440.2,1105.15" transform="translate(-127.98 -41.06)"/><path class="cls-4" d="M418.62,1105.16" transform="translate(-127.98 -41.06)"/><line class="cls-4" x1="300.94" y1="1080.64" x2="301.17" y2="1070.6"/><line class="cls-4" x1="286.54" y1="1065.49" x2="279.25" y2="1073.07"/><path class="cls-4" d="M444.6,1106.74l7.13,7.64v0l-22.93,7.3h0l-21.54-7.57s0,0,0,0l.06,0" transform="translate(-127.98 -41.06)"/><line class="cls-4" x1="236.24" y1="704.26" x2="214.13" y2="711.25"/><line class="cls-4" x1="81.53" y1="753.2" x2="47.79" y2="763.87"/><polyline class="cls-4" points="551.83 974.63 551.83 975.24 561.98 978.87 562 961.46"/><line class="cls-4" x1="551.93" y1="961.46" x2="551.83" y2="974.63"/><polyline class="cls-4" points="572.68 975.47 562 978.87 562 957.38"/><line class="cls-4" x1="572.79" y1="954.1" x2="572.68" y2="975.47"/><polygon class="cls-4" points="291.19 1038.43 291 1063.57 301.16 1067.2 301.18 1040.28 291.19 1038.43"/><polygon class="cls-4" points="301.18 1067.2 301.18 1040.28 312.04 1036.83 311.86 1063.8 301.18 1067.2"/><path class="cls-4" d="M161.44,1004l5.86,2.05s0,.09,0,.11l-15.42,4.87-14.6-5.1s0,0,0,0l5.85-2" transform="translate(-127.98 -41.06)"/><line class="cls-4" x1="23.67" y1="980.06" x2="23.9" y2="970.01"/><line class="cls-4" x1="9.27" y1="964.9" x2="1.98" y2="972.48"/><path class="cls-4" d="M167.34,1006.15l7.13,7.65v0l-22.94,7.29h0L130,1013.55s0,0,0,0l0,0" transform="translate(-127.98 -41.06)"/><polygon class="cls-4" points="13.89 942.26 13.74 962.98 23.89 966.61 23.91 945.8 13.89 942.26"/><polyline class="cls-4" points="34.67 950.56 34.59 963.22 23.91 966.61 23.91 945.89"/><polyline class="cls-5" points="19.03 668.44 302.76 2.65 566.92 681.36"/><polyline class="cls-5" points="304.04 768.21 302.76 2.65 299.04 578.17"/><path class="cls-6" d="M140.84,716.58c0-3.91,2.76-7.08,6.17-7.08s6.17,3.17,6.17,7.08" transform="translate(-127.98 -41.06)"/><path class="cls-6" d="M420.85,626.32c0-3.92,2.76-7.09,6.17-7.09s6.17,3.17,6.17,7.09" transform="translate(-127.98 -41.06)"/><path class="cls-6" d="M688.73,729.5c0-3.91,2.76-7.08,6.17-7.08s6.17,3.17,6.17,7.08" transform="translate(-127.98 -41.06)"/><path class="cls-6" d="M425.85,816.35c0-3.91,2.76-7.08,6.17-7.08s6.17,3.17,6.17,7.08" transform="translate(-127.98 -41.06)"/></svg>