<?xml version="1.0" encoding="utf-8"?>
<!-- Generator: Adobe Illustrator 23.0.3, SVG Export Plug-In . SVG Version: 6.00 Build 0)  -->
<svg version="1.1" id="Calque_1" xmlns="http://www.w3.org/2000/svg" xmlns:xlink="http://www.w3.org/1999/xlink" x="0px" y="0px"
	 viewBox="0 0 600 600" style="enable-background:new 0 0 600 600;" xml:space="preserve">
<style type="text/css">
	.st0{fill:#F2C8A0;}
	.st1{opacity:0.2;}
	.st2{fill:#CCCCCC;}
	.st3{fill:#FFFFFF;}
	.st4{fill:#1A1A1A;}
	.st5{fill:#A37D5D;}
</style>
<g>
	<path class="st0" d="M470.94,106.3c-18.86-54.57-54.78-87.18-106.75-96.92c-115.51-21.66-219.53,4.51-271.45,68.3
		c-50.2,61.67-47.41,231.55-6.79,280.02c38.25,45.63,41.15,51.11,41.15,136.08v5.18c0,56.76,46.18,102.94,102.94,102.94
		c55.9,0,102.08-45.49,102.93-101.4c0.53-34.65,1.72-48.66,2.66-54.3l120.68-32.67c2.13-0.58,3.71-2.38,4-4.57l25.32-191.61
		c0.03-0.24,0.05-0.48,0.05-0.72l0.01-2.75C485.73,194.58,485.83,149.37,470.94,106.3z"/>
	<g>
		<path class="st1" d="M95.71,74.22c-0.99,1.15-2.01,2.29-2.96,3.47c-50.2,61.67-47.41,231.55-6.79,280.02
			c38.25,45.63,41.15,51.11,41.15,136.08v5.18c0,56.76,46.18,102.94,102.94,102.94c37.77,0,71.08-20.79,88.99-51.51
			c-18.93,21.47-46.57,35.09-77.13,35.09c-56.76,0-102.94-46.18-102.94-102.94v-5.18v-15.51h195.08c0,0,0.27-3.46,0.7-7.84
			c0.43-4.38-17.59-22.15-17.59-22.15l-178.46,13.55c-1.28-55.41-8.1-65.03-40.87-104.12C64.84,301.94,56.8,182.63,81.78,106.1
			l1.5,0.95L339.6,319.97v92.61h26.1l-0.49-71.34c1.02,0.85,2.26,1.26,3.5,1.26c1.57,0,3.13-0.67,4.21-1.98l25.8-31.06
			c0.93-1.12,1.37-2.56,1.24-4c-0.13-1.44-0.84-2.78-1.95-3.7L122.81,73.17L95.71,74.22z"/>
		<path d="M347.49,429.77c-0.41,2.51-0.88,6.68-1.32,13.57l110.14-29.82c2.13-0.58,3.71-2.38,4-4.57l1.33-10.09L347.49,429.77z"/>
	</g>
	<g>
		<path class="st2" d="M480.2,216.63c0,17.11,50.64,88.28,50.64,129.34s-73.91,137.55-177.92,137.55c0-15.05,0-192.29,0-192.29
			L480.2,216.63z"/>
		<path class="st2" d="M352.92,488.99c-3.02,0-5.47-2.45-5.47-5.47V291.22c0-1.94,1.03-3.74,2.71-4.72l127.28-74.59
			c1.69-0.99,3.79-1,5.49-0.03c1.7,0.98,2.75,2.79,2.75,4.75c0,5.38,8.46,21.7,16.65,37.49c15.14,29.21,33.99,65.56,33.99,91.85
			C536.32,387.22,463.23,488.99,352.92,488.99z M358.4,294.36v183.59c96.8-3.3,166.97-93.31,166.97-131.98
			c0-23.62-18.16-58.65-32.76-86.81c-7.95-15.33-13.5-26.22-16.13-34L358.4,294.36z"/>
	</g>
	<g>
		<polygon class="st2" points="380.98,448.61 118.2,448.61 109.31,408.24 380.98,408.24 		"/>
		<path class="st2" d="M380.98,454.09H118.2c-2.57,0-4.79-1.79-5.35-4.3l-8.9-40.37c-0.36-1.62,0.04-3.31,1.08-4.61
			c1.04-1.29,2.61-2.04,4.27-2.04h271.67c3.02,0,5.47,2.45,5.47,5.47v40.37C386.45,451.64,384,454.09,380.98,454.09z M122.6,443.14
			h252.9v-29.43H116.12L122.6,443.14z"/>
	</g>
	<path class="st2" d="M403.47,296.29L105.25,48.57c-2.32-1.93-5.78-1.61-7.71,0.71l-25.8,31.06c-0.93,1.12-1.37,2.56-1.24,4
		c0.13,1.45,0.84,2.78,1.95,3.71l298.22,247.72c1.02,0.85,2.26,1.26,3.5,1.26c1.57,0,3.13-0.67,4.21-1.98l25.8-31.06
		c0.93-1.12,1.37-2.56,1.24-4C405.29,298.55,404.58,297.22,403.47,296.29z"/>
	<circle class="st3" cx="447.36" cy="181.25" r="18.9"/>
	<path class="st4" d="M454.09,181.25l9.78-3.71c-1.54-4.05-5.45-6.75-9.78-6.75c-5.74,0-10.46,4.72-10.46,10.46
		s4.72,10.46,10.46,10.46c4.5,0,8.51-2.9,9.93-7.16L454.09,181.25z"/>
	<path class="st5" d="M487.71,167.07c-7.13-4.54-13.42-9.42-20.03-13.29c-6.57-3.91-13.55-6.5-20.89-6.88
		c-7.33-0.42-14.82,1.51-21.87,4.67c-7.15,3.03-13.63,7.7-20.07,12.33l-0.11,0.08c-0.91,0.66-2.18,0.45-2.83-0.46
		c-0.63-0.87-0.46-2.07,0.35-2.75c6.27-5.23,12.62-10.55,20.11-14.39c7.35-3.94,15.69-6.85,24.53-6.99
		c8.82-0.21,17.6,2.43,25.13,6.24c7.6,3.77,14.43,8.33,21.19,11.97l0.03,0.02c2.66,1.43,3.66,4.76,2.23,7.42
		c-1.43,2.66-4.76,3.66-7.42,2.23C487.95,167.22,487.82,167.14,487.71,167.07z"/>
	<g>
		<path class="st0" d="M233.85,296.01c0,19.16-13.69,23.95-23.27,23.95c-9.58,0-25.32-8.9-25.32-23.95s2.74-22.58-8.21-40.37
			c-10.95-17.79-10.95-22.58-10.95-39.01s13.99-45.85,45.85-45.85s49.27,22.58,49.27,40.37s-11.95,31.4-11.95,31.4"/>
		<path class="st5" d="M237.73,296.01c-0.04,3.84-0.49,7.81-1.9,11.67c-1.37,3.85-3.83,7.51-7.08,10.2
			c-3.23,2.75-7.14,4.39-11.04,5.31c-1.96,0.45-3.94,0.72-5.94,0.79c-0.96,0.07-2.05,0.01-3.13-0.06c-1.05-0.1-2.08-0.26-3.09-0.47
			c-7.88-1.83-14.87-6.13-19.76-12.81c-2.39-3.35-4.05-7.38-4.56-11.57l-0.21-3.13l0.02-2.7l0.13-5.31
			c0.29-7.02,0.05-13.09-2.3-19.01c-1.12-2.97-2.63-5.88-4.29-8.75c-1.62-2.78-3.67-5.98-5.4-9.09c-1.77-3.16-3.47-6.48-4.8-10.12
			c-1.34-3.63-2.19-7.58-2.52-11.35c-0.34-3.77-0.36-7.37-0.39-10.89c-0.05-1.66,0.05-3.7,0.16-5.7c0.27-1.93,0.47-3.89,0.95-5.75
			c1.65-7.52,4.87-14.52,9.34-20.74c4.46-6.2,10.31-11.61,17.25-15.25c6.94-3.62,14.79-5.41,22.45-5.45
			c7.53-0.04,15.15,1.08,22.38,3.72c7.23,2.6,13.97,6.81,19.43,12.39c2.82,2.7,5.11,5.93,7.22,9.25c1.91,3.45,3.66,7.05,4.62,10.99
			c0.32,0.95,0.45,1.97,0.64,2.97c0.17,1.01,0.4,2,0.42,3.04c0.07,1.03,0.15,2.07,0.18,3.1l-0.11,2.97
			c-0.27,3.94-1.01,7.81-2.14,11.52c-1.13,3.71-2.63,7.26-4.44,10.63c-0.91,1.68-1.86,3.34-2.92,4.93
			c-1.09,1.64-2.09,3.08-3.55,4.83c-1.94,2.32-5.39,2.62-7.71,0.69c-2.3-1.92-2.62-5.33-0.73-7.65l0.21-0.26
			c7.56-9.27,12.79-22.99,9.91-34.13c-0.65-2.89-1.99-5.65-3.41-8.33c-1.64-2.57-3.37-5.15-5.61-7.3
			c-4.28-4.47-9.66-7.94-15.58-10.12c-5.9-2.22-12.32-3.25-18.78-3.28c-6.33-0.02-12.51,1.37-18.03,4.16
			c-10.97,5.66-19.09,17.07-21.96,29.38c-0.43,1.53-0.56,3.06-0.81,4.59c-0.08,1.49-0.19,2.95-0.16,4.78
			c-0.01,3.47-0.01,6.89,0.25,10.09c0.26,3.2,0.88,6.14,1.92,9.1c1.04,2.95,2.5,5.91,4.12,8.86c1.64,3.02,3.35,5.73,5.23,9.01
			c1.81,3.2,3.5,6.53,4.83,10.13c1.33,3.58,2.22,7.46,2.56,11.3c0.35,3.84,0.22,7.55,0.09,11.05l-0.18,5.18l-0.04,2.54l0.12,2.1
			c0.32,2.76,1.35,5.42,3,7.79c3.3,4.72,8.94,8.3,14.65,9.64c1.48,0.29,2.67,0.47,4.2,0.39c1.51-0.03,3.01-0.23,4.46-0.55
			c2.89-0.66,5.62-1.8,7.75-3.59c4.38-3.47,6.23-9.42,6.28-15.73l0-0.08c0.02-2.14,1.77-3.87,3.91-3.85
			c2.14,0.02,3.87,1.77,3.85,3.91L237.73,296.01z"/>
	</g>
	<path class="st5" d="M221.36,276.17c-5.8-0.27-11.92-1.89-16.72-6.06c-2.39-2.04-4.4-4.71-5.55-7.81
		c-1.18-3.08-1.44-6.54-0.86-9.75c0.61-3.18,1.85-6.28,4-8.93c2.15-2.62,5.03-4.57,8.04-5.74c3.02-1.17,6.12-1.66,9.15-1.79
		c3.08-0.08,5.9,0.14,9.07,0.8l-4.12,2.21l0,0c2.62-7.12,4.6-14.99,4.75-22.46c0.03-3.71-0.43-7.44-1.97-10.35
		c-0.76-1.45-1.74-2.71-3.01-3.66c-1.28-0.93-2.8-1.59-4.45-2.03c-1.7-0.33-3.48-0.59-5.35-0.46c-1.87,0.1-3.77,0.09-5.52,0.58
		c-3.58,0.68-6.93,2.21-9.3,4.83c-4.9,5.14-5.95,13.62-4.96,20.98l0.02,0.15c0.14,1.07-0.6,2.05-1.67,2.19
		c-1.04,0.14-2-0.57-2.18-1.59c-0.76-4.34-0.82-8.53-0.14-12.85c0.72-4.26,2.39-8.59,5.45-12.05c0.82-0.8,1.6-1.65,2.48-2.38
		l2.85-1.92c2.04-0.95,4.12-1.96,6.3-2.34c2.16-0.65,4.32-0.73,6.49-0.9c2.16-0.21,4.45,0,6.71,0.39c2.28,0.51,4.56,1.38,6.6,2.78
		c2.04,1.41,3.67,3.37,4.85,5.45c2.37,4.24,2.96,8.82,3.09,13.14c0.07,8.74-1.73,16.87-4.4,25l0,0c-0.59,1.62-2.24,2.54-3.88,2.25
		l-0.24-0.04c-4.57-0.79-9.94-0.78-14.06,0.79c-2.08,0.77-3.87,1.93-5.24,3.48c-1.35,1.56-2.26,3.65-2.8,5.76
		c-1.06,4.25,0.45,8.71,3.77,11.94c3.3,3.28,8.15,5.14,13.14,5.82l0.06,0.01c1.25,0.17,2.13,1.33,1.96,2.58
		C223.57,275.37,222.53,276.22,221.36,276.17z"/>
</g>
</svg>
